<svg id="图层_1" data-name="图层 1" xmlns="http://www.w3.org/2000/svg" viewBox="0 0 2000 2000"><defs><style>.cls-1{fill:#205659;}.cls-1,.cls-2,.cls-5{stroke:#120f0e;stroke-linecap:round;stroke-miterlimit:10;stroke-width:50px;}.cls-2{fill:#f2e3ef;}.cls-3{fill:#741e1e;}.cls-4{fill:#566f89;}.cls-5{fill:none;}.cls-6{fill:#b12e2e;}.cls-7{fill:#6e8fbe;}</style></defs><title>画板 1big</title><rect class="cls-1" x="840.91" y="721.81" width="98.45" height="1107.76" rx="49.23" ry="49.23" transform="translate(1446.01 2728.52) rotate(-166.03)"/><path class="cls-2" d="M418,948.23c-127.1-148.43-67.14-399.07,99.28-481.73C496.78,254,692.27,112.21,874.22,198.14c184.16-104.6,378.5-77.55,488.24,98.86,146,.3,279,110.65,236.38,248.57,133.76,103.31,126.67,311.31-9.34,389.24,47.89,151.68-5.16,240.84-132.68,291.93-90.37,230.44-407.73,294.12-625.25,136.33C548.62,1389.05,340.49,1199.47,418,948.23Z"/><circle class="cls-3" cx="867.33" cy="440.96" r="64.26"/><circle class="cls-4" cx="1465.74" cy="663.5" r="64.26"/><polygon class="cls-3" points="1045.36 639.36 953.45 723.65 1072.4 761.1 1045.36 639.36"/><polygon class="cls-4" points="1159.37 880.72 1089.03 983.7 1213.38 993.12 1159.37 880.72"/><path class="cls-5" d="M1021.67,1305.5c102.72,47.19,258.27-17.51,310.25-91.14"/><path class="cls-5" d="M608.22,948.73c-25.35,101.89,58.56,228.56,159.3,239.19"/><path class="cls-5" d="M1418.23,867.38c-18,127.89-102.62,195.61-219.59,192.33"/><path class="cls-5" d="M698.78,584.69c-14.78,89.75,28.56,138,82.4,144"/><path class="cls-5" d="M1261.75,497c51.07,2,85.21,35.42,85.37,78.15"/><path class="cls-5" d="M817,989.12c23.32,73.54,137.6,137.48,238.63,108"/><circle class="cls-6" cx="854.82" cy="424.39" r="64.26"/><circle class="cls-7" cx="1454.23" cy="647.93" r="64.26"/><polygon class="cls-6" points="1032.85 622.79 940.94 707.08 1059.89 744.53 1032.85 622.79"/><polygon class="cls-7" points="1147.85 865.15 1077.52 968.14 1201.87 977.56 1147.85 865.15"/></svg>