<svg id="图层_1" data-name="图层 1" xmlns="http://www.w3.org/2000/svg" viewBox="0 0 2000 2000"><defs><style>.cls-1{fill:#205659;}.cls-1,.cls-2{stroke:#fff;}.cls-1,.cls-2,.cls-5{stroke-linecap:round;stroke-miterlimit:10;stroke-width:50px;}.cls-2{fill:#f2e3ef;}.cls-3{fill:#741e1e;}.cls-4{fill:#566f89;}.cls-5{fill:none;stroke:#120f0e;}.cls-6{fill:#b12e2e;}.cls-7{fill:#6e8fbe;}</style></defs><title>marshmallow_light</title><rect class="cls-1" x="829.11" y="746.04" width="183.45" height="1107.76" rx="91.73" ry="91.73" transform="translate(1500.65 2783.69) rotate(-166.03)"/><path class="cls-2" d="M448.73,972.47C321.62,824,381.59,573.39,548,490.74,527.48,278.27,723,136.45,904.92,222.37c184.16-104.6,378.5-77.55,488.24,98.86,146,.3,279,110.65,236.38,248.57C1763.3,673.1,1756.21,881.1,1620.19,959c47.89,151.68-5.16,240.84-132.68,291.93-90.37,230.44-407.73,294.12-625.25,136.33C579.32,1413.28,371.19,1223.7,448.73,972.47Z"/><circle class="cls-3" cx="898.03" cy="465.19" r="64.26"/><circle class="cls-4" cx="1496.44" cy="687.73" r="64.26"/><polygon class="cls-3" points="1076.06 663.59 984.15 747.88 1103.1 785.33 1076.06 663.59"/><polygon class="cls-4" points="1190.06 904.96 1119.73 1007.94 1244.08 1017.36 1190.06 904.96"/><path class="cls-5" d="M1052.37,1329.73c102.72,47.19,258.27-17.51,310.25-91.14"/><path class="cls-5" d="M638.92,973c-25.35,101.89,58.56,228.56,159.3,239.19"/><path class="cls-5" d="M1448.93,891.62c-18,127.89-102.62,195.61-219.59,192.33"/><path class="cls-5" d="M729.47,608.93c-14.78,89.75,28.56,138,82.4,144"/><path class="cls-5" d="M1292.45,521.28c51.07,2,85.21,35.42,85.37,78.15"/><path class="cls-5" d="M847.68,1013.36c23.32,73.54,137.6,137.48,238.63,108"/><circle class="cls-6" cx="885.52" cy="448.62" r="64.26"/><circle class="cls-7" cx="1484.92" cy="672.17" r="64.26"/><polygon class="cls-6" points="1063.55 647.03 971.63 731.32 1090.59 768.77 1063.55 647.03"/><polygon class="cls-7" points="1178.55 889.39 1108.21 992.37 1232.57 1001.79 1178.55 889.39"/></svg>