<svg xmlns="http://www.w3.org/2000/svg" viewBox="0 0 2000 2000"><defs><style>.cls-1{fill:#e6e5e5;}</style></defs><title>merry_light_gray</title><g id="图层_2" data-name="图层 2"><path class="cls-1" d="M1619.29,1033.63a67.74,67.74,0,0,1-13-7.14,47.29,47.29,0,0,1-5.45-4.61c-1.58-1.55-3.08-4.21-5.08-5.11-3.69-1.66-7.51-2.79-11.1-4.72a58.25,58.25,0,0,1-9.82-6.58c-11.84-9.88-19.08-24-21.57-39.1a96.42,96.42,0,0,1-1.26-14.53c-.07-6-1.59-11.91-1.92-17.93-.11-2-.48-6.3-2.82-7.07s-2.73,3.22-2.66,4.59c.31,5.71,1.55,11.33,1.91,17,.33,5.23.36,10.42,1.05,15.63a95.48,95.48,0,0,0,7.59,27.28c7.27,15.81,19.55,28.58,35.76,35.25,2.53,1,4.59,1.48,6.43,3.57a47.27,47.27,0,0,0,6.1,5.76,69.86,69.86,0,0,0,16,9.37c3.44,1.47,3.29-10.18-.16-11.66Z"/><path class="cls-1" d="M1718.61,1034.15a85.83,85.83,0,0,1-8.84,1.46c-2.87.32-5.83.15-8.56,1.05a93.55,93.55,0,0,1-13.85,3.36,140.67,140.67,0,0,1-33.93,1.39c-3.18-.24-2.46,11.59,1.61,11.89a140.67,140.67,0,0,0,33.93-1.39,93.56,93.56,0,0,0,13.85-3.36c2.74-.91,5.69-.74,8.56-1.05a85.83,85.83,0,0,0,8.84-1.46c3.76-.82,1.88-12.65-1.61-11.89Z"/><path class="cls-1" d="M1797.45,892.27a44.75,44.75,0,0,1,2,15c-.09,3.74-.65,7.07.77,10.68,1,2.49,2,4.93,2.78,7.51,2.41,8.23,2.77,16.56.18,24.8-2.53,8.08-7.48,15.28-13.2,21.44a29,29,0,0,0-2.47,2.63,13.92,13.92,0,0,0-1.42,3.58,60.85,60.85,0,0,1-3.13,7.38,57,57,0,0,1-8,12.06,58.43,58.43,0,0,1-11.84,10.26,63.35,63.35,0,0,1-6.92,3.93,9.78,9.78,0,0,0-3.67,2.69c-1.14,1.31-2.33,2.55-3.56,3.77-1.81,1.8-1.43,5.33-.84,7.56.27,1,2,5.49,3.78,3.72,2.06-2,3.85-4.84,6.47-6.09a65.5,65.5,0,0,0,6.28-3.41,58.91,58.91,0,0,0,11.56-9.32,68.45,68.45,0,0,0,15.45-26.88l-.95,1.69c8.58-8.68,15.69-19,18.37-31.09,3.25-14.64.5-29.69-5.37-43.31l.81,6c.79-9.52.51-19.23-2.43-28.4-.46-1.45-1.64-5-3.78-3.72-1.92,1.16-1.36,5.94-.84,7.56Z"/><path class="cls-1" d="M1583.73,868.77c6-9.7,14.45-17.56,25.15-21.73,10.12-4,21.15-4.91,31.92-4.82,1.38,0,3.08.37,4.34-.24a14.48,14.48,0,0,0,1.92-1.62,31.38,31.38,0,0,1,5.07-3.12,51.75,51.75,0,0,1,12.32-4.06,85.81,85.81,0,0,1,27.27-1.27A51.91,51.91,0,0,1,1705,835c2.81,1.11,6.22,3.09,7.36,4.89.4.62,1.19,1.63,2.09,1.49,10.45-1.58,20.91-1.45,30.69,2.94,3.37,1.51,3.28-10.11-.16-11.66-10.16-4.56-21.28-4.82-32.14-3.17l2.09,1.49c-4-6.29-11.82-8.73-18.76-10a86.18,86.18,0,0,0-28.34-.52,65.46,65.46,0,0,0-13.83,3.45,48.67,48.67,0,0,0-5.6,2.52c-1.9,1-3.49,2.59-5.34,3.58s-5.67.34-7.91.39c-3.08.06-6.16.23-9.23.54a73.75,73.75,0,0,0-16.33,3.42c-12.83,4.38-22.8,13.08-29.86,24.55-1.39,2.26-.8,6,.16,8.26.65,1.56,2.45,3.95,3.87,1.65Z"/><path class="cls-1" d="M1729.37,987.38c3.67-.5,2.1-12.39-1.61-11.89s-2.1,12.39,1.61,11.89Z"/><path class="cls-1" d="M1605.53,965.29c-5.12-7.08-8.29-15.54-7.86-23.55a44.51,44.51,0,0,1,6.25-19.67c8.27-14.34,22.51-24.94,37.55-31.38a110.52,110.52,0,0,1,56.14-8c16.34,2,33.1,8.1,45.23,19.51,5.53,5.2,10.31,11.82,12.48,18.92,2.9,9.53.87,20.2-4,29.42-1.27,2.41-.85,5.83.16,8.26.59,1.42,2.58,4.1,3.87,1.65,9.87-18.77,9-42.22-3.32-59.68-10.57-14.92-27.42-24.07-45-28.07-37.59-8.56-85.37,3.74-106.42,38.25A57.57,57.57,0,0,0,1603,974.2c1.35,1.87,2.94,1.8,3.7-.5a10.86,10.86,0,0,0-1.14-8.41Z"/><path class="cls-1" d="M1727.1,975.79c-27.29,17.64-64.2,21.7-94.4,9.41-3.51-1.43-3.3,10.25.16,11.66,31.22,12.7,69,8.43,97.19-9.78,3-2,.44-13.46-2.94-11.28Z"/><path class="cls-1" d="M1652.65,1035.66c.07,7.82-2.63,16.81-9.65,21.14-6.43,4-13.69.4-17.39-5.48-4.35-6.92-4.57-15.91-1.73-23.45,2.41-6.41,8.32-13.12,15.89-11.62,8.61,1.71,12.62,11.58,12.88,19.41.07,2,.51,6.3,2.82,7.07s2.7-3.23,2.66-4.59c-.38-11.42-3.91-25.69-14.52-31.95-9.25-5.46-18.63,1.21-22.83,9.66-5.73,11.53-5.46,26.11-.9,38,3.31,8.62,11.5,19.19,22.09,16.06,12.7-3.76,16.27-20.34,16.16-31.75,0-1.95-.54-6.31-2.82-7.07S1652.64,1034.31,1652.65,1035.66Z"/><path class="cls-1" d="M1712.36,1030.81c2.71,10.25,9.24,23.32,20.66,25.89,10.63,2.39,17.6-6.91,19.62-16.27,2.69-12.5,0-27-7.42-37.51-5.47-7.72-15.43-14.77-24.76-8.87-11.46,7.25-10.82,25.42-8.1,36.76.36,1.49,1.7,5,3.78,3.72s1.24-5.87.84-7.56c-1.68-7-.85-15.79,5.09-20.67s13.77-1.95,18.59,3.14a27.55,27.55,0,0,1,7.21,22.68c-1.1,6.82-5.89,13.48-13.43,13.11-9.19-.45-15.35-10.33-17.45-18.26-.39-1.48-1.68-5-3.78-3.72S1711.92,1029.15,1712.36,1030.81Z"/><path class="cls-1" d="M1630.83,982.82c.87,7.59-6.51,14.18-13.51,15.13-6.85.92-16-3.44-17-11s6.66-14.2,13.51-15.13,15.86,3.46,17,11c.24,1.53,1.11,5.91,3.42,5.59s2-4.92,1.81-6.3c-1.46-9.35-6.73-19.11-16.54-21.67a19.2,19.2,0,0,0-21.86,10.06c-4.72,9.11-3.67,21.54,2.08,30,5,7.36,14.29,11.72,23,8.38,10.9-4.16,14.54-16,13.31-26.75-.17-1.53-1.15-5.9-3.42-5.59S1630.68,981.42,1630.83,982.82Z"/><path class="cls-1" d="M1759.24,969.6c.87,7.59-6.51,14.18-13.51,15.13-6.85.92-16-3.44-17-11s6.66-14.2,13.51-15.13,15.86,3.46,17,11c.24,1.53,1.11,5.91,3.42,5.59s2-4.92,1.81-6.3c-1.46-9.35-6.73-19.11-16.54-21.67a19.2,19.2,0,0,0-21.86,10.06c-4.72,9.11-3.67,21.54,2.08,30,5,7.36,14.29,11.72,23,8.38,10.9-4.16,14.54-16,13.31-26.75-.17-1.53-1.15-5.9-3.42-5.59S1759.09,968.21,1759.24,969.6Z"/><ellipse class="cls-1" cx="1644.82" cy="931.74" rx="9.54" ry="16.03" transform="matrix(1, -0.02, 0.02, 1, -19.6, 35.48)"/><ellipse class="cls-1" cx="1703.66" cy="923.8" rx="9.54" ry="16.03" transform="translate(-174.17 444.61) rotate(-14.15)"/><path class="cls-1" d="M1598.08,868.18c-7.42-6.58-16.09-11.33-26.08-12.29-8-.77-15.88,1.21-23.08,4.65-7.54,3.61-14.65,8.72-19,16-4.77,8-5.8,17.62-4.93,26.74,1.51,15.88,10.12,30.9,25.67,36.65,15.08,5.57,33.7-.22,40.58-15.27,4.71-10.31,5.08-22.68,2.86-33.69-.27-1.32-2.71-6.21-4.32-3a63.5,63.5,0,0,1-10.87,15.88c-4.3,4.36-12.31,8.86-18.52,5.93a6,6,0,0,1-3.34-5.92c0,1,.25-1.42.05-.54a3,3,0,0,1,.39-1.11,5.08,5.08,0,0,1,2.16-2.09c4.2-2.24,10.16-.46,14.34.92a66.49,66.49,0,0,1,11,4.71c2.21,1.21,2.67-3.48,2.66-4.59,0-2.25-.59-5.85-2.82-7.07a65.84,65.84,0,0,0-11.65-4.94c-5.31-1.68-13-3.58-17.66.57-2.87,2.54-3.68,6.66-3.85,10.31-.25,5.59.72,11.88,3.78,16.67,5,7.88,14.53,6.4,21.57,2.27,7.58-4.44,12.94-13.45,16.83-21.12l-4.32-3c-.65-3.22-.09-.34,0,.45.08.63.14,1.25.22,1.88.18,1.57,0-.8,0,.19,0,.54.06,1.07.08,1.61,0,1,0,1.94,0,2.91,0,.33-.06,1.77,0,.73,0,.68-.09,1.36-.15,2a31.35,31.35,0,0,1-1.36,7.08c-4.05,13.26-18,19.92-31.27,18.23a32.61,32.61,0,0,1-18.28-9.07,31.91,31.91,0,0,1-5.36-6.76,18.52,18.52,0,0,1-2.55-7c-1.23-6-.93-12.74,1.94-18.54,3.37-6.83,9.41-11.52,15.95-15.15a44,44,0,0,1,22.17-5.79c9.79.23,18.68,4.78,25.9,11.18,2,1.75,3.08-.9,3.29-2.62.3-2.36-.09-6.28-2-8Z"/><path class="cls-1" d="M1730.63,862.94c3.64-7.78,8.8-14.6,16.24-19.07a40.21,40.21,0,0,1,19.93-5.31c6.79-.13,14,.86,20.22,3.74a29.13,29.13,0,0,1,14.87,16.54,37.13,37.13,0,0,1,1.33,4.54c.17.71.25,1.15.37,1.82.09.5.16,1,.23,1.51,0,.16.15,1.56.09.74a12.48,12.48,0,0,0,0,1.35,3.88,3.88,0,0,1-.06,1.07,25.25,25.25,0,0,1-.61,3.73,32.81,32.81,0,0,1-9.62,16.35c-10.15,9.26-27.4,11.73-38.21,2.22a32.38,32.38,0,0,1-5.84-6.84,36.92,36.92,0,0,1-3.46-6.59c-.45-1.08-.86-2.17-1.26-3.26s-.18-.54-.09-.26c-.12-.42-.26-.84-.38-1.26-.22-.76-.43-1.53-.6-2.31l-2.23,7.75A88.38,88.38,0,0,0,1760,890c6.85,2.74,17.14,3,21.87-3.76,3.27-4.67,2.8-11.24,1.55-16.49-1-4.28-2.82-9.2-6.38-12-5.47-4.38-12.33-.59-17.06,3.06a65.38,65.38,0,0,0-11.34,11.51c-2.08,2.66.92,13.89,4,9.91-.17.22-.53.63.1-.11s1-1.21,1.54-1.8a73.11,73.11,0,0,1,5.14-5.28c3.54-3.27,8.47-7.66,13.65-7.43,4.33.19,7.4,5.74,4.58,8.9-4.49,5-13.34,3.82-18.79,1.48a93,93,0,0,1-17.46-10.25c-3-2.15-2.38,7-2.23,7.75a54.82,54.82,0,0,0,12.36,24.69c10.95,12.14,29.3,12.79,42.31,3.3,13.25-9.66,17.56-27,14.34-42.42-1.85-8.86-5.68-17.76-12.26-24.15-6.36-6.17-14.53-8.81-23.16-9.84a46.15,46.15,0,0,0-25,3.52c-9.76,4.51-16.69,12.85-21.18,22.46a10.69,10.69,0,0,0,.16,8.26c.55,1.31,2.68,4.19,3.87,1.65Z"/><path class="cls-1" d="M1591.89,868.35c-.72,9.09-7.93,17.3-14.5,23.06-2.81,2.46.19,13.69,2.94,11.28,8.38-7.35,16-17.5,16.89-28.95.19-2.43,0-6.29-2-8s-3.15.79-3.29,2.62Z"/><path class="cls-1" d="M1729,854.7c3.77,11.75,14.69,21.83,27.32,23,3.14.28,2.48-11.53-1.61-11.89-4.28-.38-8.5-2.46-12-4.78s-7.71-5.94-9.05-10.12c-.46-1.45-1.64-5-3.78-3.72-1.92,1.16-1.36,5.94-.84,7.56Z"/><path class="cls-1" d="M255.63,327.17a67.74,67.74,0,0,1-4.31-14.23,47.29,47.29,0,0,1-.66-7.11c0-2.22.75-5.16,0-7.21-1.47-3.77-3.41-7.25-4.63-11.14a58.25,58.25,0,0,1-2.41-11.57c-1.54-15.35,3.17-30.48,12-43a96.42,96.42,0,0,1,9.27-11.25C269,217.29,272,212,276,207.48c1.3-1.48,4.06-4.83,2.94-7s-4.21.39-5.11,1.42c-3.78,4.29-6.83,9.17-10.54,13.47-3.42,4-7,7.69-10.19,11.9A95.48,95.48,0,0,0,239.43,252c-5.87,16.38-6,34.1.85,50.21,1.08,2.52,2.24,4.27,2.09,7.05a47.27,47.27,0,0,0,.32,8.38,69.86,69.86,0,0,0,4.89,17.92c1.43,3.46,9.48-5,8-8.43Z"/><path class="cls-1" d="M326.18,397.07a85.83,85.83,0,0,1-7.34-5.15c-2.27-1.78-4.26-4-6.85-5.24a93.55,93.55,0,0,1-12.24-7.29,140.67,140.67,0,0,1-25.2-22.76c-2.11-2.4-9.87,6.55-7.18,9.62A140.67,140.67,0,0,0,292.57,389a93.56,93.56,0,0,0,12.24,7.29c2.59,1.27,4.58,3.46,6.85,5.24a85.83,85.83,0,0,0,7.34,5.15c3.26,2.05,10.19-7.72,7.18-9.62Z"/><path class="cls-1" d="M481.81,351A44.75,44.75,0,0,1,472.73,363c-2.68,2.6-5.41,4.59-6.93,8.16-1,2.46-2,4.94-3.27,7.31-4,7.56-9.62,13.76-17.23,17.84s-16,5.68-24.44,6.06a29,29,0,0,0-3.61.14,13.92,13.92,0,0,0-3.52,1.57,60.85,60.85,0,0,1-7.4,3.08,57,57,0,0,1-14.16,3,58.43,58.43,0,0,1-15.64-1,63.35,63.35,0,0,1-7.69-2,9.78,9.78,0,0,0-4.51-.65c-1.73.14-3.45.19-5.18.2-2.55,0-4.75,2.8-5.89,4.81-.52.92-2.42,5.32.1,5.3,2.91,0,6.14-.76,8.89.18a65.5,65.5,0,0,0,6.87,2,58.91,58.91,0,0,0,14.78,1.44,68.45,68.45,0,0,0,29.85-8.38l-1.86.54c12.2-.19,24.52-2.6,34.88-9.34,12.58-8.18,21.15-20.85,26.49-34.68l-3.62,4.85c7.24-6.25,13.83-13.38,18.15-22,.68-1.36,2.34-4.73-.1-5.3-2.18-.52-5.13,3.29-5.89,4.81Z"/><path class="cls-1" d="M345.65,184.56c11.06-2.75,22.61-2.42,33.17,2.09,10,4.26,18.53,11.3,26.17,18.9,1,1,1.94,2.42,3.27,2.87a14.48,14.48,0,0,0,2.51.18,31.38,31.38,0,0,1,5.8,1.32,51.75,51.75,0,0,1,11.64,5.73,85.81,85.81,0,0,1,20.37,18.18,51.91,51.91,0,0,1,7.3,11.48c1.23,2.76,2.28,6.56,1.84,8.64-.15.72-.29,2,.44,2.52,8.57,6.18,15.95,13.6,19.86,23.58,1.35,3.44,9.42-4.93,8-8.43-4.06-10.37-11.82-18.34-20.73-24.77l.44,2.52c1.54-7.29-2.33-14.51-6.36-20.31a86.18,86.18,0,0,0-19.88-20.21,65.46,65.46,0,0,0-12.29-7.22,48.67,48.67,0,0,0-5.76-2.12c-2.06-.61-4.3-.59-6.32-1.18s-4.29-3.72-5.92-5.26c-2.24-2.11-4.56-4.15-7-6.07a73.75,73.75,0,0,0-14.06-9c-12.23-5.85-25.43-6.62-38.51-3.37-2.58.64-4.74,3.69-5.67,6-.63,1.57-1,4.54,1.61,3.89Z"/><path class="cls-1" d="M366.61,371.22c3,2.21,10.17-7.38,7.18-9.62s-10.17,7.38-7.18,9.62Z"/><path class="cls-1" d="M293.64,268.74c1.3-8.64,5-16.89,10.88-22.32a44.51,44.51,0,0,1,18.24-9.67c15.94-4.45,33.54-2,48.78,3.88a110.52,110.52,0,0,1,45.72,33.56c10.29,12.84,18,29,18.64,45.6.31,7.58-.91,15.66-4.33,22.24-4.6,8.83-13.52,15-23.44,18.22-2.59.83-4.69,3.57-5.67,6-.57,1.42-1,4.73,1.61,3.89,20.19-6.49,36-23.82,39.41-44.95,2.9-18-2.73-36.38-12.48-51.54-20.85-32.43-63.57-57.1-102.77-47.19a57.57,57.57,0,0,0-42.65,46.82c-.34,2.28.84,3.35,3,2.23a10.86,10.86,0,0,0,5.08-6.8Z"/><path class="cls-1" d="M373.1,361.35c-31.84-6.51-61-29.45-74-59.38-1.5-3.47-9.53,5-8,8.43,13.4,30.93,43.37,54.33,76.24,61.05,3.52.72,9.74-9.31,5.8-10.11Z"/><path class="cls-1" d="M278,352c-5.42,5.63-13.65,10.16-21.69,8.34-7.37-1.67-10.06-9.3-8.58-16.08,1.74-8,7.88-14.56,15.18-18,6.21-2.89,15.13-3.54,19.48,2.83,5,7.25.91,17.1-4.39,22.88-1.32,1.44-4,4.86-2.94,7s4.19-.41,5.11-1.42c7.73-8.43,15.19-21.08,12-33-2.78-10.37-14.15-12.18-23.07-9.08C257,319.74,247,330.34,241.9,342c-3.67,8.48-5.22,21.75,4.53,26.93,11.7,6.21,25.86-3.13,33.77-11.35,1.35-1.4,4-4.89,2.94-7S279,351,278,352Z"/><path class="cls-1" d="M324.05,390.32c-5.23,9.22-9.73,23.12-3.37,33,5.92,9.15,17.41,7.39,25.4,2.11,10.67-7,18.92-19.3,21-32,1.5-9.34-.68-21.35-11.47-23.67-13.25-2.85-25.52,10.58-31.52,20.58-.79,1.32-2.27,4.74.1,5.3s5-3.32,5.89-4.81c3.71-6.18,10.45-11.87,18.1-11.2s11.2,8.25,11.08,15.26a27.55,27.55,0,0,1-10.73,21.24c-5.56,4.1-13.64,5.5-18.77,0-6.25-6.75-3.73-18.13.32-25.26.76-1.33,2.29-4.74-.1-5.3S324.9,388.82,324.05,390.32Z"/><path class="cls-1" d="M299.44,299c-4.69,6-14.58,5.57-20.24,1.34s-9-13.67-4.46-19.78,14.7-5.48,20.24-1.34,8.9,13.57,4.46,19.78c-.9,1.26-3.34,5-1.47,6.39s4.89-2.09,5.7-3.23c5.5-7.7,8.57-18.36,3.36-27.05A19.2,19.2,0,0,0,284.38,267c-9.75,3.2-17.7,12.81-19.49,22.86-1.56,8.77,2,18.37,10.56,22.1,10.7,4.66,21.59-1.25,28.23-9.78.95-1.22,3.31-5,1.47-6.39S300.31,297.87,299.44,299Z"/><path class="cls-1" d="M400.39,379.43c-4.69,6-14.58,5.57-20.24,1.34s-9-13.67-4.46-19.78,14.7-5.48,20.24-1.34,8.9,13.57,4.46,19.78c-.9,1.26-3.34,5-1.47,6.39s4.89-2.09,5.7-3.23c5.5-7.7,8.57-18.36,3.36-27.05a19.2,19.2,0,0,0-22.65-8.12c-9.75,3.2-17.7,12.81-19.49,22.86-1.56,8.77,2,18.37,10.56,22.1,10.7,4.66,21.59-1.25,28.23-9.78.95-1.22,3.31-5,1.47-6.39S401.25,378.33,400.39,379.43Z"/><ellipse class="cls-1" cx="345.19" cy="272.29" rx="16.03" ry="9.54" transform="translate(-89.61 337.48) rotate(-46.79)"/><ellipse class="cls-1" cx="392.76" cy="307.81" rx="16.03" ry="9.54" transform="translate(-71.1 491.77) rotate(-59.72)"/><path class="cls-1" d="M356.32,194.18c-.69-9.89-3.55-19.36-10-27-5.18-6.16-12.19-10.26-19.74-12.84-7.91-2.7-16.56-4-24.76-1.87-9,2.38-16.47,8.52-22.24,15.64-10,12.4-14.41,29.15-7.33,44.14,6.87,14.53,24.22,23.43,39.67,17.5,10.58-4.06,19.5-12.64,25.63-22.05.73-1.13,2.41-6.33-1-5.19a63.5,63.5,0,0,1-18.88,3.73c-6.12.1-15-2.29-17.38-8.73a6,6,0,0,1,1.76-6.56c-.71.69,1.17-.84.41-.35a3,3,0,0,1,1.06-.52,5.08,5.08,0,0,1,3,0c4.57,1.35,7.58,6.78,9.59,10.7a66.49,66.49,0,0,1,4.52,11c.73,2.41,4.34-.62,5.11-1.42,1.56-1.62,3.68-4.59,2.94-7a65.84,65.84,0,0,0-4.86-11.68c-2.62-4.91-6.75-11.63-13-12-3.83-.2-7.29,2.18-10,4.67-4.09,3.81-7.8,9-9,14.54-1.92,9.14,5.89,14.75,13.81,16.73,8.52,2.13,18.66-.55,26.8-3.29l-1-5.19c1.79-2.76.17-.31-.31.33s-.78,1-1.16,1.49c-1,1.25.56-.57-.12.15-.37.39-.71.81-1.07,1.21-.65.72-1.33,1.41-2,2.1-.24.24-1.28,1.22-.51.52q-.75.69-1.53,1.35a31.35,31.35,0,0,1-5.93,4.1c-12.18,6.63-26.77,1.65-35.09-8.88a32.61,32.61,0,0,1-6.7-19.28,31.91,31.91,0,0,1,.91-8.57,18.52,18.52,0,0,1,3.07-6.78c3.29-5.11,8.26-9.75,14.36-11.89,7.19-2.52,14.78-1.64,22,.35a44,44,0,0,1,19.88,11.38c6.83,7,10,16.49,10.66,26.12.18,2.62,2.83,1.51,4.18.44,1.86-1.48,4.33-4.55,4.15-7.14Z"/><path class="cls-1" d="M454.63,283.24c8-3,16.51-4.26,25-2.25a40.21,40.21,0,0,1,18,10.16c4.94,4.65,9.42,10.44,11.82,16.83a29.13,29.13,0,0,1-1,22.22,37.13,37.13,0,0,1-2.23,4.17c-.38.63-.63,1-1,1.56s-.59.83-.89,1.24c-.09.13-1,1.22-.45.59s-.78.81-.94,1c-.59.59.1,0-.79.72a25.25,25.25,0,0,1-3,2.24,32.81,32.81,0,0,1-18.31,4.94c-13.74-.49-27.78-10.81-28.83-25.17a32.38,32.38,0,0,1,.62-9,36.92,36.92,0,0,1,2.14-7.13c.43-1.08.9-2.15,1.39-3.21s.25-.51.12-.25c.21-.39.4-.78.61-1.17.38-.7.76-1.4,1.19-2.07l-7,4a88.38,88.38,0,0,0,5.69,20.48c3,6.75,10.15,14.13,18.25,12.62,5.6-1,9.87-6.06,12.66-10.69,2.27-3.77,4.43-8.54,3.88-13.06-.84-7-8.39-9.06-14.32-9.76a65.38,65.38,0,0,0-16.16.28c-3.35.44-9.07,10.56-4.06,9.9-.28,0-.82.08.15,0,.79-.07,1.57-.15,2.36-.21a73.11,73.11,0,0,1,7.37-.17c4.81.14,11.41.46,14.95,4.25,3,3.17,1.27,9.28-3,9.56-6.74.46-12.2-6.61-14.45-12.1A93,93,0,0,1,459,294.2c-.62-3.62-6.62,3.35-7,4a54.82,54.82,0,0,0-8.46,26.28c-.68,16.33,12,29.64,27.9,32,16.23,2.38,31.43-7,39.94-20.25,4.88-7.62,8.38-16.66,8.15-25.82-.22-8.86-4.21-16.46-9.65-23.24a46.15,46.15,0,0,0-20.29-15c-10.13-3.61-20.91-2.51-30.85,1.2a10.69,10.69,0,0,0-5.67,6c-.53,1.32-1,4.87,1.61,3.89Z"/><path class="cls-1" d="M351.78,190c-6.88,6-17.78,6.8-26.5,6.32-3.73-.21-9.45,9.91-5.8,10.11,11.13.62,23.66-1.31,32.33-8.85,1.84-1.6,4.42-4.48,4.15-7.14s-2.8-1.64-4.18-.44Z"/><path class="cls-1" d="M459.25,276.24c-5.53,11-4.79,25.87,3.44,35.52,2,2.4,9.84-6.5,7.18-9.62-2.79-3.27-4.35-7.7-5.25-11.85s-1.35-9.64.62-13.57c.68-1.36,2.34-4.73-.1-5.3-2.18-.51-5.13,3.29-5.89,4.81Z"/><path class="cls-1" d="M776.74,1466.83a67.74,67.74,0,0,1-14.44-3.56,47.29,47.29,0,0,1-6.45-3.06c-1.93-1.09-4.06-3.28-6.22-3.64-4-.66-8-.77-11.94-1.71a58.25,58.25,0,0,1-11.18-3.84c-14-6.51-24.59-18.28-30.88-32.26a96.42,96.42,0,0,1-4.94-13.72c-1.61-5.79-4.59-11.11-6.45-16.84-.61-1.87-2.08-6-4.53-6.11s-1.81,3.82-1.39,5.12c1.76,5.44,4.4,10.55,6.2,15.94,1.66,5,3,10,5,14.83a95.48,95.48,0,0,0,14.34,24.42c11.08,13.41,26.23,22.6,43.61,24.9,2.71.36,4.81.26,7.13,1.8a47.27,47.27,0,0,0,7.37,4,69.86,69.86,0,0,0,17.91,4.95c3.7.54.57-10.68-3.14-11.22Z"/><path class="cls-1" d="M872.87,1441.85a85.83,85.83,0,0,1-8.17,3.68c-2.69,1-5.6,1.64-8,3.22a93.55,93.55,0,0,1-12.52,6.8,140.67,140.67,0,0,1-32.44,10c-3.14.59.59,11.83,4.6,11.08a140.67,140.67,0,0,0,32.44-10,93.56,93.56,0,0,0,12.52-6.8c2.41-1.58,5.31-2.18,8-3.22a85.83,85.83,0,0,0,8.17-3.68c3.43-1.76-1.43-12.71-4.6-11.08Z"/><path class="cls-1" d="M912.68,1284.5a44.75,44.75,0,0,1,5.75,14c.87,3.64,1.18,7,3.48,10.12,1.58,2.16,3.23,4.25,4.61,6.54,4.44,7.34,6.92,15.3,6.54,23.92-.38,8.46-3.31,16.69-7.26,24.11a29,29,0,0,0-1.72,3.17,13.92,13.92,0,0,0-.45,3.83,60.85,60.85,0,0,1-1.13,7.93,57,57,0,0,1-4.64,13.71,58.43,58.43,0,0,1-8.81,13,63.35,63.35,0,0,1-5.68,5.58,9.78,9.78,0,0,0-2.86,3.54c-.76,1.55-1.6,3.06-2.48,4.56-1.29,2.2,0,5.51,1.13,7.52.52.92,3.34,4.79,4.61,2.62,1.47-2.51,2.48-5.67,4.69-7.55a65.5,65.5,0,0,0,5.19-4.91,58.91,58.91,0,0,0,8.78-12,68.45,68.45,0,0,0,8-29.95l-.48,1.87c6.06-10.59,10.28-22.41,9.78-34.76-.61-15-7.13-28.83-16.3-40.48l2.32,5.59c-1.68-9.41-4.44-18.72-9.64-26.83-.82-1.28-2.87-4.42-4.61-2.62-1.56,1.61.21,6.09,1.13,7.52Z"/><path class="cls-1" d="M700.08,1316.62c3.28-10.91,9.46-20.68,18.73-27.46,8.77-6.41,19.18-10.17,29.61-12.85,1.33-.34,3.07-.43,4.14-1.34a14.48,14.48,0,0,0,1.44-2.06,31.38,31.38,0,0,1,4.1-4.32A51.75,51.75,0,0,1,769,1261.5a85.81,85.81,0,0,1,26-8.23,51.91,51.91,0,0,1,13.59-.42c3,.35,6.81,1.39,8.37,2.83.54.5,1.56,1.27,2.4.91,9.69-4.21,19.84-6.77,30.42-5,3.64.6.57-10.62-3.14-11.22-11-1.8-21.8.8-31.88,5.18l2.4.91c-5.48-5-13.67-5.41-20.71-4.9a86.18,86.18,0,0,0-27.53,6.77,65.46,65.46,0,0,0-12.48,6.89,48.67,48.67,0,0,0-4.76,3.88c-1.57,1.46-2.71,3.4-4.24,4.83s-5.39,1.79-7.54,2.4c-3,.85-5.9,1.8-8.78,2.89a73.75,73.75,0,0,0-14.91,7.5c-11.27,7.53-18.68,18.49-22.56,31.39-.77,2.54.76,6,2.27,7.94,1,1.34,3.38,3.19,4.16.6Z"/><path class="cls-1" d="M871.28,1393.89c3.42-1.42-1.15-12.52-4.6-11.08s1.15,12.52,4.6,11.08Z"/><path class="cls-1" d="M745.91,1404.31c-6.77-5.53-12-12.89-13.64-20.74a44.51,44.51,0,0,1,1-20.62c4.32-16,15.36-29.88,28.24-40a110.52,110.52,0,0,1,52.2-22.18c16.29-2.3,34.07-.67,48.72,7.25,6.68,3.61,13,8.78,16.91,15.08,5.25,8.46,6,19.3,3.7,29.46-.61,2.65.68,5.85,2.27,7.94.93,1.22,3.55,3.3,4.16.6,4.72-20.68-2.09-43.13-18.53-56.83-14-11.71-32.68-16.22-50.69-15.58-38.53,1.38-81.55,25.52-93,64.27a57.57,57.57,0,0,0,18.49,60.58c1.79,1.46,3.31,1,3.45-1.43a10.86,10.86,0,0,0-3.26-7.84Z"/><path class="cls-1" d="M866.11,1383.27c-21.86,24.05-56.48,37.44-88.83,33.31-3.76-.48-.56,10.75,3.14,11.22,33.44,4.27,68.85-9.55,91.42-34.39,2.42-2.66-3-13.13-5.74-10.15Z"/><path class="cls-1" d="M809.51,1460.24c2.08,7.54,1.77,16.92-3.9,22.91-5.2,5.48-13.13,3.9-18.21-.83-6-5.57-8.5-14.21-7.69-22.22.68-6.81,4.68-14.82,12.38-15.31,8.76-.56,15.17,7.95,17.43,15.46.57,1.87,2.11,6,4.53,6.11s1.78-3.81,1.39-5.12c-3.3-10.94-10.37-23.82-22.23-27.15-10.34-2.9-17.7,6-19.59,15.2-2.58,12.61,1.43,26.64,8.87,36.93,5.41,7.49,16,15.59,25.47,9.85,11.32-6.89,10.51-23.84,7.48-34.83-.52-1.88-2.14-6-4.53-6.11S809.15,1458.93,809.51,1460.24Z"/><path class="cls-1" d="M866,1440.23c5.25,9.21,14.91,20.17,26.62,19.72,10.89-.42,15.24-11.19,14.79-20.76-.61-12.77-6.94-26.12-16.8-34.35-7.26-6.06-18.7-10.32-26.21-2.22-9.21,9.94-3.93,27.34,1.61,37.61.73,1.35,2.92,4.37,4.61,2.62s-.31-6-1.13-7.52c-3.42-6.35-4.88-15-.39-21.28s12.81-5.42,18.77-1.73a27.55,27.55,0,0,1,12.78,20.07c.68,6.87-2.23,14.54-9.61,16.12-9,1.93-17.49-6-21.56-13.17-.76-1.33-2.91-4.39-4.61-2.62S865.12,1438.74,866,1440.23Z"/><path class="cls-1" d="M774.87,1414.76c2.78,7.11-2.65,15.38-9.18,18.09s-16.37.78-19.29-6.26,2.79-15.44,9.18-18.09,16.22-.73,19.29,6.26c.62,1.41,2.58,5.42,4.74,4.53s.7-5.27.14-6.55c-3.81-8.66-11.41-16.74-21.55-16.7a19.2,19.2,0,0,0-18.55,15.33c-2.22,10,2,21.76,9.7,28.43,6.75,5.82,16.82,7.66,24.39,2.2,9.46-6.82,9.94-19.2,6-29.27-.56-1.44-2.62-5.41-4.74-4.53S774.36,1413.46,774.87,1414.76Z"/><path class="cls-1" d="M895.59,1369c2.78,7.11-2.65,15.38-9.18,18.09s-16.37.78-19.29-6.26,2.79-15.44,9.18-18.09,16.22-.73,19.29,6.26c.62,1.41,2.58,5.42,4.74,4.53s.7-5.27.14-6.55c-3.81-8.66-11.41-16.74-21.55-16.7a19.2,19.2,0,0,0-18.55,15.33c-2.22,10,2,21.76,9.7,28.43,6.75,5.82,16.82,7.66,24.39,2.2,9.46-6.82,9.94-19.2,6-29.27-.56-1.44-2.62-5.41-4.74-4.53S895.08,1367.73,895.59,1369Z"/><ellipse class="cls-1" cx="775.28" cy="1361.81" rx="9.54" ry="16.03" transform="translate(-347.16 268.33) rotate(-16.1)"/><ellipse class="cls-1" cx="830.11" cy="1339.03" rx="9.54" ry="16.03" transform="translate(-545.37 570.82) rotate(-29.02)"/><path class="cls-1" d="M713.8,1312.36c-8.86-4.46-18.46-6.83-28.36-5.19-7.94,1.31-15,5.24-21.12,10.42-6.36,5.42-11.92,12.18-14.25,20.34-2.55,9-1.08,18.52,2.1,27.11,5.54,15,17.71,27.27,34.21,28.83,16,1.52,32.51-8.86,35.3-25.17,1.91-11.17-.91-23.22-5.88-33.29-.6-1.21-4.21-5.31-5-1.82a63.5,63.5,0,0,1-6.43,18.14c-3,5.32-9.62,11.72-16.38,10.49a6,6,0,0,1-4.74-4.87c.23,1-.12-1.43-.09-.53a3,3,0,0,1,.1-1.17,5.08,5.08,0,0,1,1.55-2.57c3.49-3.24,9.7-3.05,14.1-2.79a66.49,66.49,0,0,1,11.79,1.74c2.44.6,1.69-4,1.39-5.12-.6-2.17-2.07-5.5-4.53-6.11a65.84,65.84,0,0,0-12.53-1.78c-5.56-.26-13.45-.14-16.92,5.09-2.12,3.19-1.85,7.39-1.07,11,1.19,5.46,3.75,11.3,7.93,15.14,6.88,6.32,15.69,2.46,21.43-3.34,6.18-6.24,9.05-16.32,10.85-24.73l-5-1.82c-1.45-2.95-.18-.31.13.43.24.58.46,1.18.69,1.76.58,1.47-.21-.77.07.18.15.52.34,1,.49,1.54.28.93.54,1.86.78,2.8.08.32.4,1.72.18.71.14.67.26,1.34.37,2a31.35,31.35,0,0,1,.5,7.19c-.52,13.85-12.24,23.86-25.55,25.64a32.61,32.61,0,0,1-20-4.08,31.91,31.91,0,0,1-6.91-5.16,18.52,18.52,0,0,1-4.26-6.1c-2.72-5.44-4.17-12.08-2.89-18.42,1.51-7.47,6.14-13.55,11.53-18.73a44,44,0,0,1,19.94-11.28c9.53-2.29,19.28-.17,27.9,4.16,2.35,1.18,2.74-1.66,2.51-3.37-.32-2.36-1.7-6-4-7.22Z"/><path class="cls-1" d="M840.57,1273.29c1.52-8.45,4.76-16.37,10.81-22.6a40.21,40.21,0,0,1,17.9-10.25c6.52-1.87,13.79-2.77,20.51-1.57A29.13,29.13,0,0,1,908.4,1251a37.13,37.13,0,0,1,2.45,4c.35.65.54,1,.82,1.67.21.46.41.93.61,1.4.06.15.54,1.47.28.69a12.48,12.48,0,0,0,.35,1.3,3.88,3.88,0,0,1,.21,1.05,25.25,25.25,0,0,1,.37,3.76,32.81,32.81,0,0,1-5.1,18.27c-7.44,11.56-23.48,18.37-36.36,11.94a32.38,32.38,0,0,1-7.4-5.12,36.92,36.92,0,0,1-5-5.48c-.71-.92-1.39-1.87-2.05-2.83s-.31-.48-.16-.23c-.23-.38-.47-.74-.69-1.12-.41-.68-.81-1.37-1.17-2.08l-.17,8.06a88.38,88.38,0,0,0,20.52,5.56c7.32.9,17.33-1.51,20.17-9.25,2-5.35-.18-11.58-2.73-16.34-2.08-3.88-5.09-8.17-9.25-10-6.41-2.83-12.07,2.59-15.71,7.33a65.38,65.38,0,0,0-8,14c-1.33,3.11,4.45,13.19,6.44,8.55-.11.26-.35.74.07-.13.34-.71.67-1.43,1-2.13a73.11,73.11,0,0,1,3.61-6.42c2.58-4.07,6.22-9.58,11.29-10.68,4.23-.92,8.62,3.64,6.71,7.43-3,6-11.91,7.11-17.78,6.25a93,93,0,0,1-19.5-5.42c-3.43-1.31-.5,7.41-.17,8.06a54.82,54.82,0,0,0,18.28,20.69c13.69,8.93,31.6,4.84,41.74-7.66,10.33-12.74,10.05-30.58,3-44.68-4.06-8.09-10-15.71-18-20.19-7.73-4.34-16.3-4.79-24.91-3.57a46.15,46.15,0,0,0-23.23,9.81c-8.28,6.87-12.83,16.7-14.71,27.14a10.69,10.69,0,0,0,2.27,7.94c.86,1.13,3.66,3.37,4.16.6Z"/><path class="cls-1" d="M707.86,1314.11c1.63,9-3.23,18.76-8.1,26-2.08,3.1,3.7,13.18,5.74,10.15,6.21-9.26,11-21,8.9-32.31-.44-2.39-1.6-6.09-4-7.22s-2.84,1.57-2.51,3.37Z"/><path class="cls-1" d="M836.9,1265.74c6.66,10.39,19.8,17.33,32.3,15.18,3.11-.53-.56-11.78-4.6-11.08-4.24.73-8.84-.19-12.87-1.53s-9-3.76-11.35-7.46c-.82-1.28-2.87-4.43-4.61-2.62-1.56,1.61.21,6.09,1.13,7.52Z"/><path class="cls-1" d="M462.28,745.21a3.37,3.37,0,0,1-.38-1.23c.24,1.05,0-1.4,0-.21,0,.36-.14,1.12.07-.48-.11.87-.28,1.72-.44,2.58-.22,1.1,0,.1,0-.11-.16.69-.34,1.38-.52,2.07-1.19,4.5-2.65,8.93-4,13.39a94.22,94.22,0,0,0-3.18,12.49c-.53,3.37-1.3,8.72,1.73,11.21,3.78,3.11,10.48,1.3,15,1.61.19,0,.47.2.67.21l.34.27a4.27,4.27,0,0,1-.93-3.81,4.77,4.77,0,0,1,.38-2.26c-.13.43-.49,1.15.19-.45-.2.46-.39.93-.6,1.38s-1.14,2.21-.59,1.2a161.93,161.93,0,0,1-14.33,21.09c-2.3,3-4.67,5.9-7.23,8.66-1,1.07-2,2.13-3.11,3.1a14.48,14.48,0,0,1-1.4,1.14c.77-.53-.44.14-.58.26-.35.3,0-.13.14.08.42.65-.33-1,.38.36,0,0,.4,3,.42,2.25,0,2.05,0,.57,0,.21,0,.23-.44,1.34-.06.35.17-.43.27-.89.41-1.33s.21-.63.33-.95q-.3.82.06-.13c1.58-4.09,3.45-8.06,5.16-12.09s3.58-8.33,3.78-12.78c.22-5-2.32-6.85-6.69-8.44-3.9-1.42-8.27-2.2-11.84-4.38-.23-.14-.65-.67-.89-.73,1.31.32.41,4.38,0,5.78.29-1-.75,1.41-.09.26.28-.48.49-1,.74-1.51.12-.23.44-.8-.13.23l.75-1.32a265.76,265.76,0,0,1,15.93-23.65c2.38-3.24,5.48-7.37,7.64-9.95a44.1,44.1,0,0,1,3-3.35,9,9,0,0,0,1-.89c.27-.37-.4.08-.24.16.46.24-.81-.24-.93-.3,3.77,1.95,6.39-9.59,3.33-11.17-2.09-1.08-4,1.45-5.28,2.86-2.71,3-5.19,6.24-7.64,9.46-5.87,7.75-11.52,15.73-16.7,24-3.25,5.17-11.07,16.77-3.44,21.55,4.17,2.61,9.3,3.4,13.83,5.19.73.29,1.47.85,2.2,1.09s.15.43.34.17a32.44,32.44,0,0,0-.33-3.65c0,.22.44-1.35,0-.21-.13.39-.24.79-.37,1.19-.32,1,0,.08-.14.41q-.33.86-.68,1.71c-1.87,4.57-4,9-5.81,13.64s-3.87,10-2.52,14.89c2.18,7.95,11.37-4,13.38-6.37,3.82-4.52,34.17-41.18,20.35-45.18-2.61-.76-5.61-.08-8.27,0a14.54,14.54,0,0,1-4.11-.33,7.87,7.87,0,0,1-1.52-.66c-.69-.34-.2-.21-.11.15s.32,1.58.19.67c0-.24,0,1.29,0,.17,0-.25-.23,1.26,0,.06.1-.5.17-1,.27-1.52s.31-1.38.06-.35c.12-.51.25-1,.39-1.54.31-1.2.65-2.38,1-3.57,1.42-4.89,3-9.73,4.4-14.64,1.26-4.54,2.68-9.5,2.28-14.26-.14-1.66-.47-3.72-1.82-4.88C462.77,731.61,459.43,742.77,462.28,745.21Z"/><path class="cls-1" d="M456.64,1795.39a3.37,3.37,0,0,1,1.24-.37c-1.05.24,1.4,0,.21,0-.36,0-1.12-.14.48.08-.87-.12-1.72-.28-2.58-.46-1.1-.22-.1,0,.11,0-.69-.16-1.38-.35-2.06-.53-4.5-1.21-8.92-2.69-13.37-4.06a94.22,94.22,0,0,0-12.48-3.23c-3.36-.55-8.71-1.34-11.22,1.68-3.13,3.76-1.35,10.48-1.68,15,0,.19-.2.46-.21.67l-.28.34a4.27,4.27,0,0,1,3.81-.91,4.77,4.77,0,0,1,2.26.39c-.43-.13-1.15-.5.45.2-.46-.2-.93-.39-1.38-.61s-2.2-1.15-1.2-.59a161.93,161.93,0,0,1-21-14.42c-3-2.31-5.88-4.7-8.63-7.27-1.07-1-2.12-2-3.09-3.13a14.48,14.48,0,0,1-1.13-1.4c.52.78-.14-.44-.25-.58-.3-.35.13,0-.09.14-.65.41,1-.33-.36.38,0,0-3.05.39-2.25.41-2.05-.05-.57,0-.21,0-.23,0-1.34-.45-.35-.06.42.17.89.28,1.33.42l.95.33q-.82-.31.13.06c4.08,1.6,8,3.49,12.07,5.22s8.32,3.62,12.77,3.84c5,.25,6.86-2.29,8.47-6.65,1.44-3.89,2.23-8.26,4.43-11.82.14-.22.67-.65.73-.88-.32,1.31-4.38.39-5.78,0,1,.29-1.41-.76-.26-.09.48.28,1,.5,1.51.75.23.12.8.45-.23-.13l1.32.76a265.76,265.76,0,0,1,23.57,16c3.23,2.39,7.34,5.52,9.91,7.68a44.1,44.1,0,0,1,3.33,3,9,9,0,0,0,.89,1c.37.27-.07-.4-.16-.24-.24.46.24-.81.3-.93-2,3.76,9.56,6.44,11.16,3.38,1.09-2.09-1.43-4-2.84-5.29-3-2.73-6.22-5.22-9.43-7.68-7.72-5.91-15.67-11.59-23.88-16.8-5.16-3.28-16.72-11.15-21.54-3.54-2.63,4.16-3.44,9.29-5.26,13.8-.29.73-.86,1.47-1.1,2.19s-.43.14-.17.34a32.44,32.44,0,0,0,3.66-.32c-.22,0,1.35.44.21,0-.39-.13-.79-.25-1.18-.38-1-.33-.08,0-.41-.14l-1.7-.69c-4.57-1.89-9-4.07-13.62-5.88s-10-3.91-14.88-2.59c-8,2.15,3.94,11.38,6.31,13.41,4.5,3.84,41,34.35,45.09,20.55.77-2.6.11-5.61.07-8.27a14.54,14.54,0,0,1,.35-4.11,7.87,7.87,0,0,1,.67-1.52c.35-.69.21-.2-.15-.11s-1.58.31-.67.18c.24,0-1.29,0-.17,0,.25,0-1.26-.24-.06,0l1.51.28c.49.1,1.38.31.35.06l1.53.39c1.19.32,2.38.66,3.57,1,4.89,1.45,9.72,3.08,14.62,4.47,4.53,1.28,9.49,2.73,14.25,2.34,1.66-.13,3.72-.46,4.88-1.8C470.24,1795.94,459.09,1792.55,456.64,1795.39Z"/><path class="cls-1" d="M1856.49,1789.15a3.37,3.37,0,0,1-.3-1.26c.17,1.06.09-1.4,0-.21,0,.36-.21,1.11.1-.48-.17.86-.39,1.7-.61,2.54-.29,1.09,0,.1,0-.11-.21.68-.43,1.35-.66,2-1.48,4.42-3.22,8.74-4.86,13.1a94.22,94.22,0,0,0-4,12.26c-.75,3.32-1.86,8.61,1,11.3,3.57,3.35,10.38,2,14.83,2.58.19,0,.45.23.66.25l.32.29a4.27,4.27,0,0,1-.68-3.86,4.77,4.77,0,0,1,.53-2.23c-.16.42-.57,1.12.22-.44-.23.45-.45.9-.69,1.34s-1.28,2.13-.67,1.16a161.93,161.93,0,0,1-15.67,20.11c-2.49,2.82-5,5.59-7.78,8.17-1.06,1-2.15,2-3.31,2.9a14.48,14.48,0,0,1-1.47,1c.81-.48-.45.11-.59.22-.36.28,0-.13.13.09.37.68-.27-1,.35.38,0,0,.2,3.07.27,2.27-.18,2,0,.57,0,.21,0,.23-.53,1.31-.08.35.19-.41.33-.88.5-1.3l.39-.92q-.36.8.06-.13c1.84-4,4-7.81,5.94-11.73s4.12-8.08,4.6-12.51c.55-5-1.87-7-6.13-8.85-3.8-1.67-8.11-2.73-11.53-5.14-.22-.15-.61-.71-.84-.78,1.29.4.13,4.39-.36,5.77.35-1-.84,1.36-.11.25.31-.46.56-1,.84-1.46.13-.22.5-.77-.14.22l.83-1.27a265.76,265.76,0,0,1,17.43-22.56c2.59-3.08,6-7,8.27-9.43a44.1,44.1,0,0,1,3.2-3.15,9,9,0,0,0,1-.83c.29-.35-.4.05-.25.14.45.26-.79-.29-.91-.36,3.63,2.19,7-9.15,4-10.93-2-1.22-4.08,1.18-5.45,2.52-2.9,2.83-5.59,5.89-8.24,8.95-6.37,7.35-12.51,14.94-18.22,22.82-3.58,4.95-12.14,16-4.84,21.28,4,2.88,9.06,4,13.46,6.08.71.34,1.41.94,2.12,1.23s.12.44.33.19a32.44,32.44,0,0,0-.1-3.67c-.05.22.52-1.32.06-.2-.16.38-.3.78-.45,1.16-.39,1,0,.08-.17.4q-.39.83-.79,1.66c-2.17,4.44-4.61,8.75-6.69,13.24s-4.51,9.74-3.49,14.69c1.66,8.07,11.6-3.25,13.76-5.49,4.1-4.26,36.77-38.87,23.24-43.76-2.55-.92-5.6-.45-8.25-.57a14.54,14.54,0,0,1-4.08-.59,7.87,7.87,0,0,1-1.48-.76c-.67-.39-.19-.22-.12.15s.21,1.6.14.68c0-.24-.07,1.29,0,.17,0-.25-.32,1.24,0,.06.13-.5.24-1,.37-1.49s.4-1.35.09-.35c.16-.5.32-1,.48-1.51.39-1.17.8-2.34,1.22-3.5,1.74-4.79,3.66-9.51,5.34-14.32,1.55-4.45,3.3-9.31,3.2-14.09,0-1.66-.23-3.74-1.5-5C1857.86,1775.61,1853.8,1786.53,1856.49,1789.15Z"/><path class="cls-1" d="M1256.24,243.72c-.16-.09-.3-.49-.58-1.15.41,1-.23-1.38,0-.2.06.35.05,1.13,0-.49,0,.87,0,1.74,0,2.62,0,1.12,0,.1,0-.11,0,.71-.1,1.42-.17,2.12-.42,4.64-1.11,9.25-1.69,13.87a94.22,94.22,0,0,0-1,12.85c0,3.41.18,8.81,3.59,10.76,4.25,2.44,10.55-.47,15-.93.19,0,.49.12.7.09l.38.21a4.27,4.27,0,0,1-1.56-3.6,4.77,4.77,0,0,1,0-2.3c-.05.45-.29,1.22.12-.48-.12.49-.22,1-.36,1.47s-.75,2.37-.38,1.29a161.93,161.93,0,0,1-10.58,23.19c-1.77,3.32-3.62,6.6-5.68,9.75-.8,1.22-1.63,2.44-2.55,3.58a14.48,14.48,0,0,1-1.19,1.36c.67-.65-.41.21-.52.35-.29.36,0-.13.15.06.52.57-.5-1,.43.29,0,0,.91,2.94.79,2.15.3,2,.14.56.07.2,0,.22-.21,1.4,0,.36.09-.45.12-.93.18-1.38s.11-.66.16-1q-.16.86,0-.14c.87-4.3,2.05-8.52,3.06-12.78s2.13-8.82,1.58-13.24c-.63-5-3.44-6.36-8-7.19-4.08-.74-8.53-.78-12.41-2.33-.24-.1-.76-.55-1-.57,1.35.09,1.14,4.25,1,5.69.11-1-.51,1.52,0,.27.19-.52.31-1.09.47-1.62.08-.25.3-.86-.09.25q.25-.72.52-1.43a265.76,265.76,0,0,1,11.74-26c1.8-3.6,4.17-8.18,5.86-11.09a44.1,44.1,0,0,1,2.38-3.8,9,9,0,0,0,.82-1c.2-.41-.38.14-.21.2.49.15-.84-.1-1-.14,4,1.29,4.69-10.52,1.4-11.57-2.25-.72-3.7,2.1-4.72,3.71-2.17,3.42-4.07,7-5.94,10.61-4.49,8.63-8.71,17.44-12.44,26.42-2.34,5.64-8.1,18.4.22,21.82,4.55,1.88,9.74,1.79,14.5,2.8.77.16,1.59.59,2.35.71s.22.4.36.11a32.44,32.44,0,0,0-.94-3.55c0,.22.2-1.41,0-.21-.07.41-.11.82-.17,1.23-.15,1,0,.08-.07.43q-.18.9-.38,1.8c-1.08,4.82-2.46,9.58-3.44,14.43s-2.13,10.52,0,15.1c3.49,7.47,10.53-5.84,12.12-8.53,3-5.09,26.77-46.33,12.47-48-2.7-.31-5.55.86-8.16,1.36a14.54,14.54,0,0,1-4.1.37,7.87,7.87,0,0,1-1.61-.39c-.74-.22-.23-.17-.09.17s.58,1.51.3.63c-.07-.23.23,1.27.07.16,0-.25,0,1.28,0,.06,0-.51,0-1,0-1.54s.07-1.41,0-.36c0-.53.08-1.05.12-1.58.11-1.23.24-2.46.38-3.69.58-5.06,1.36-10.1,1.88-15.17.48-4.69,1.05-9.82-.15-14.44-.42-1.61-1.09-3.59-2.61-4.5C1254.44,230.23,1253,241.79,1256.24,243.72Z"/><path class="cls-1" d="M1271.3,1144.64c-.18,0-.45-.35-.95-.88.74.79-.7-1.21-.12-.17.18.31.44,1-.18-.45.34.81.63,1.63.91,2.45.37,1.06,0,.09,0-.11.21.68.4,1.36.59,2,1.24,4.49,2.21,9.05,3.29,13.58a94.22,94.22,0,0,0,3.54,12.39c1.24,3.18,3.26,8.19,7.14,8.82,4.83.79,9.71-4.15,13.75-6.14.17-.08.5-.06.69-.16l.43.07a4.27,4.27,0,0,1-2.72-2.82,4.77,4.77,0,0,1-.81-2.15c.11.44.15,1.24-.06-.49.06.5.13,1,.18,1.5s.13,2.48.1,1.34a161.93,161.93,0,0,1-1.77,25.43c-.49,3.73-1.07,7.45-1.89,11.13-.32,1.43-.67,2.86-1.13,4.25a14.48,14.48,0,0,1-.63,1.69c.4-.84-.31.34-.37.51-.15.44-.06-.11.16,0,.69.35-.8-.72.51.12,0,0,1.88,2.43,1.49,1.74,1,1.79.32.47.14.16.12.2.29,1.38.13.33-.07-.45-.21-.91-.31-1.36s-.13-.66-.19-1q.15.86,0-.14c-.69-4.33-1.07-8.7-1.62-13s-1.1-9-3.17-12.95c-2.34-4.46-5.45-4.75-10-3.92-4.08.74-8.26,2.27-12.43,2.17-.26,0-.9-.25-1.13-.18,1.29-.39,2.56,3.57,2.92,5-.26-1,.06,1.6.05.27,0-.55-.09-1.13-.12-1.68,0-.26,0-.91,0,.27q0-.76,0-1.52a265.76,265.76,0,0,1,1.87-28.45c.42-4,1-9.13,1.59-12.44a44.1,44.1,0,0,1,.9-4.4,9,9,0,0,0,.4-1.26c0-.45-.31.27-.12.26.52,0-.82.2-1,.21,4.23-.21.7-11.5-2.75-11.33-2.36.12-2.73,3.26-3.12,5.13-.83,4-1.35,8-1.84,12-1.18,9.65-2,19.38-2.37,29.11-.21,6.1-1.13,20.07,7.87,20.36,4.92.16,9.75-1.74,14.56-2.47.78-.12,1.7,0,2.45-.16s.34.3.38,0a32.44,32.44,0,0,0-2.13-3c.08.21-.3-1.39-.06-.2.08.4.19.81.28,1.21.23,1,0,.07.08.43q.14.91.27,1.82c.68,4.9,1.06,9.83,1.84,14.72s1.7,10.6,5.31,14.14c5.89,5.77,7.81-9.17,8.35-12.24,1-5.83,8.8-52.78-5.15-49.28-2.63.66-4.89,2.75-7.17,4.14a14.54,14.54,0,0,1-3.71,1.78,7.87,7.87,0,0,1-1.65.2c-.77,0-.28-.08,0,.19s1.07,1.21.5.48c-.15-.19.67,1.11.12.13-.12-.22.43,1.21,0,0-.17-.48-.36-1-.53-1.45s-.43-1.34-.12-.34c-.15-.51-.3-1-.44-1.52-.33-1.19-.64-2.39-.94-3.58-1.23-4.94-2.27-9.94-3.56-14.87-1.19-4.56-2.46-9.56-5.21-13.47-1-1.36-2.28-3-4-3.3C1264.88,1132.64,1267.61,1144,1271.3,1144.64Z"/><path class="cls-1" d="M1096.78,683.2a49.83,49.83,0,0,0-58.85-49c-30.06,5.24-48.72,38.5-37.45,66.89a50.45,50.45,0,0,0,36.08,30.82,4.57,4.57,0,0,0,5.7-4.34l1-15.36.63-9.54c0-.67.15-1.36.13-2,0-2.47-1.61-3.22-2.78-5.08a6.72,6.72,0,1,1,12.4-3.57c0,2.93-1.92,3.89-3.21,6.16a5.44,5.44,0,0,0-.55,3.19c.09,2.65.35,5.3.53,7.95l1.21,18.27a4.57,4.57,0,0,0,5.7,4.34,50.4,50.4,0,0,0,39.43-48.72c.05-5.79-8.95-5.8-9,0a41.35,41.35,0,0,1-32.82,40l5.7,4.34-1.8-27.13-1.32,3.18c10.14-9.59,3.63-27.29-10.57-27.33s-20.67,17.77-10.57,27.33l-1.32-3.18-1.8,27.13,5.7-4.34a41.53,41.53,0,0,1-28.22-21.19,41,41,0,0,1-1.09-35.49c10.37-22.83,39.25-31.13,60.14-17.22a41.14,41.14,0,0,1,18,33.86C1087.84,689,1096.84,689,1096.78,683.2Z"/><path class="cls-1" d="M1001.77,688c-4,7.32-9.84-7.19-5.7-16.18,10-21.61,91.15-22.81,100.75,0,3.72,8.85-2.32,21.24-5,14.58C1084.17,667.23,1013.46,666.83,1001.77,688Z"/><path class="cls-1" d="M343.53,1296.82a49.83,49.83,0,0,0-73.32-22.06c-25.62,16.58-29.78,54.48-8.3,76.21a50.45,50.45,0,0,0,45.26,14.25,4.57,4.57,0,0,0,3.55-6.22l-5.07-14.53-3.15-9c-.22-.63-.4-1.31-.67-1.92-1-2.26-2.74-2.33-4.55-3.58a6.72,6.72,0,1,1,10-8.13c1.14,2.7-.25,4.33-.54,6.92a5.44,5.44,0,0,0,.74,3.15c1.11,2.4,2.4,4.74,3.59,7.11l8.26,16.33a4.57,4.57,0,0,0,6.94,1.77,50.4,50.4,0,0,0,17.23-60.26c-2.22-5.35-10.5-1.84-8.28,3.52A41.35,41.35,0,0,1,320.71,1350l6.94,1.77-12.27-24.26,0,3.44c5.58-12.8-7.33-26.53-20.42-21s-12.07,24.44,1,29.29l-2.46-2.41,9,25.68,3.55-6.22a41.53,41.53,0,0,1-34.26-8.47,41,41,0,0,1-14.89-32.24c.62-25.07,23.95-44,48.61-39.37a41.14,41.14,0,0,1,29.81,24.12C337.56,1305.65,345.85,1302.14,343.53,1296.82Z"/><path class="cls-1" d="M258,1338.37c-.86,8.32-11.87-2.77-11.57-12.66.72-23.79,75-56.64,92.72-39.41,6.89,6.69,6.17,20.45,1.11,15.37C325.67,1287.05,260.44,1314.34,258,1338.37Z"/><path class="cls-1" d="M1697.69,418.18a49.83,49.83,0,0,0,65.29-40c4.69-30.15-20.81-58.5-51.32-56.94a50.45,50.45,0,0,0-40.77,24.28,4.57,4.57,0,0,0,2.28,6.79l14.22,5.9,8.83,3.66c.62.26,1.24.57,1.87.78,2.35.75,3.57-.49,5.7-1a6.72,6.72,0,1,1-.61,12.89c-2.78-.95-3.07-3.07-4.8-5a5.44,5.44,0,0,0-2.85-1.55c-2.53-.77-5.13-1.37-7.69-2.05l-17.69-4.71a4.57,4.57,0,0,0-5.94,4,50.4,50.4,0,0,0,33.48,53c5.47,1.91,8.36-6.61,2.89-8.52a41.35,41.35,0,0,1-27.39-43.94l-5.94,4,26.27,7-2.59-2.27c5.83,12.68,24.68,12.2,29.27-1.24s-10.2-25.28-22.48-18.79l3.44-.23L1676,343.77l2.28,6.79a41.53,41.53,0,0,1,29.13-19.92,41,41,0,0,1,34,10.36c18.29,17.15,16.88,47.17-3,62.48a41.14,41.14,0,0,1-37.84,6.17C1695.08,407.85,1692.17,416.37,1697.69,418.18Z"/><path class="cls-1" d="M1723.68,326.67c-5.63-6.18,10-7,17.15-.2,17.27,16.38-7.67,93.65-32.35,95.41-9.57.69-19.37-9-12.21-9.4C1716.87,411.36,1739.95,344.52,1723.68,326.67Z"/><path class="cls-1" d="M1350.48,1777.69a49.83,49.83,0,0,0-40.78-64.8c-30.21-4.33-58.24,21.51-56.32,52a50.45,50.45,0,0,0,24.76,40.48,4.57,4.57,0,0,0,6.76-2.36l5.73-14.28,3.56-8.87c.25-.62.56-1.24.76-1.88.72-2.36-.53-3.56-1.07-5.69a6.72,6.72,0,1,1,12.9.45c-.91,2.79-3,3.11-5,4.86a5.44,5.44,0,0,0-1.51,2.86c-.74,2.54-1.31,5.15-2,7.72l-4.5,17.74a4.57,4.57,0,0,0,4.07,5.89,50.4,50.4,0,0,0,52.58-34.12c1.85-5.49-6.71-8.28-8.56-2.79a41.35,41.35,0,0,1-43.61,27.91l4.07,5.89,6.69-26.36-2.24,2.62c12.61-6,11.9-24.82-1.59-29.26s-25.16,10.5-18.52,22.71l-.27-3.43-10.12,25.24,6.76-2.36a41.53,41.53,0,0,1-20.27-28.89,41,41,0,0,1,10-34.08c16.93-18.49,47-17.44,62.51,2.25a41.14,41.14,0,0,1,6.62,37.77C1340.18,1780.42,1348.73,1783.22,1350.48,1777.69Z"/><path class="cls-1" d="M1258.66,1752.79c-6.11,5.71-7.13-9.89-.4-17.15,16.18-17.46,93.73,6.55,95.8,31.21.8,9.57-8.78,19.47-9.26,12.32C1343.43,1758.59,1276.32,1736.31,1258.66,1752.79Z"/><path class="cls-1" d="M1892.79,1455.89a49.83,49.83,0,0,0-73.67,20.88c-12.66,27.77,4.24,61.95,34,68.69A50.45,50.45,0,0,0,1899,1533.1a4.57,4.57,0,0,0-.36-7.15l-12.09-9.52-7.51-5.91c-.52-.41-1-.89-1.59-1.25-2.06-1.36-3.57-.49-5.76-.57a6.72,6.72,0,1,1,4.07-12.25c2.42,1.66,2.13,3.78,3.27,6.13a5.44,5.44,0,0,0,2.32,2.26c2.23,1.43,4.57,2.7,6.85,4.05l15.76,9.32a4.57,4.57,0,0,0,6.8-2.25,50.4,50.4,0,0,0-17.93-60.06c-4.75-3.32-9.84,4.11-5.08,7.43a41.35,41.35,0,0,1,14.5,49.71l6.8-2.25-23.41-13.84,1.88,2.89c-2.19-13.79-20.46-18.41-28.52-6.71s3,27.09,16.57,24.16l-3.37-.71,21.37,16.82-.36-7.15a41.53,41.53,0,0,1-33.43,11.31,41,41,0,0,1-29.9-19.15c-13-21.46-3.51-50,19.77-59.35a41.14,41.14,0,0,1,38.1,4.28C1892.51,1466.55,1897.61,1459.13,1892.79,1455.89Z"/><path class="cls-1" d="M1843,1537c3.75,7.47-11.5,4.06-16.57-4.44-12.2-20.44,32.68-88.1,56.92-83.13,9.4,1.93,16.21,13.91,9.21,12.35C1872.48,1457.28,1832.21,1515.4,1843,1537Z"/></g></svg>