<svg xmlns="http://www.w3.org/2000/svg" xmlns:xlink="http://www.w3.org/1999/xlink" viewBox="0 0 2000 2000"><defs><style>.cls-1{fill:none;}.cls-2{clip-path:url(#clip-path);}.cls-3{fill:#e6e5e5;}</style><clipPath id="clip-path"><rect class="cls-1" width="2000" height="2000"/></clipPath></defs><title>画板 2_light_grey</title><g id="图层_5" data-name="图层 5"><g class="cls-2"><path class="cls-3" d="M238.5,376.38a112.9,112.9,0,0,1-20-14.7,78.81,78.81,0,0,1-8-8.83c-2.27-2.92-4.15-7.64-7.25-9.58C197.61,339.7,191.55,337,186,333a97.09,97.09,0,0,1-14.76-13.05c-17.36-19-26.16-43.87-26.91-69.4a160.71,160.71,0,0,1,1.16-24.27c1.22-9.94,0-20,.84-30,.26-3.27.61-10.51-3.07-12.3s-5.23,4.71-5.41,7c-.76,9.5,0,19.06-.64,28.5-.62,8.71-1.73,17.29-1.74,26A159.13,159.13,0,0,0,142,292.21c8.49,27.73,25.92,51.56,51.2,66.2,3.95,2.29,7.25,3.47,9.82,7.33a78.78,78.78,0,0,0,8.79,10.87,116.43,116.43,0,0,0,24.4,19.06c5.35,3.2,7.71-16.08,2.34-19.29Z"/><path class="cls-3" d="M402.43,399.4a143,143,0,0,1-14.93.44c-4.81-.12-9.66-1.06-14.38-.17a155.92,155.92,0,0,1-23.62,2.47,234.44,234.44,0,0,1-56.35-5.28c-5.21-1.1-6.66,18.59,0,20a234.44,234.44,0,0,0,56.35,5.28,155.93,155.93,0,0,0,23.62-2.47c4.72-.89,9.57,0,14.38.17a143,143,0,0,0,14.93-.44c6.4-.51,5.92-20.47,0-20Z"/><path class="cls-3" d="M564.3,182.65a74.59,74.59,0,0,1-.08,25.17c-1,6.15-2.65,11.53-1.12,17.81,1.06,4.33,2.25,8.6,2.92,13,2.14,14.13.87,28-5.23,41-6,12.78-15.76,23.57-26.59,32.46a48.35,48.35,0,0,0-4.67,3.79c-1.44,1.53-2.2,3.74-3.14,5.6A101.41,101.41,0,0,1,519.58,333a95.06,95.06,0,0,1-15.91,18.13,97.38,97.38,0,0,1-21.85,14.3,105.59,105.59,0,0,1-12.3,5,16.3,16.3,0,0,0-6.67,3.62c-2.17,1.9-4.42,3.69-6.72,5.43-3.4,2.57-3.55,8.48-3.07,12.3.22,1.75,2.07,9.51,5.41,7,3.86-2.92,7.44-7.14,12-8.62a109.16,109.16,0,0,0,11.13-4.23,98.18,98.18,0,0,0,21.17-12.81c13.74-10.94,24-25.16,31.52-41l-1.94,2.57c16.1-12.42,30.15-27.92,37.27-47.26,8.64-23.46,7.46-48.93.8-72.73v10.09c3.44-15.55,5.13-31.65,2.32-47.45-.44-2.49-1.59-8.65-5.41-7-3.43,1.49-3.57,9.51-3.07,12.3Z"/><path class="cls-3" d="M216.54,96.16c12-14.69,27.78-25.77,46.38-30.29,17.59-4.27,36-3.39,53.8-.85,2.27.32,5,1.3,7.23.58,1.16-.38,2.47-1.65,3.53-2.25a52.3,52.3,0,0,1,9.07-4,86.25,86.25,0,0,1,21.26-4,143,143,0,0,1,45.33,4,86.51,86.51,0,0,1,21.19,8c4.39,2.45,9.58,6.49,11.07,9.71.52,1.12,1.6,3,3.11,2.93,17.61-.29,34.86,2.26,50,11.7,5.23,3.25,7.67-16,2.34-19.29-15.77-9.8-34.07-12.71-52.38-12.41L441.62,63C436.41,51.69,424,45.91,412.88,42.19A143.63,143.63,0,0,0,366.18,35a109.1,109.1,0,0,0-23.62,2.62,81.11,81.11,0,0,0-9.81,2.92c-3.36,1.25-6.34,3.5-9.62,4.73s-9.44-.7-13.14-1.12c-5.1-.58-10.23-1-15.36-1.17a122.92,122.92,0,0,0-27.74,2c-22.16,4.38-40.57,16.51-54.8,33.89-2.8,3.42-2.65,9.65-1.58,13.68.72,2.73,3.17,7.07,6,3.59Z"/><path class="cls-3" d="M430.64,324.55c6.17,0,6.23-20,0-20s-6.23,20,0,20Z"/><path class="cls-3" d="M231,260.44c-6.88-12.84-10.22-27.51-7.73-40.65,2.17-11.42,7.65-22,14.71-31.1,16.86-21.83,42.75-36.17,69-43.45a184.2,184.2,0,0,1,94.53-.76c26.55,6.88,52.86,20.76,70.36,42.31,8,9.82,14.4,21.82,16.39,34,2.67,16.38-3.07,33.56-13.13,47.71-2.63,3.7-2.7,9.44-1.58,13.68.65,2.47,3.35,7.34,6,3.59,20.49-28.8,24.36-67.72,7.82-99.32-14.13-27-39.93-45.87-68.05-56.39-60.18-22.52-141.83-12.87-184.3,39.44-23.94,29.49-28.31,71.43-10.27,105.06,1.82,3.39,4.46,3.63,6.22,0s2-10.39,0-14.14Z"/><path class="cls-3" d="M429.47,304.91c-49,23-110.87,21.51-158-5.52-5.47-3.14-7.74,16.19-2.34,19.29,48.74,27.95,112.08,29.32,162.7,5.52,5.42-2.55,3.73-22.14-2.34-19.29Z"/><path class="cls-3" d="M293.15,387.18c-1.62,12.93-8.09,27.18-20.65,32.76C261,425.05,249.79,417.55,245,407c-5.65-12.41-4-27.3,2.37-39.12,5.41-10,16.67-19.82,28.84-15.64,13.84,4.75,18.26,21.93,16.95,34.93-.33,3.25-.56,10.53,3.07,12.3s5.18-4.73,5.41-7c1.92-19-.73-43.3-16.86-56-14.06-11.08-31-2.16-39.86,10.86-12,17.77-14.83,41.91-10,62.52,3.55,15,14.72,34.26,32.9,31.45,21.82-3.37,31.41-30,33.78-48.83.4-3.22.51-10.55-3.07-12.3S293.43,384.95,293.15,387.18Z"/><path class="cls-3" d="M392.85,392.5c2.2,17.53,10.06,40.58,28.36,47.37,17,6.32,30.62-7.48,36-22.5,7.22-20,6-44.64-3.9-63.61-7.31-14-22.19-27.84-38.92-20.17-20.54,9.41-23.53,39.57-21.58,58.92.26,2.55,1.7,8.59,5.41,7s3.36-9.43,3.07-12.3c-1.21-12,2.11-26.27,13-33,11.07-6.84,23.18-.15,30,9.33,7.89,11,10.78,26.08,6.84,39.06-3.34,11-12.73,20.95-25.1,18.66C411,418.45,403,400.75,401.34,387.18c-.32-2.53-1.67-8.61-5.41-7C392.4,381.73,392.5,389.65,392.85,392.5Z"/><path class="cls-3" d="M268.91,295c-.26,12.72-13.92,22-25.69,22-11.52,0-25.69-9.26-25.69-22s14.17-22,25.69-22c11.77,0,25.43,9.25,25.69,22,.05,2.57.51,10,4.4,10s4.45-7.67,4.4-10c-.32-15.77-6.85-33.07-22.49-39.47-14-5.75-29.71-.56-38.35,11.74-9.83,14-10.87,34.75-3.24,50,6.66,13.28,21,22.54,36.14,19,18.93-4.45,27.58-23.2,27.95-41.21.05-2.57-.58-10-4.4-10S269,292.7,268.91,295Z"/><path class="cls-3" d="M483.94,301.85c-.26,12.72-13.92,22-25.69,22-11.52,0-25.69-9.26-25.69-22s14.17-22,25.69-22c11.77,0,25.43,9.25,25.69,22,.05,2.57.51,10,4.4,10s4.45-7.67,4.4-10c-.32-15.77-6.85-33.07-22.49-39.47-14-5.75-29.71-.56-38.35,11.74-9.83,14-10.87,34.75-3.24,50,6.66,13.28,21,22.54,36.14,19,18.93-4.45,27.58-23.2,27.95-41.21.05-2.57-.58-10-4.4-10S484,299.52,483.94,301.85Z"/><ellipse class="cls-3" cx="303.39" cy="213.8" rx="26.71" ry="15.9" transform="translate(56.8 491.2) rotate(-83.54)"/><ellipse class="cls-3" cx="402.35" cy="213.8" rx="15.9" ry="26.71" transform="translate(-21.51 46.64) rotate(-6.46)"/><path class="cls-3" d="M240.38,98.39c-10.79-12.52-24-22.31-40.33-26.12-13.06-3.06-26.5-1.55-39.16,2.53C147.64,79.07,134.75,85.93,126,97c-9.66,12.15-13.5,27.81-14.1,43.06-1,26.56,9.82,53.3,34.22,66.26,23.66,12.57,55.71,7.15,70.43-16.18,10.08-16,13.45-36.33,12.24-55-.14-2.24-3.09-10.86-6.46-6-6,8.7-13.11,17.34-21.49,23.81-8.08,6.24-22.31,11.89-31.92,5.66-4.13-2.68-4.77-7-4.19-10.52-.26,1.63.73-2.28.21-.88a5.05,5.05,0,0,1,.9-1.74,8.46,8.46,0,0,1,4-3c7.44-2.76,16.88,1.51,23.48,4.72a110.81,110.81,0,0,1,17,10.22c3.38,2.48,5.19-5.15,5.41-7,.46-3.72.34-9.79-3.07-12.3a109.73,109.73,0,0,0-18.14-10.75c-8.39-4-20.61-8.81-29.3-3-5.31,3.56-7.56,10.19-8.65,16.17-1.67,9.17-1.46,19.78,2.52,28.37,6.55,14.13,22.57,13.82,35.12,8.57,13.51-5.65,24.37-19.33,32.51-31.12l-6.46-6c-.35-5.47-.08-.59-.08.75,0,1.05,0,2.1-.06,3.16,0,2.64.17-1.32,0,.32-.09.89-.14,1.79-.22,2.68-.16,1.61-.37,3.21-.6,4.81-.08.55-.49,2.91-.17,1.2-.21,1.11-.45,2.22-.71,3.33a52.26,52.26,0,0,1-3.83,11.38c-9.65,21-34.1,28.89-55.72,23.13a54.35,54.35,0,0,1-28.18-19.06,53.18,53.18,0,0,1-7.34-12.36c-2-4.71-2.3-6.91-2.66-12.12-.7-10.11,1.31-21.25,7.33-30.19,7.1-10.53,18.11-16.93,29.72-21.46,12-4.67,25.14-6.65,37.9-4.62,16.12,2.57,29.79,12.07,40.28,24.25,2.86,3.32,5.28-.8,6-3.59,1-3.83,1.25-10.4-1.58-13.68Z"/><path class="cls-3" d="M460.48,119.31c7.74-12,17.8-22.15,31.08-27.88,10.69-4.61,22.62-5.65,34.11-4.33,11.24,1.29,23,4.54,32.57,10.69,10.94,7,18,18.06,20.86,30.64a61.89,61.89,0,0,1,1.18,7.79c.12,1.22.16,2,.2,3.09,0,.85,0,1.7,0,2.54,0,.26-.1,2.61,0,1.25a20.81,20.81,0,0,0-.29,2.22,6.47,6.47,0,0,1-.34,1.75,42.09,42.09,0,0,1-1.83,6A54.69,54.69,0,0,1,558.52,178c-18.84,13-47.88,13.26-63.6-4.86a54,54,0,0,1-8.12-12.61,61.53,61.53,0,0,1-4.25-11.65c-.51-1.88-.94-3.77-1.35-5.67s-.17-.93-.1-.45c-.11-.72-.24-1.45-.35-2.17-.19-1.31-.38-2.63-.47-4l-5.41,12.3c8.49,8.06,17.81,15.89,28,21.68,10.69,6.06,27.64,8.75,37-1.33,6.44-7,7.14-17.94,6.25-26.89-.73-7.3-2.61-15.83-7.84-21.31-8.06-8.45-20.24-3.73-28.86,1.25a109,109,0,0,0-21.3,16.49c-4,3.94-1.58,23.14,4.44,17.27-.33.32-1,.92.19-.16,1-.88,1.95-1.77,2.94-2.63a121.85,121.85,0,0,1,9.67-7.58c6.57-4.61,15.69-10.77,24.21-9.23,7.11,1.29,10.94,11.12,5.58,15.72-8.54,7.33-22.89,3.33-31.36-1.74-9.6-5.75-18.44-13.12-26.55-20.82-4.44-4.21-5.5,11.08-5.41,12.3,1.12,15.08,6.38,31.06,14.9,43.53,15.37,22.49,45.54,27.66,69.14,14.89,24-13,35-40.64,33.15-66.87-1.08-15-5.42-30.6-14.86-42.62-9.13-11.62-22-17.79-36.05-21.42-13.81-3.58-28.31-4-42,.24-17.13,5.28-30.43,17.5-40,32.37-2.5,3.88-2.74,9.3-1.58,13.68.61,2.29,3.49,7.52,6,3.59Z"/><path class="cls-3" d="M230.12,97.29c-3.22,14.85-17,26.8-29.1,34.86-5.19,3.44-2.74,22.66,2.34,19.29,15.48-10.28,30.3-25.35,34.35-44,.86-4,1.43-10.39-1.58-13.68s-5.37.61-6,3.59Z"/><path class="cls-3" d="M459.66,105.34c3.61,20.25,19.4,39.33,40,44,5.12,1.16,6.66-18.49,0-20-7-1.59-13.49-6-18.83-10.59S469.43,107.23,468.15,100c-.44-2.49-1.59-8.65-5.41-7-3.43,1.49-3.57,9.51-3.07,12.3Z"/><path class="cls-3" d="M1498.93,965.89a112.9,112.9,0,0,1-7.19-23.72,78.81,78.81,0,0,1-1.1-11.85c-.07-3.69,1.25-8.6-.08-12-2.45-6.28-5.68-12.08-7.71-18.57a97.09,97.09,0,0,1-4-19.29c-2.56-25.58,5.28-50.8,20-71.71A160.71,160.71,0,0,1,1514.24,790c6.92-7.24,12-16,18.64-23.58,2.17-2.46,6.77-8.06,4.9-11.7s-7,.65-8.52,2.36c-6.29,7.16-11.38,15.29-17.56,22.45-5.7,6.61-11.72,12.82-17,19.83a159.13,159.13,0,0,0-22.8,41.33c-9.79,27.3-10.08,56.83,1.42,83.68,1.8,4.19,3.73,7.12,3.49,11.75a78.78,78.78,0,0,0,.54,14,116.43,116.43,0,0,0,8.15,29.87c2.38,5.76,15.79-8.28,13.41-14.05Z"/><path class="cls-3" d="M1616.52,1082.4a143,143,0,0,1-12.23-8.58c-3.78-3-7.11-6.63-11.42-8.74a155.92,155.92,0,0,1-20.4-12.15,234.44,234.44,0,0,1-42-37.94c-3.51-4-16.46,10.92-12,16a234.45,234.45,0,0,0,42,37.94,155.93,155.93,0,0,0,20.4,12.15c4.32,2.11,7.64,5.77,11.42,8.74a143,143,0,0,0,12.23,8.58c5.43,3.42,17-12.86,12-16Z"/><path class="cls-3" d="M1875.9,1005.55a74.59,74.59,0,0,1-15.13,20.12c-4.47,4.34-9,7.65-11.55,13.6-1.74,4.11-3.34,8.24-5.45,12.18-6.74,12.6-16,22.94-28.72,29.73-12.45,6.66-26.73,9.46-40.73,10.11a48.35,48.35,0,0,0-6,.24c-2.07.36-4,1.68-5.87,2.61a101.41,101.41,0,0,1-12.33,5.13,95.06,95.06,0,0,1-23.59,5,97.38,97.38,0,0,1-26.06-1.61,105.59,105.59,0,0,1-12.82-3.39,16.3,16.3,0,0,0-7.51-1.09c-2.88.23-5.75.31-8.64.33-4.26,0-7.91,4.67-9.82,8-.87,1.53-4,8.86.16,8.83,4.84,0,10.23-1.27,14.81.3a109.16,109.16,0,0,0,11.45,3.27,98.18,98.18,0,0,0,24.63,2.4c17.56-.54,34.3-5.8,49.76-14l-3.09.9c20.34-.32,40.86-4.34,58.14-15.57,21-13.63,35.24-34.75,44.15-57.81l-6,8.09c12.06-10.41,23-22.3,30.25-36.64,1.14-2.26,3.9-7.88-.16-8.83-3.64-.86-8.55,5.49-9.82,8Z"/><path class="cls-3" d="M1649,728.2c18.43-4.58,37.68-4,55.29,3.48,16.65,7.1,30.89,18.83,43.62,31.5,1.63,1.62,3.23,4,5.45,4.78,1.16.39,3,.16,4.18.31a52.3,52.3,0,0,1,9.67,2.2,86.26,86.26,0,0,1,19.4,9.55,143,143,0,0,1,33.94,30.31,86.51,86.51,0,0,1,12.17,19.13c2.05,4.59,3.79,10.94,3.06,14.41-.26,1.21-.49,3.32.74,4.21,14.28,10.3,26.58,22.67,33.1,39.31,2.24,5.73,15.7-8.21,13.41-14.05-6.77-17.29-19.7-30.56-34.55-41.28l.74,4.21c2.57-12.15-3.88-24.18-10.6-33.84a143.63,143.63,0,0,0-33.13-33.69,109.1,109.1,0,0,0-20.49-12,81.11,81.11,0,0,0-9.61-3.53c-3.44-1-7.17-1-10.53-2s-7.15-6.2-9.86-8.76c-3.74-3.52-7.59-6.92-11.61-10.12a122.92,122.92,0,0,0-23.43-15c-20.38-9.75-42.39-11-64.18-5.62-4.3,1.07-7.9,6.15-9.45,10-1.05,2.62-1.69,7.56,2.68,6.48Z"/><path class="cls-3" d="M1683.91,1039.3c4.94,3.69,17-12.3,12-16s-17,12.3-12,16Z"/><path class="cls-3" d="M1562.29,868.5c2.16-14.4,8.27-28.16,18.13-37.19,8.57-7.85,19.27-13,30.4-16.12,26.57-7.41,55.89-3.41,81.29,6.47a184.2,184.2,0,0,1,76.2,55.94c17.16,21.4,29.94,48.26,31.07,76,.51,12.64-1.52,26.1-7.22,37.07-7.66,14.72-22.54,25.06-39.06,30.37-4.32,1.39-7.82,6-9.45,10-1,2.37-1.71,7.89,2.68,6.48,33.65-10.82,60-39.7,65.69-74.91,4.83-30.08-4.56-60.64-20.8-85.9-34.75-54-106-95.16-171.28-78.65-36.83,9.31-65.42,40.3-71.08,78-.57,3.8,1.4,5.58,5,3.72s7.83-7.12,8.46-11.33Z"/><path class="cls-3" d="M1694.72,1022.86c-53.06-10.86-101.72-49.09-123.32-99-2.51-5.79-15.89,8.34-13.41,14.05,22.33,51.55,72.28,90.55,127.07,101.76,5.87,1.2,16.23-15.51,9.66-16.85Z"/><path class="cls-3" d="M1536.26,1007.23c-9,9.39-22.74,16.94-36.15,13.89-12.28-2.79-16.76-15.5-14.3-26.81,2.9-13.32,13.13-24.27,25.3-29.93,10.34-4.82,25.21-5.91,32.47,4.72,8.25,12.09,1.51,28.5-7.32,38.13-2.21,2.41-6.75,8.1-4.9,11.7s7-.69,8.52-2.36c12.88-14,25.31-35.13,20-55-4.64-17.28-23.59-20.3-38.44-15.14-20.27,7-37,24.71-45.38,44.14-6.12,14.13-8.7,36.25,7.55,44.88,19.5,10.35,43.1-5.22,56.28-18.92,2.25-2.34,6.72-8.15,4.9-11.7S1537.82,1005.61,1536.26,1007.23Z"/><path class="cls-3" d="M1613,1071.14c-8.72,15.36-16.22,38.53-5.61,54.92,9.86,15.25,29,12.32,42.33,3.52,17.78-11.74,31.54-32.17,34.94-53.31,2.5-15.57-1.13-35.58-19.12-39.44-22.09-4.74-42.53,17.63-52.54,34.3-1.32,2.2-3.78,7.91.16,8.83s8.33-5.54,9.82-8c6.18-10.3,17.41-19.79,30.17-18.67,13,1.14,18.66,13.75,18.46,25.43-.23,13.5-7,27.35-17.88,35.39-9.27,6.83-22.73,9.17-31.28-.06-10.42-11.26-6.22-30.21.53-42.1,1.26-2.22,3.81-7.9-.16-8.83C1619.05,1062.24,1614.39,1068.64,1613,1071.14Z"/><path class="cls-3" d="M1572,918.89c-7.82,10-24.3,9.28-33.73,2.24-9.23-6.89-15-22.79-7.44-33s24.5-9.13,33.73-2.24c9.43,7,14.84,22.62,7.44,33-1.5,2.09-5.57,8.32-2.46,10.65s8.15-3.48,9.51-5.38c9.17-12.83,14.29-30.6,5.59-45.09-7.8-13-23.48-18.22-37.76-13.53-16.25,5.34-29.5,21.35-32.49,38.1-2.61,14.62,3.34,30.62,17.6,36.83,17.83,7.76,36-2.09,47.05-16.31,1.58-2,5.52-8.36,2.46-10.65S1573.39,917,1572,918.89Z"/><path class="cls-3" d="M1740.2,1053c-7.82,10-24.3,9.28-33.73,2.24-9.23-6.89-15-22.79-7.44-33s24.5-9.13,33.73-2.24c9.43,7,14.84,22.62,7.44,33-1.5,2.09-5.57,8.32-2.46,10.65s8.15-3.48,9.51-5.38c9.17-12.83,14.29-30.6,5.59-45.09-7.8-13-23.48-18.22-37.76-13.53-16.25,5.34-29.5,21.35-32.49,38.1-2.61,14.62,3.34,30.62,17.6,36.83,17.83,7.76,36-2.09,47.05-16.31,1.58-2,5.52-8.36,2.46-10.65S1741.63,1051.15,1740.2,1053Z"/><ellipse class="cls-3" cx="1648.2" cy="874.42" rx="26.71" ry="15.9" transform="translate(-117.56 1477.14) rotate(-46.79)"/><ellipse class="cls-3" cx="1727.49" cy="933.62" rx="26.71" ry="15.9" transform="translate(50.17 1954.63) rotate(-59.72)"/><path class="cls-3" d="M1666.75,744.25c-1.15-16.49-5.92-32.26-16.69-45.06-8.64-10.26-20.31-17.1-32.89-21.4-13.18-4.5-27.61-6.72-41.27-3.12-15,4-27.46,14.2-37.06,26.07-16.72,20.66-24,48.58-12.21,73.57,11.44,24.22,40.36,39.06,66.12,29.17,17.64-6.77,32.51-21.07,42.71-36.75,1.22-1.88,4-10.55-1.6-8.66-10,3.38-20.88,6.05-31.47,6.22-10.21.16-25-3.82-29-14.56-1.71-4.62.36-8.44,2.94-10.94-1.19,1.15,2-1.39.69-.58a5.05,5.05,0,0,1,1.76-.86,8.46,8.46,0,0,1,5,0c7.61,2.24,12.63,11.31,16,17.83a110.81,110.81,0,0,1,7.54,18.38c1.22,4,7.24-1,8.52-2.36,2.6-2.71,6.13-7.64,4.9-11.7a109.73,109.73,0,0,0-8.1-19.47c-4.36-8.19-11.25-19.39-21.69-19.93-6.38-.33-12.16,3.64-16.61,7.78-6.82,6.35-13,15-15,24.24-3.21,15.24,9.82,24.58,23,27.88,14.2,3.55,31.09-.91,44.67-5.49l-1.6-8.66c3-4.59.29-.51-.51.55-.63.84-1.29,1.66-1.94,2.49-1.61,2.08.93-1-.2.26-.61.66-1.18,1.35-1.78,2-1.09,1.2-2.22,2.35-3.36,3.5-.39.39-2.13,2-.86.86q-1.25,1.15-2.56,2.24a52.26,52.26,0,0,1-9.88,6.83c-20.29,11-44.61,2.75-58.49-14.79a54.35,54.35,0,0,1-11.17-32.13,53.18,53.18,0,0,1,1.51-14.29c1.24-5,2.29-6.91,5.12-11.3,5.49-8.52,13.76-16.25,23.94-19.81,12-4.2,24.63-2.73,36.65.58,12.39,3.42,24.13,9.71,33.13,19,11.38,11.7,16.65,27.49,17.77,43.53.31,4.37,4.71,2.52,7,.73,3.11-2.46,7.22-7.58,6.92-11.91Z"/><path class="cls-3" d="M1830.6,892.68c13.4-5,27.51-7.11,41.59-3.74,11.32,2.7,21.5,9,29.92,16.94,8.23,7.76,15.7,17.4,19.7,28.05,4.57,12.18,3.62,25.24-1.61,37a61.89,61.89,0,0,1-3.72,7c-.63,1-1,1.67-1.69,2.6-.48.7-1,1.38-1.49,2.06-.16.21-1.64,2-.75,1,.69-.81-1.3,1.35-1.56,1.61-1,1,.17,0-1.32,1.2a42.09,42.09,0,0,1-5.07,3.73,54.69,54.69,0,0,1-30.52,8.23c-22.89-.82-46.3-18-48.05-41.94a54,54,0,0,1,1-15,61.53,61.53,0,0,1,3.56-11.88c.72-1.81,1.5-3.58,2.31-5.35s.42-.85.19-.42c.34-.65.67-1.3,1-1.95.63-1.17,1.27-2.33,2-3.45l-11.7,6.62c2,11.54,4.76,23.39,9.48,34.13,4.94,11.25,16.92,23.55,30.41,21,9.34-1.74,16.45-10.11,21.09-17.81,3.79-6.28,7.38-14.24,6.46-21.77-1.41-11.59-14-15.09-23.87-16.27a109,109,0,0,0-26.93.47c-5.59.74-15.11,17.6-6.77,16.5-.46.06-1.36.13.25,0,1.31-.12,2.62-.25,3.93-.34a121.85,121.85,0,0,1,12.28-.29c8,.24,19,.76,24.92,7.09,4.93,5.28,2.11,15.46-4.94,15.94-11.23.76-20.33-11-24.09-20.16-4.25-10.35-6.93-21.55-8.82-32.56-1-6-11,5.59-11.7,6.62-8.13,12.75-13.47,28.71-14.1,43.8-1.14,27.22,19.95,49.41,46.49,53.29,27,4,52.38-11.61,66.57-33.75,8.13-12.7,14-27.76,13.59-43-.37-14.77-7-27.44-16.08-38.73-8.93-11.13-20.3-20.13-33.82-24.95-16.88-6-34.85-4.18-51.42,2-4.32,1.61-7.76,5.81-9.45,10-.88,2.2-1.71,8.11,2.68,6.48Z"/><path class="cls-3" d="M1659.18,737.23c-11.47,10-29.63,11.33-44.17,10.53-6.22-.34-15.75,16.52-9.66,16.85,18.55,1,39.44-2.18,53.88-14.74,3.06-2.66,7.36-7.47,6.92-11.91-.42-4.27-4.67-2.73-7-.73Z"/><path class="cls-3" d="M1838.3,881c-9.22,18.38-8,43.12,5.73,59.2,3.41,4,16.4-10.83,12-16-4.65-5.45-7.25-12.84-8.76-19.75s-2.24-16.06,1-22.61c1.14-2.26,3.9-7.88-.16-8.83-3.64-.86-8.55,5.49-9.82,8Z"/><path class="cls-3" d="M726.65,1627.77a112.9,112.9,0,0,1-24.07-5.93,78.81,78.81,0,0,1-10.75-5.1c-3.21-1.82-6.76-5.47-10.37-6.06-6.65-1.1-13.29-1.28-19.9-2.85a97.09,97.09,0,0,1-18.64-6.39c-23.31-10.86-41-30.47-51.47-53.77a160.71,160.71,0,0,1-8.24-22.86c-2.69-9.65-7.65-18.51-10.75-28.07-1-3.12-3.47-9.93-7.56-10.18s-3,6.36-2.32,8.53c2.94,9.07,7.34,17.59,10.34,26.56,2.77,8.28,5,16.63,8.38,24.72a159.13,159.13,0,0,0,23.9,40.7c18.47,22.35,43.72,37.67,72.68,41.5,4.52.6,8,.43,11.88,3a78.78,78.78,0,0,0,12.28,6.66,116.43,116.43,0,0,0,29.84,8.24c6.17.9.95-17.81-5.24-18.71Z"/><path class="cls-3" d="M886.86,1586.13a143,143,0,0,1-13.62,6.14c-4.49,1.73-9.33,2.73-13.34,5.36A155.92,155.92,0,0,1,839,1609,234.44,234.44,0,0,1,785,1625.71c-5.23,1,1,19.72,7.67,18.47a234.45,234.45,0,0,0,54.07-16.74,155.93,155.93,0,0,0,20.87-11.34c4-2.63,8.86-3.63,13.34-5.36a143,143,0,0,0,13.62-6.14c5.71-2.93-2.39-21.18-7.67-18.47Z"/><path class="cls-3" d="M953.2,1323.87a74.59,74.59,0,0,1,9.58,23.28c1.45,6.06,2,11.66,5.8,16.87,2.64,3.59,5.38,7.08,7.69,10.9,7.4,12.23,11.54,25.5,10.9,39.87-.63,14.1-5.51,27.81-12.1,40.18a48.35,48.35,0,0,0-2.86,5.29c-.74,2-.59,4.3-.75,6.38a101.41,101.41,0,0,1-1.88,13.22,95.06,95.06,0,0,1-7.74,22.84,97.38,97.38,0,0,1-14.69,21.59,105.59,105.59,0,0,1-9.46,9.3,16.3,16.3,0,0,0-4.77,5.91c-1.27,2.59-2.67,5.11-4.13,7.59-2.15,3.67,0,9.19,1.88,12.54.87,1.53,5.56,8,7.68,4.37,2.45-4.18,4.13-9.45,7.82-12.58a109.16,109.16,0,0,0,8.65-8.18,98.18,98.18,0,0,0,14.64-20c8.5-15.37,12.52-32.45,13.4-49.91l-.81,3.12c10.11-17.65,17.13-37.35,16.29-57.94-1-25-11.88-48-27.17-67.47l3.87,9.32c-2.79-15.68-7.41-31.2-16.06-44.71-1.37-2.13-4.78-7.37-7.68-4.37-2.6,2.69.35,10.15,1.88,12.54Z"/><path class="cls-3" d="M598.87,1377.41c5.47-18.18,15.77-34.46,31.21-45.76,14.61-10.69,32-16.95,49.36-21.42,2.22-.57,5.12-.72,6.9-2.24.92-.8,1.65-2.47,2.4-3.44a52.3,52.3,0,0,1,6.83-7.2,86.25,86.25,0,0,1,18.11-11.8,143,143,0,0,1,43.39-13.71,86.51,86.51,0,0,1,22.66-.7c5,.58,11.34,2.32,13.95,4.72.91.84,2.61,2.12,4,1.51,16.15-7,33.06-11.28,50.69-8.39,6.07,1,1-17.69-5.24-18.71-18.32-3-36.33,1.33-53.13,8.63l4,1.51c-9.13-8.41-22.78-9-34.51-8.16a143.63,143.63,0,0,0-45.88,11.29A109.1,109.1,0,0,0,692.79,1275a81.11,81.11,0,0,0-7.94,6.46c-2.62,2.44-4.51,5.66-7.07,8.05s-9,3-12.57,4c-4.94,1.42-9.83,3-14.63,4.82a122.92,122.92,0,0,0-24.84,12.49c-18.79,12.54-31.13,30.81-37.6,52.32-1.28,4.24,1.26,9.93,3.79,13.24,1.71,2.24,5.64,5.31,6.94,1Z"/><path class="cls-3" d="M884.21,1506.19c5.7-2.37-1.92-20.86-7.67-18.47s1.92,20.86,7.67,18.47Z"/><path class="cls-3" d="M675.25,1523.57c-11.28-9.21-20-21.48-22.73-34.57-2.38-11.38-1.35-23.21,1.66-34.36,7.19-26.63,25.6-49.8,47.06-66.6a184.2,184.2,0,0,1,87-37c27.16-3.83,56.78-1.11,81.21,12.08,11.13,6,21.67,14.63,28.19,25.14,8.75,14.11,10,32.17,6.17,49.1-1,4.42,1.13,9.76,3.79,13.24,1.55,2,5.91,5.5,6.94,1,7.87-34.46-3.49-71.89-30.88-94.72-23.4-19.51-54.47-27-84.48-26-64.21,2.29-135.92,42.53-155.07,107.12-10.8,36.42,1.25,76.82,30.81,101,3,2.43,5.51,1.65,5.75-2.39s-2.12-10.36-5.43-13.06Z"/><path class="cls-3" d="M875.59,1488.5c-36.43,40.09-94.14,62.4-148,55.52-6.26-.8-.94,17.92,5.24,18.71,55.73,7.11,114.76-15.92,152.37-57.32,4-4.43-5-21.88-9.56-16.91Z"/><path class="cls-3" d="M781.26,1616.78c3.46,12.56,3,28.2-6.51,38.18-8.67,9.13-21.89,6.5-30.35-1.39-10-9.29-14.16-23.68-12.82-37,1.14-11.35,7.79-24.7,20.63-25.51,14.61-.93,25.28,13.25,29.05,25.76.94,3.12,3.52,9.94,7.56,10.18s3-6.36,2.32-8.53c-5.5-18.24-17.29-39.7-37.05-45.25-17.23-4.84-29.5,9.92-32.64,25.33-4.29,21,2.38,44.39,14.79,61.56,9,12.48,26.73,26,42.45,16.42,18.86-11.48,17.51-39.73,12.46-58.05-.86-3.13-3.57-9.94-7.56-10.18S780.66,1614.6,781.26,1616.78Z"/><path class="cls-3" d="M875.37,1583.44c8.75,15.34,24.85,33.61,44.36,32.87,18.14-.7,25.41-18.65,24.64-34.6-1-21.28-11.56-43.54-28-57.25-12.11-10.1-31.17-17.19-43.68-3.7-15.36,16.57-6.55,45.57,2.68,62.69,1.22,2.25,4.87,7.28,7.68,4.37s-.51-10-1.88-12.54c-5.7-10.58-8.13-25.07-.65-35.47,7.6-10.57,21.35-9,31.29-2.89,11.49,7.09,20,19.95,21.3,33.45,1.14,11.45-3.72,24.23-16,26.86-15,3.21-29.15-10.08-35.93-21.95-1.26-2.22-4.84-7.31-7.68-4.37C870.82,1573.67,873.95,1580.94,875.37,1583.44Z"/><path class="cls-3" d="M723.52,1541c4.64,11.85-4.42,25.63-15.29,30.14-10.64,4.42-27.28,1.3-32.15-10.44s4.66-25.73,15.29-30.14c10.87-4.51,27-1.21,32.15,10.44,1,2.36,4.31,9,7.9,7.55s1.17-8.79.23-10.92c-6.35-14.44-19-27.91-35.91-27.83-15.16.07-27.65,10.89-30.91,25.56-3.71,16.7,3.29,36.27,16.17,47.39,11.24,9.71,28,12.76,40.65,3.67,15.77-11.37,16.57-32,10-48.78-.94-2.39-4.37-9-7.9-7.55S722.67,1538.81,723.52,1541Z"/><path class="cls-3" d="M924.72,1464.78c4.64,11.85-4.42,25.63-15.29,30.14-10.64,4.42-27.28,1.3-32.15-10.44s4.66-25.73,15.29-30.14c10.87-4.51,27-1.21,32.15,10.44,1,2.36,4.31,9,7.9,7.55s1.17-8.79.23-10.92c-6.35-14.44-19-27.91-35.91-27.83-15.16.07-27.65,10.89-30.91,25.56-3.71,16.7,3.29,36.27,16.17,47.39,11.24,9.71,28,12.76,40.65,3.67,15.77-11.37,16.57-32,10-48.78-.94-2.39-4.37-9-7.9-7.55S923.87,1462.6,924.72,1464.78Z"/><ellipse class="cls-3" cx="724.2" cy="1452.73" rx="15.9" ry="26.71" transform="translate(-374.37 257.73) rotate(-16.1)"/><ellipse class="cls-3" cx="815.59" cy="1414.77" rx="15.9" ry="26.71" transform="translate(-583.93 573.29) rotate(-29.02)"/><path class="cls-3" d="M621.74,1370.32c-14.76-7.43-30.77-11.38-47.26-8.65-13.24,2.19-25.07,8.74-35.19,17.36-10.6,9-19.87,20.31-23.75,33.9-4.26,14.93-1.8,30.86,3.5,45.18,9.23,24.93,29.51,45.45,57,48.06,26.67,2.53,54.19-14.77,58.84-42,3.18-18.62-1.52-38.71-9.8-55.49-1-2-7-8.85-8.26-3-2.21,10.33-5.45,21-10.72,30.23-5.07,8.86-16,19.54-27.3,17.48-4.84-.89-7.08-4.62-7.91-8.11.38,1.61-.2-2.39-.15-.89a5.05,5.05,0,0,1,.16-2,8.46,8.46,0,0,1,2.58-4.28c5.81-5.4,16.17-5.09,23.5-4.65a110.81,110.81,0,0,1,19.65,2.9c4.07,1,2.81-6.75,2.32-8.53-1-3.61-3.44-9.17-7.56-10.18a109.73,109.73,0,0,0-20.88-3c-9.27-.43-22.42-.23-28.21,8.48-3.54,5.32-3.08,12.31-1.79,18.25,2,9.11,6.24,18.83,13.21,25.23,11.47,10.54,26.15,4.1,35.72-5.56,10.31-10.4,15.09-27.2,18.08-41.21l-8.26-3c-2.42-4.91-.29-.51.21.72.4,1,.77,2,1.15,2.94,1,2.45-.35-1.28.12.3.25.86.56,1.7.82,2.56.47,1.55.89,3.11,1.3,4.67.14.54.66,2.87.31,1.18.23,1.11.44,2.23.62,3.34a52.26,52.26,0,0,1,.83,12c-.86,23.09-20.41,39.76-42.58,42.74a54.35,54.35,0,0,1-33.33-6.79,53.18,53.18,0,0,1-11.52-8.59c-3.62-3.59-4.77-5.5-7.1-10.17-4.53-9.07-6.94-20.13-4.81-30.7,2.51-12.45,10.23-22.58,19.21-31.22,9.26-8.91,20.67-15.79,33.23-18.81,15.88-3.81,32.14-.28,46.5,6.94,3.92,2,4.57-2.77,4.18-5.62-.53-3.93-2.83-10.08-6.71-12Z"/><path class="cls-3" d="M833,1305.2c2.54-14.08,7.94-27.29,18-37.67,8.11-8.35,18.72-13.89,29.84-17.08,10.87-3.12,23-4.62,34.18-2.62,12.8,2.29,23.55,9.77,31,20.29a61.89,61.89,0,0,1,4.08,6.74c.58,1.08.9,1.75,1.37,2.78.35.77.68,1.55,1,2.33.1.24.91,2.45.47,1.15a20.81,20.81,0,0,0,.59,2.16,6.47,6.47,0,0,1,.35,1.75,42.09,42.09,0,0,1,.62,6.26,54.69,54.69,0,0,1-8.5,30.45c-12.4,19.26-39.13,30.61-60.6,19.91a54,54,0,0,1-12.34-8.53,61.53,61.53,0,0,1-8.4-9.13c-1.19-1.54-2.31-3.12-3.42-4.72s-.52-.79-.26-.38c-.38-.63-.78-1.24-1.16-1.87-.68-1.14-1.36-2.28-2-3.47l-.28,13.44c10.94,4.19,22.55,7.84,34.19,9.27,12.2,1.49,28.89-2.52,33.62-15.41,3.27-8.91-.29-19.31-4.55-27.23-3.47-6.46-8.48-13.61-15.42-16.67-10.69-4.71-20.12,4.32-26.18,12.22A109,109,0,0,0,866,1312.59c-2.22,5.18,7.42,22,10.73,14.24-.18.43-.59,1.24.11-.22.57-1.19,1.12-2.38,1.71-3.55a121.85,121.85,0,0,1,6-10.7c4.3-6.78,10.36-16,18.82-17.81,7.06-1.54,14.37,6.07,11.18,12.38-5.08,10-19.86,11.85-29.63,10.42-11.07-1.63-22.06-5-32.5-9-5.71-2.19-.83,12.34-.28,13.44,6.82,13.5,17.81,26.24,30.46,34.48,22.82,14.88,52.67,8.07,69.56-12.77,17.21-21.23,16.76-51,5-74.47-6.77-13.48-16.74-26.18-30.07-33.66-12.89-7.23-27.17-8-41.51-6-14.13,2-27.67,7.18-38.72,16.34-13.79,11.44-21.39,27.83-24.52,45.24-.82,4.54,1,9.64,3.79,13.24,1.44,1.88,6.11,5.61,6.94,1Z"/><path class="cls-3" d="M611.84,1373.24c2.72,15-5.38,31.26-13.5,43.35-3.47,5.17,6.16,22,9.56,16.91,10.36-15.43,18.26-35,14.83-53.86-.73-4-2.67-10.14-6.71-12-3.89-1.81-4.73,2.62-4.18,5.62Z"/><path class="cls-3" d="M826.91,1292.62c11.1,17.31,33,28.88,53.83,25.29,5.18-.89-.94-19.63-7.67-18.47-7.06,1.21-14.74-.32-21.45-2.55s-15-6.27-18.91-12.44c-1.37-2.13-4.78-7.38-7.68-4.37-2.59,2.69.35,10.15,1.88,12.54Z"/><path class="cls-3" d="M468.56,721.11a5.61,5.61,0,0,1-.63-2.06c.4,1.75,0-2.33,0-.34,0,.6-.23,1.87.12-.81-.19,1.44-.46,2.87-.74,4.3-.36,1.84,0,.16.06-.18-.27,1.15-.57,2.3-.87,3.44-2,7.5-4.41,14.89-6.66,22.32-2.06,6.82-4.18,13.77-5.29,20.82-.88,5.61-2.16,14.53,2.88,18.69,6.29,5.19,17.47,2.17,24.95,2.68.32,0,.78.33,1.12.34l.57.46a7.11,7.11,0,0,1-1.55-6.35,8,8,0,0,1,.64-3.77c-.22.72-.82,1.92.32-.75-.33.77-.64,1.55-1,2.31-.26.55-1.89,3.68-1,2-6.77,12.39-15.26,24-23.88,35.15-3.84,5-7.79,9.84-12.06,14.44-1.66,1.79-3.36,3.56-5.19,5.17a24.13,24.13,0,0,1-2.33,1.9c1.29-.88-.73.23-1,.43-.58.5,0-.21.23.14.7,1.08-.55-1.71.63.59,0,0,.67,5.08.7,3.75-.07,3.42.07,1,.06.35,0,.38-.74,2.24-.09.59.28-.71.46-1.49.69-2.22q.26-.79.55-1.58-.51,1.37.09-.22c2.64-6.81,5.75-13.43,8.61-20.15s6-13.89,6.3-21.31c.37-8.4-3.87-11.41-11.15-14.06-6.49-2.36-13.79-3.66-19.73-7.3-.38-.23-1.09-1.12-1.48-1.21,2.19.53.69,7.29,0,9.63.48-1.67-1.26,2.35-.15.44.46-.8.82-1.7,1.23-2.52.19-.39.74-1.33-.21.39q.61-1.11,1.25-2.2c7.93-13.68,17.21-26.67,26.55-39.41,4-5.41,9.14-12.28,12.73-16.58a73.49,73.49,0,0,1,5-5.58,14.91,14.91,0,0,0,1.63-1.49c.44-.61-.67.13-.39.27.77.39-1.35-.4-1.54-.5,6.28,3.25,10.65-16,5.54-18.62-3.49-1.81-6.66,2.41-8.79,4.77-4.52,5-8.66,10.4-12.73,15.77C442.79,736,433.39,749.25,424.76,763c-5.42,8.62-18.45,28-5.74,35.92,7,4.35,15.5,5.66,23,8.66,1.22.49,2.45,1.41,3.66,1.82s.24.72.56.29-.59-5.92-.56-6.09c-.06.37.73-2.25.08-.34-.22.65-.41,1.32-.62,2-.54,1.68,0,.13-.24.68q-.55,1.43-1.13,2.85c-3.12,7.62-6.72,15-9.69,22.74-2.9,7.51-6.44,16.68-4.21,24.82,3.64,13.24,18.94-6.66,22.3-10.62,6.37-7.53,56.94-68.63,33.91-75.3-4.34-1.26-9.36-.14-13.79-.05a24.24,24.24,0,0,1-6.85-.55,13.12,13.12,0,0,1-2.54-1.1c-1.15-.57-.34-.35-.19.26s.53,2.64.31,1.11c-.06-.4,0,2.15.07.29,0-.42-.39,2.1,0,.1.17-.84.29-1.69.45-2.53s.51-2.3.1-.59c.2-.86.42-1.71.64-2.56.52-2,1.08-4,1.65-6,2.37-8.16,5.06-16.22,7.34-24.4,2.1-7.56,4.47-15.83,3.8-23.77-.23-2.76-.79-6.2-3-8.13C469.38,698.44,463.81,717,468.56,721.11Z"/><path class="cls-3" d="M599,1850.6A5.61,5.61,0,0,1,601,1850c-1.75.39,2.33,0,.34,0-.6,0-1.87-.24.81.13-1.44-.2-2.87-.47-4.29-.76-1.83-.37-.16,0,.18.06-1.15-.27-2.3-.58-3.44-.89-7.5-2-14.87-4.48-22.28-6.76-6.81-2.09-13.75-4.25-20.79-5.39-5.61-.91-14.52-2.23-18.7,2.8-5.22,6.27-2.25,17.46-2.8,24.94,0,.32-.33.77-.35,1.12l-.46.56a7.11,7.11,0,0,1,6.36-1.52,8,8,0,0,1,3.77.65c-.72-.22-1.91-.83.75.33-.77-.34-1.54-.65-2.3-1-.55-.26-3.67-1.91-2-1-12.36-6.82-23.93-15.37-35-24-4.94-3.86-9.8-7.84-14.38-12.12-1.78-1.67-3.54-3.37-5.15-5.21a24.13,24.13,0,0,1-1.89-2.34c.87,1.29-.23-.73-.42-1-.5-.58.21,0-.14.23-1.09.69,1.72-.55-.6.63,0,0-5.09.64-3.76.68-3.42-.09-1,.06-.35.06-.38,0-2.23-.75-.59-.1.71.28,1.49.46,2.21.7l1.58.55q-1.37-.51.22.09c6.8,2.67,13.4,5.81,20.11,8.7s13.86,6,21.28,6.39c8.39.41,11.43-3.82,14.11-11.08,2.39-6.48,3.72-13.77,7.39-19.7.23-.37,1.12-1.08,1.22-1.47-.54,2.19-7.3.66-9.63,0,1.67.49-2.34-1.27-.44-.16.8.46,1.69.83,2.52,1.24.39.2,1.33.75-.39-.22l2.2,1.26c13.64,8,26.59,17.33,39.29,26.73,5.39,4,12.24,9.2,16.52,12.8a73.49,73.49,0,0,1,5.56,5,14.91,14.91,0,0,0,1.48,1.64c.61.45-.12-.67-.26-.39-.4.77.4-1.35.51-1.54-3.28,6.26,15.93,10.73,18.59,5.63,1.82-3.48-2.38-6.67-4.73-8.81-5-4.54-10.36-8.7-15.72-12.8-12.87-9.85-26.12-19.31-39.81-28-8.59-5.46-27.87-18.58-35.89-5.9-4.39,6.93-5.74,15.48-8.76,23-.49,1.22-1.43,2.44-1.84,3.65s-.72.24-.29.56,5.92-.56,6.09-.53c-.37-.06,2.25.74.34.08-.65-.22-1.32-.41-2-.63-1.68-.54-.13,0-.68-.24q-1.43-.56-2.84-1.15c-7.61-3.16-15-6.79-22.69-9.79-7.49-2.93-16.65-6.52-24.8-4.32-13.26,3.58,6.57,19,10.52,22.34,7.5,6.4,68.36,57.26,75.15,34.26,1.28-4.34.18-9.36.12-13.79a24.24,24.24,0,0,1,.58-6.84,13.12,13.12,0,0,1,1.11-2.53c.58-1.15.35-.33-.26-.19s-2.64.52-1.11.31c.4-.06-2.15,0-.29.07.42,0-2.1-.4-.1,0,.84.17,1.68.3,2.52.46s2.29.52.59.11c.85.21,1.71.43,2.56.65,2,.53,4,1.1,5.94,1.68,8.14,2.41,16.19,5.13,24.37,7.45,7.56,2.14,15.81,4.55,23.76,3.91,2.76-.22,6.21-.76,8.14-3C621.62,1851.52,603,1845.87,599,1850.6Z"/><path class="cls-3" d="M1883.77,1917.1a5.61,5.61,0,0,1-.49-2.09c.29,1.77.16-2.33,0-.34,0,.6-.35,1.85.17-.8-.28,1.43-.64,2.83-1,4.24-.48,1.81,0,.16.07-.18-.34,1.13-.72,2.26-1.09,3.38-2.47,7.36-5.37,14.57-8.1,21.84-2.5,6.67-5.07,13.46-6.63,20.43-1.25,5.54-3.1,14.35,1.66,18.84,5.94,5.59,17.29,3.3,24.72,4.3.32,0,.75.38,1.1.42l.54.49a7.11,7.11,0,0,1-1.13-6.44,8,8,0,0,1,.88-3.72c-.26.71-.95,1.86.37-.73-.38.75-.74,1.5-1.15,2.24-.29.53-2.13,3.55-1.11,1.94-7.56,11.93-16.79,23-26.11,33.52-4.15,4.7-8.41,9.31-13,13.62-1.77,1.68-3.58,3.33-5.51,4.83a24.13,24.13,0,0,1-2.45,1.74c1.34-.79-.75.18-1,.36-.61.47,0-.21.22.16.62,1.13-.44-1.75.59.63,0,0,.34,5.11.45,3.79-.29,3.41,0,1,0,.35,0,.38-.88,2.18-.13.58.32-.69.55-1.46.83-2.17q.32-.77.65-1.54-.6,1.33.11-.21c3.07-6.63,6.61-13,9.9-19.55s6.86-13.47,7.67-20.85c.92-8.35-3.12-11.64-10.21-14.75-6.33-2.78-13.52-4.55-19.21-8.57-.36-.25-1-1.19-1.4-1.31,2.15.67.21,7.32-.6,9.61.59-1.64-1.41,2.26-.18.42.51-.77.93-1.64,1.39-2.44.22-.37.83-1.28-.24.37q.69-1.07,1.39-2.12c8.8-13.14,18.9-25.5,29.06-37.6,4.31-5.14,9.92-11.66,13.78-15.71a73.49,73.49,0,0,1,5.33-5.24,14.91,14.91,0,0,0,1.72-1.38c.48-.58-.67.08-.41.24.74.44-1.32-.48-1.51-.6,6.05,3.65,11.67-15.25,6.74-18.22-3.37-2-6.81,2-9.08,4.19-4.84,4.71-9.31,9.81-13.73,14.91-10.61,12.25-20.86,24.91-30.36,38-6,8.25-20.23,26.7-8.06,35.47,6.66,4.8,15.1,6.66,22.43,10.14,1.19.56,2.35,1.57,3.53,2.06s.19.74.54.32-.2-5.95-.16-6.11c-.08.36.87-2.2.1-.34-.26.64-.49,1.29-.75,1.93-.65,1.64,0,.13-.28.67q-.65,1.39-1.32,2.77c-3.61,7.41-7.69,14.58-11.15,22.06-3.38,7.3-7.51,16.23-5.81,24.49,2.77,13.45,19.34-5.41,22.94-9.15,6.84-7.1,61.28-64.78,38.73-72.94-4.25-1.54-9.33-.74-13.76-.95a24.24,24.24,0,0,1-6.8-1,13.12,13.12,0,0,1-2.46-1.26c-1.11-.65-.31-.37-.21.24s.36,2.67.24,1.13c0-.4-.11,2.15,0,.29,0-.42-.53,2.07,0,.1.22-.83.4-1.66.61-2.49s.66-2.26.14-.58c.26-.84.53-1.68.81-2.51.65-2,1.34-3.9,2-5.83,2.9-8,6.1-15.85,8.91-23.87,2.59-7.41,5.49-15.51,5.34-23.48-.05-2.77-.38-6.24-2.49-8.31C1886.06,1894.53,1879.3,1912.73,1883.77,1917.1Z"/><path class="cls-3" d="M1169.41,262.63c-.26-.16-.5-.81-1-1.92.69,1.66-.39-2.3-.08-.33.09.59.08,1.88,0-.81.05,1.46,0,2.9,0,4.36,0,1.87,0,.16,0-.19-.07,1.18-.17,2.36-.28,3.54-.7,7.73-1.85,15.42-2.82,23.12-.89,7.07-1.81,14.27-1.72,21.41.07,5.68.3,14.68,6,17.94,7.08,4.06,17.59-.79,25-1.54.32,0,.82.19,1.16.15l.63.35a7.11,7.11,0,0,1-2.59-6,8,8,0,0,1,0-3.83c-.09.75-.49,2,.19-.8-.2.82-.37,1.63-.6,2.44-.16.58-1.25,3.94-.63,2.14-4.59,13.35-11,26.22-17.64,38.66-2.95,5.53-6,11-9.46,16.25-1.34,2-2.71,4.07-4.24,6a24.13,24.13,0,0,1-2,2.26c1.12-1.08-.68.35-.87.58-.48.59,0-.21.25.1.87,1-.83-1.6.72.48,0,0,1.51,4.9,1.32,3.58.5,3.38.23.93.12.34.07.37-.35,2.33,0,.59.15-.75.2-1.55.3-2.3q.13-.83.27-1.65-.27,1.44.05-.23c1.46-7.16,3.42-14.2,5.1-21.31s3.55-14.7,2.63-22.06c-1-8.34-5.73-10.6-13.35-12-6.8-1.24-14.21-1.29-20.68-3.88-.41-.16-1.26-.92-1.66-.95,2.25.16,1.9,7.08,1.64,9.49.19-1.73-.85,2.53-.08.46.32-.86.52-1.81.79-2.7.13-.41.51-1.44-.15.42q.42-1.2.86-2.38c5.52-14.82,12.49-29.18,19.56-43.31,3-6,7-13.64,9.77-18.48a73.49,73.49,0,0,1,4-6.34,14.91,14.91,0,0,0,1.36-1.74c.34-.68-.64.24-.34.33.82.26-1.4-.17-1.61-.23,6.73,2.15,7.82-17.54,2.34-19.29-3.75-1.19-6.16,3.5-7.87,6.18-3.61,5.7-6.79,11.7-9.9,17.69-7.48,14.38-14.52,29.06-20.73,44-3.9,9.4-13.5,30.66.37,36.37,7.59,3.13,16.23,3,24.17,4.67,1.29.27,2.65,1,3.91,1.18s.36.67.6.19-1.57-5.74-1.57-5.91c0,.37.34-2.34,0-.35-.11.68-.18,1.37-.28,2.05-.25,1.74,0,.13-.12.71q-.31,1.5-.64,3c-1.8,8-4.1,16-5.74,24-1.6,7.89-3.55,17.53,0,25.17,5.81,12.44,17.56-9.74,20.2-14.21,5-8.49,44.62-77.21,20.79-79.93-4.49-.51-9.25,1.44-13.6,2.26a24.24,24.24,0,0,1-6.84.61,13.12,13.12,0,0,1-2.68-.66c-1.23-.37-.39-.28-.14.28s1,2.51.49,1c-.12-.38.39,2.12.11.27-.06-.42,0,2.14,0,.09,0-.85,0-1.71,0-2.56s.12-2.35,0-.6c.06-.88.13-1.76.2-2.63.18-2.05.4-4.1.63-6.14,1-8.44,2.26-16.84,3.13-25.29.8-7.81,1.75-16.36-.25-24.07-.69-2.68-1.82-6-4.35-7.5C1166.42,240.15,1164.05,259.42,1169.41,262.63Z"/><path class="cls-3" d="M1264,1120.74c-.3-.05-.75-.58-1.58-1.46,1.23,1.31-1.17-2-.19-.28.29.52.74,1.73-.3-.76.56,1.34,1,2.71,1.52,4.09.61,1.77.06.15,0-.19.35,1.13.67,2.27,1,3.41,2.06,7.48,3.68,15.09,5.48,22.63,1.65,6.93,3.31,14,5.9,20.65,2.06,5.29,5.44,13.64,11.9,14.7,8.05,1.32,16.19-6.92,22.91-10.24.29-.14.84-.11,1.14-.27l.72.11a7.11,7.11,0,0,1-4.53-4.71,8,8,0,0,1-1.35-3.58c.18.73.25,2.07-.1-.81.1.83.22,1.66.3,2.5.05.6.21,4.13.16,2.23.39,14.11-1.11,28.42-2.95,42.39-.82,6.22-1.78,12.42-3.15,18.54-.53,2.38-1.11,4.76-1.88,7.08a24.13,24.13,0,0,1-1.06,2.81c.67-1.41-.52.57-.61.85-.24.73-.1-.19.27,0,1.15.59-1.34-1.2.84.2,0,0,3.13,4.06,2.49,2.89,1.66,3,.54.79.23.27.2.33.49,2.3.21.55-.12-.75-.36-1.52-.52-2.26q-.17-.82-.32-1.64.25,1.44,0-.23c-1.15-7.21-1.79-14.5-2.7-21.74s-1.83-15-5.28-21.58c-3.91-7.44-9.09-7.91-16.71-6.54-6.8,1.23-13.76,3.78-20.72,3.62-.44,0-1.51-.42-1.89-.3,2.16-.64,4.27,6,4.86,8.31-.43-1.69.1,2.66.09.45,0-.92-.15-1.88-.21-2.8,0-.43,0-1.52,0,.44q0-1.27,0-2.53c0-15.81,1.45-31.71,3.11-47.42.71-6.67,1.72-15.21,2.66-20.73a73.49,73.49,0,0,1,1.5-7.33,14.91,14.91,0,0,0,.66-2.11c.08-.75-.51.45-.21.43.86,0-1.36.33-1.59.35,7.06-.35,1.17-19.17-4.58-18.88-3.93.2-4.54,5.44-5.2,8.55-1.38,6.61-2.25,13.34-3.06,20-2,16.09-3.39,32.31-3.95,48.51-.35,10.17-1.88,33.45,13.12,33.93,8.2.26,16.25-2.91,24.27-4.12,1.3-.2,2.83,0,4.08-.27s.57.5.63,0-3.49-4.82-3.55-5c.13.35-.51-2.31-.11-.34.14.67.31,1.35.46,2,.38,1.72,0,.12.14.71q.24,1.51.45,3c1.14,8.16,1.77,16.39,3.07,24.53,1.27,7.94,2.83,17.66,8.85,23.56,9.81,9.61,13-15.29,13.92-20.4,1.71-9.71,14.67-88-8.59-82.14-4.39,1.1-8.15,4.59-11.94,6.89a24.24,24.24,0,0,1-6.19,3,13.12,13.12,0,0,1-2.74.33c-1.28.08-.46-.13,0,.32s1.79,2,.83.8c-.25-.32,1.11,1.85.2.21-.2-.37.72,2,.05.08-.28-.81-.6-1.6-.88-2.41s-.71-2.24-.21-.56c-.25-.84-.5-1.69-.73-2.54-.55-2-1.07-4-1.57-6-2.06-8.24-3.79-16.56-5.94-24.78-2-7.6-4.1-15.93-8.68-22.46-1.59-2.27-3.8-5-6.71-5.5C1253.26,1100.74,1257.81,1119.61,1264,1120.74Z"/><path class="cls-3" d="M1012,782.1c-.22-24.27-10.8-48-29.62-63.54a84.22,84.22,0,0,0-68.46-18.1c-50.11,8.73-81.19,64.16-62.41,111.48a84.09,84.09,0,0,0,60.14,51.37,7.62,7.62,0,0,0,9.49-7.23l1.7-25.59,1.06-15.9c.07-1.11.24-2.26.22-3.37-.07-4.12-2.68-5.37-4.64-8.46-4.1-6.49-.26-15.6,7.38-17a11.3,11.3,0,0,1,13.29,11c0,4.89-3.2,6.49-5.35,10.26a9.07,9.07,0,0,0-.92,5.32c.14,4.41.59,8.84.88,13.24l2,30.44a7.62,7.62,0,0,0,9.49,7.23c38.09-8.22,65.35-42.41,65.71-81.21.09-9.65-14.91-9.66-15,0a68.91,68.91,0,0,1-54.7,66.74l9.49,7.23-3-45.22-2.2,5.3c16.9-16,6-45.48-17.62-45.54s-34.45,29.62-17.62,45.54l-2.2-5.3-3,45.22,9.49-7.23a69.21,69.21,0,0,1-47-35.32,68.26,68.26,0,0,1-1.82-59.15c17.29-38,65.42-51.89,100.23-28.7,18.8,12.52,29.79,34,30,56.43C997.08,791.75,1012.08,791.77,1012,782.1Z"/><path class="cls-3" d="M853.64,790.05c-6.74,12.2-16.41-12-9.49-27,16.62-36,151.92-38,167.92,0,6.21,14.75-3.86,35.39-8.31,24.3C991,755.48,873.11,754.82,853.64,790.05Z"/><path class="cls-3" d="M275.83,1288.75c-9.7-22.25-28.71-39.93-52.11-46.89A84.22,84.22,0,0,0,153.63,1252c-42.7,27.63-49.63,90.81-13.84,127a84.09,84.09,0,0,0,75.44,23.75,7.62,7.62,0,0,0,5.91-10.37l-8.44-24.22-5.24-15c-.37-1-.66-2.18-1.11-3.19-1.68-3.76-4.57-3.89-7.58-6-6.31-4.36-6.34-14.26.16-18.49a11.3,11.3,0,0,1,16.54,4.93c1.9,4.5-.41,7.22-.91,11.54a9.07,9.07,0,0,0,1.23,5.26c1.86,4,4,7.9,6,11.84l13.77,27.22a7.62,7.62,0,0,0,11.57,2.94c31.84-22.46,43.56-64.59,28.72-100.44-3.69-8.92-17.5-3.06-13.81,5.87a68.91,68.91,0,0,1-24.24,82.82l11.57,2.94-20.45-40.44.05,5.74c9.3-21.33-12.22-44.22-34-35s-20.11,40.74,1.59,48.81l-4.1-4,14.92,42.79,5.91-10.37a69.21,69.21,0,0,1-57.1-14.11A68.26,68.26,0,0,1,131.33,1320c1-41.78,39.91-73.34,81-65.61,22.2,4.17,40.72,19.64,49.68,40.2C265.88,1303.46,279.7,1297.62,275.83,1288.75Z"/><path class="cls-3" d="M133.2,1358c-1.43,13.87-19.79-4.62-19.29-21.11,1.21-39.65,125-94.4,154.54-65.68,11.48,11.14,10.29,34.08,1.86,25.61C246.06,1272.47,137.35,1318,133.2,1358Z"/><path class="cls-3" d="M1591.06,418.65c23.06,7.59,48.9,5.17,69.68-7.65a84.22,84.22,0,0,0,39.13-59c7.82-50.26-34.69-97.5-85.53-94.91a84.09,84.09,0,0,0-68,40.46,7.62,7.62,0,0,0,3.8,11.31l23.69,9.83,14.72,6.11c1,.43,2.06,1,3.12,1.3,3.92,1.25,5.94-.82,9.5-1.68,7.46-1.8,14.86,4.76,13.68,12.43a11.3,11.3,0,0,1-14.69,9.06c-4.63-1.58-5.11-5.11-8-8.36a9.07,9.07,0,0,0-4.74-2.58c-4.22-1.28-8.56-2.28-12.82-3.42l-29.48-7.86a7.62,7.62,0,0,0-9.9,6.67c-4.45,38.71,19.18,75.51,55.81,88.31,9.11,3.19,13.94-11,4.82-14.21a68.91,68.91,0,0,1-45.64-73.24l-9.9,6.67,43.79,11.67-4.32-3.78c9.72,21.14,41.13,20.33,48.79-2.06s-17-42.13-37.47-31.31l5.73-.38L1555,294.64l3.8,11.31a69.21,69.21,0,0,1,48.55-33.2A68.26,68.26,0,0,1,1664,290c30.48,28.59,28.13,78.62-5,104.13-17.9,13.78-41.77,17.29-63.07,10.28C1586.71,401.43,1581.87,415.63,1591.06,418.65Z"/><path class="cls-3" d="M1634.38,266.13c-9.39-10.3,16.62-11.69,28.59-.33,28.78,27.31-12.79,156.08-53.92,159-16,1.14-32.28-15-20.35-15.67C1623,407.28,1661.5,295.89,1634.38,266.13Z"/><path class="cls-3" d="M1360.29,1861.37c7.31-23.15,4.59-49-8.48-69.59a84.22,84.22,0,0,0-59.49-38.42c-50.35-7.22-97.07,35.86-93.87,86.67a84.09,84.09,0,0,0,41.27,67.47,7.62,7.62,0,0,0,11.27-3.94l9.55-23.81,5.93-14.79c.41-1,.93-2.07,1.26-3.14,1.21-3.94-.89-5.93-1.79-9.48-1.89-7.44,4.59-14.91,12.27-13.83a11.3,11.3,0,0,1,9.23,14.58c-1.52,4.64-5.05,5.18-8.26,8.1a9.07,9.07,0,0,0-2.52,4.77c-1.23,4.24-2.18,8.58-3.26,12.86l-7.5,29.57a7.62,7.62,0,0,0,6.79,9.82c38.76,4,75.27-20.08,87.64-56.86,3.08-9.15-11.18-13.81-14.26-4.65a68.91,68.91,0,0,1-72.68,46.52l6.79,9.82,11.15-43.93-3.73,4.36c21-10,19.83-41.37-2.65-48.76s-41.93,17.5-30.86,37.85l-.45-5.72-16.87,42.06L1248,1895a69.21,69.21,0,0,1-33.78-48.15A68.26,68.26,0,0,1,1230.8,1790c28.22-30.82,78.28-29.07,104.19,3.76,14,17.73,17.79,41.56,11,62.95C1343.12,1865.93,1357.38,1870.6,1360.29,1861.37Z"/><path class="cls-3" d="M1207.26,1819.88c-10.19,9.51-11.89-16.48-.67-28.58,27-29.1,156.22,10.92,159.66,52,1.33,15.94-14.63,32.46-15.43,20.53C1348.54,1829.55,1236.69,1792.41,1207.26,1819.88Z"/><path class="cls-3" d="M1911.57,1428.52c-20.15-13.53-45.69-18.19-69.16-11.46a84.22,84.22,0,0,0-53.62,46.26c-21.11,46.28,7.07,103.24,56.72,114.48a84.09,84.09,0,0,0,76.36-20.6,7.62,7.62,0,0,0-.6-11.92l-20.16-15.86-12.52-9.85c-.87-.69-1.73-1.48-2.66-2.09-3.44-2.27-5.94-.82-9.6-1-7.67-.28-13-8.6-9.82-15.67a11.3,11.3,0,0,1,16.59-4.75c4,2.77,3.54,6.3,5.45,10.21a9.07,9.07,0,0,0,3.87,3.77c3.72,2.38,7.62,4.51,11.42,6.75l26.26,15.53a7.62,7.62,0,0,0,11.33-3.75c14.74-36.07,1.93-77.88-29.88-100.1-7.92-5.53-16.4,6.84-8.47,12.38a68.91,68.91,0,0,1,24.17,82.84l11.33-3.75-39-23.07,3.13,4.81c-3.65-23-34.11-30.68-47.54-11.19s5,45.16,27.62,40.27l-5.62-1.18,35.61,28-.6-11.92a69.21,69.21,0,0,1-55.72,18.85,68.26,68.26,0,0,1-49.84-31.92c-21.63-35.76-5.85-83.29,32.95-98.91,21-8.43,44.89-5.37,63.51,7.13C1911.1,1446.27,1919.6,1433.91,1911.57,1428.52Z"/><path class="cls-3" d="M1828.66,1563.66c6.26,12.46-19.16,6.76-27.62-7.4-20.33-34.06,54.47-146.83,94.87-138.55,15.67,3.21,27,23.18,15.36,20.59C1877.72,1430.83,1810.59,1527.69,1828.66,1563.66Z"/><path class="cls-3" d="M1883.77-82.9a5.61,5.61,0,0,1-.49-2.09c.29,1.77.16-2.33,0-.34,0,.6-.35,1.85.17-.8-.28,1.43-.64,2.83-1,4.24-.48,1.81,0,.16.07-.18-.34,1.13-.72,2.26-1.09,3.38-2.47,7.36-5.37,14.57-8.1,21.84-2.5,6.67-5.07,13.46-6.63,20.43-1.25,5.54-3.1,14.35,1.66,18.84,5.94,5.59,17.29,3.3,24.72,4.3.32,0,.75.38,1.1.42l.54.49a7.11,7.11,0,0,1-1.13-6.44,8,8,0,0,1,.88-3.72c-.26.71-.95,1.86.37-.73-.38.75-.74,1.5-1.15,2.24-.29.53-2.13,3.55-1.11,1.94-7.56,11.93-16.79,23-26.11,33.52-4.15,4.7-8.41,9.31-13,13.62-1.77,1.68-3.58,3.33-5.51,4.83a24.13,24.13,0,0,1-2.45,1.74c1.34-.79-.75.18-1,.36-.61.47,0-.21.22.16.62,1.13-.44-1.75.59.63,0,0,.34,5.11.45,3.79-.29,3.41,0,1,0,.35,0,.38-.88,2.18-.13.58.32-.69.55-1.46.83-2.17q.32-.77.65-1.54-.6,1.33.11-.21c3.07-6.63,6.61-13,9.9-19.55s6.86-13.47,7.67-20.85c.92-8.35-3.12-11.64-10.21-14.75-6.33-2.78-13.52-4.55-19.21-8.57-.36-.25-1-1.19-1.4-1.31,2.15.67.21,7.32-.6,9.61.59-1.64-1.41,2.26-.18.42.51-.77.93-1.64,1.39-2.44.22-.37.83-1.28-.24.37q.69-1.07,1.39-2.12c8.8-13.14,18.9-25.5,29.06-37.6,4.31-5.14,9.92-11.66,13.78-15.71a73.49,73.49,0,0,1,5.33-5.24,14.91,14.91,0,0,0,1.72-1.38c.48-.58-.67.08-.41.24.74.44-1.32-.48-1.51-.6,6.05,3.65,11.67-15.25,6.74-18.22-3.37-2-6.81,2-9.08,4.19-4.84,4.71-9.31,9.81-13.73,14.91-10.61,12.25-20.86,24.91-30.36,38-6,8.25-20.23,26.7-8.06,35.47,6.66,4.8,15.1,6.66,22.43,10.14,1.19.56,2.35,1.57,3.53,2.06s.19.74.54.32-.2-5.95-.16-6.11c-.08.36.87-2.2.1-.34-.26.64-.49,1.29-.75,1.93-.65,1.64,0,.13-.28.67q-.65,1.39-1.32,2.77c-3.61,7.41-7.69,14.58-11.15,22.06-3.38,7.3-7.51,16.23-5.81,24.49,2.77,13.45,19.34-5.41,22.94-9.15,6.84-7.1,61.28-64.78,38.73-72.94-4.25-1.54-9.33-.74-13.76-.95a24.24,24.24,0,0,1-6.8-1,13.12,13.12,0,0,1-2.46-1.26c-1.11-.65-.31-.37-.21.24s.36,2.67.24,1.13c0-.4-.11,2.15,0,.29,0-.42-.53,2.07,0,.1.22-.83.4-1.66.61-2.49s.66-2.26.14-.58c.26-.84.53-1.68.81-2.51.65-2,1.34-3.9,2-5.83,2.9-8,6.1-15.85,8.91-23.87,2.59-7.41,5.49-15.51,5.34-23.48-.05-2.77-.38-6.24-2.49-8.31C1886.06-105.47,1879.3-87.27,1883.77-82.9Z"/></g></g></svg>