<svg xmlns="http://www.w3.org/2000/svg" xmlns:xlink="http://www.w3.org/1999/xlink" viewBox="0 0 500 500"><defs><style>.cls-1{fill:none;}.cls-2{clip-path:url(#clip-path);}.cls-3{fill:#3a1213;}</style><clipPath id="clip-path"><rect class="cls-1" width="500" height="500"/></clipPath></defs><title>画板 2</title><g id="图层_2" data-name="图层 2"><g class="cls-2"><path class="cls-3" d="M46.06,67.33c-1.29-5,1.46-12,3-16.64,1.06-3.12,3.52-12.31,7.41-13.21C62.25,36.16,67,55.4,68.09,59.34c.07.26.32,1.08.76,1,8.42-1.66,18-.49,25.08,4.64a.42.42,0,0,0,.47,0,203.56,203.56,0,0,1,25.43-13.92,27.61,27.61,0,0,1,7-2.43c3.21-.44,3.12,1.58,2.53,4.43a46.66,46.66,0,0,1-11.52,21.8c-.71.73-.72,3.42.44,3.73,5.81,1.54,14.5,9.89,15,16.19l.85-2.53c-4.23-.19-10.16-.29-13.28,3-.66.71-.71,3.1.21,3.66,4.89,3,7.4,9.24,8.78,14.58l1-2.94c-3.62-1.43-8.24-3-12-1.46-.94.39-.74,2.67-.39,3.34,2.23,4.34,6.51,13.17,0,16-2.95,1.3-5.59-.58-8.19-1.86-10.18-5-21.22-10.42-32.83-10.29s-21.1,6.35-31.95,9.47c-2.44.7-13.32,4.56-15.16,1.39-.9-1.56,1.75-6.25,2.5-7.85a21.73,21.73,0,0,1,4-6.3c.7-.69.69-3.09-.21-3.66a12.46,12.46,0,0,0-9.15-1.83l.88,2c.2-5.4,3.36-10.71,6.72-14.77a3.14,3.14,0,0,0-.21-3.66A15,15,0,0,0,22.7,87.93l.85,2.53c.35-2.29,6.27-7.68,8.46-9.84,4-3.91,8.37-8.11,13.53-10.35,1.09-.47.78-4.4-.47-3.86-5.87,2.55-10.81,7.52-15.22,12-2.79,2.86-7.36,6.73-8,10.95-.06.39-.06,2.66.85,2.53,4.22-.6,8.52.19,11.77,3.06l-.21-3.66c-4.23,5.12-7.34,11.51-7.59,18.22,0,.38.16,2.14.88,2a11.81,11.81,0,0,1,8.68,1.68L36,109.58c-3.63,3.63-10.3,15.67-6.67,20.87,2.22,3.17,8.31,1.3,11.33.62a82.48,82.48,0,0,0,14.84-4.9c6-2.64,12.11-5.06,18.73-5.67,7.33-.68,14.39,1,21.23,3.53,5.38,2,10.51,4.57,15.67,7.08,2.34,1.14,4.43,2.37,7.07,1.51,9.53-3.11,4.48-17.25,1.52-23l-.39,3.34c3.36-1.39,7.88.21,11.07,1.46,1.25.49,1.15-2.35,1-2.94-1.54-6-4.34-13.08-9.83-16.41l.21,3.66c2.71-2.88,8.69-2.65,12.39-2.48.94,0,.89-2.07.85-2.53-.67-7.75-9.44-17.19-16.74-19.13l.44,3.73c5.17-5.32,8.79-12.56,11.09-19.55,1-3.15,3.56-10.88.17-13.64-2.59-2.09-8.21,1-10.65,2.07a175,175,0,0,0-17.07,8.93q-3,1.74-6,3.54c-2.2,1.33-1.75,1.59-3.87.12-3.45-2.39-8.49-3.45-12.57-3.93a34.75,34.75,0,0,0-7.12-.11c-.17,0-4.33.72-3.14,1.53-.13-.09-.11-.63-.21-.74-1.1-1.11-1.54-4.94-2.06-6.44a82,82,0,0,0-3.74-9.32c-1.32-2.7-4-8.83-7.95-6.94C50.73,36.21,48.37,46,47,50.6,45.21,56.25,43,63.4,44.54,69.35,45.18,71.85,46.39,68.61,46.06,67.33Z"/><path class="cls-3" d="M80,116.38c-11.46-.34-20.25,4.61-30.7,8.26-.72.25-.66,1.95-.61,2.46.21,2.24.17,6.92,2.3,8.47,1.49,1.08,3.78.26,5.36-.18,7.63-2.09,14.95-6.19,23-6.68s14.53,4.71,21.95,7c5.92,1.8,5.72-4.77,5.65-9.1,0-.51-.07-1.65-.65-1.93-8.31-3.94-17-7.57-26.27-8.27-1.17-.09-1.29,3.9,0,4,9.12.69,17.62,4.25,25.8,8.13l-.65-1.93c.09,5.5-.8,6.31-5.14,4.6-2.16-.85-4.23-1.92-6.35-2.85-4.92-2.17-10-4.1-15.5-3.49-5.28.58-10.44,2.64-15.41,4.4A59.21,59.21,0,0,1,55,131.75c-4,.82-4.25-1.89-4.6-5.72l-.61,2.46C60,124.92,68.78,120,80,120.38,81.24,120.41,81.3,116.41,80,116.38Z"/><ellipse class="cls-3" cx="64.24" cy="79.3" rx="5.59" ry="9.53"/><path class="cls-3" d="M64.62,97.25a6.15,6.15,0,0,0,4.62,3.2,11.65,11.65,0,0,0,5.26-.21c1.31-.35,3-1.76,4.25-1.69,2.69.16,4.21,2.79,7.52,2.09,2.89-.62,4.62-2.87,6-5.29.56-1-.18-4.71-1.24-2.83C88.26,97.4,83.25,98,79.31,94.11c-.16-.16-.43-.41-.68-.2-2.75,2.3-10.38,4.93-12.77.51-1-1.9-1.79,1.82-1.24,2.83Z"/><ellipse class="cls-3" cx="93.64" cy="80.98" rx="9.53" ry="5.59" transform="translate(-4.09 156.97) rotate(-78.72)"/><path class="cls-3" d="M255.51,434.9c-4.24-2.24-7.24-7.46-9.67-11.39-1.45-2.35-8.66-13.09-6.46-15.94s11.85,1.71,14,2.53c3.44,1.34,6.83,2.84,10.13,4.5a.51.51,0,0,0,.68-.2c4.34-7.23,11.64-13.55,20.07-15.29.63-.13.75-.95.85-1.47,1.72-9.41,3.83-20,7.29-29.32.59-1.58,1.38-4.67,2.86-5.7,2.18-1.52,4.19,1,5.52,2.75a45.33,45.33,0,0,1,8.89,23.51c0,.4.39,1.84,1.08,1.4,5.5-3.57,17.88-4,23.29.12l-.21-3.66c-3.61,3.64-7.38,8.21-7,13.61,0,.27.3,1.63.85,1.47,5.81-1.68,12.33.75,17.49,3.47v-3.86c-3.52,1.73-7.83,4.18-9.23,8.07-.31.86-.6,3.09.62,3.41,3.68,1,14.1,4,13.5,9.63-.29,2.71-3.37,3.53-5.45,4.36-10,4-20.69,8-28.67,15.51-9,8.5-10.94,19.59-15.88,30.32-1.35,2.94-5.81,14.78-10.12,14.26-4.12-.5-7.72-11.4-7.88-14.73,0-.33-.16-2.2-.88-2a13.13,13.13,0,0,0-4.34,2c-.61.44-2.64,2.9-3.34,2.88-1.15,0-3.1-4.63-3.5-5.46a30.83,30.83,0,0,1-2.66-8.92c-.05-.35-.26-1.54-.85-1.47-3.32.39-7.09,2-9.14,4.83-1.26,1.71-.87,2.54-1.46.34a30.12,30.12,0,0,1-.65-4.25c-.79-6.88-1.58-15.3.7-22,.35-1-.58-4.79-1.24-2.83-2.13,6.27-2,13.34-1.63,19.87.21,4-.16,11.17,2.58,14.52a.51.51,0,0,0,.89,0c2.38-3.46,5.7-6,10-6.5l-.85-1.47c.9,6.29,3.17,13,7.8,17.58.27.27.63.42.89,0a11.43,11.43,0,0,1,6.85-5.14l-.88-2c.2,4.28,4.38,19.86,10.48,18.59,4.08-.85,7-8.27,8.69-11.52,2.54-5,4.2-10.16,6.12-15.41,5.25-14.38,15.3-22.72,28.91-28.82,4.21-1.89,8.69-3.27,12.85-5.26a7,7,0,0,0,4-4.49c3.06-9.56-7.39-14.45-14.81-16.44l.62,3.41c1.21-3.36,5.39-5.53,8.45-7,1-.47.92-3.37,0-3.86-5.24-2.75-12.07-5.31-18-3.61l.85,1.47c-.21-2.94,4.23-7.12,6.19-9.09a3.11,3.11,0,0,0-.21-3.66c-5.75-4.42-18.36-3.93-24.23-.12l1.08,1.4a51.06,51.06,0,0,0-9.11-25.1c-3-4.25-6.5-6.6-9.36-1.25-5.56,10.4-7.38,23.6-9.48,35.1l.85-1.47A31.43,31.43,0,0,0,269,403.69c-.79.77-1.56,1.56-2.27,2.39-.39.46-2.86,4.65-2.83,4.64-.44.14-2.29-1.1-2.68-1.29A104.93,104.93,0,0,0,250,404.84c-2.84-.94-7.14-2.7-10.13-1.54-10.42,4,9.74,32.56,15.22,35.45C256.18,439.36,256.6,435.48,255.51,434.9Z"/><path class="cls-3" d="M315.22,443.06c-8,8.27-10.27,18.16-14.61,28.36-.38.9-.5,2.67.39,3.34,2,1.47,5.15,4.62,7.76,3.08,1.67-1,2.73-4,3.48-5.62,3.39-7.38,5.63-16.88,12.17-22.21,5.4-4.4,12.87-5.23,18.22-9.43,4.71-3.69.05-8.63-3.15-11.47a.42.42,0,0,0-.47,0c-8.43,3.46-16.89,7.41-23.58,13.75-.92.87-.29,4.57.47,3.86A54.92,54.92,0,0,1,328,438.27c2.06-1.1,4.16-2.11,6.28-3.07,3-1.35,5.1-2.46,7.67.62.88,1.06,1-.1.24.91a5.41,5.41,0,0,1-1.64,1c-1.28.7-2.66,1.24-4,1.81a69.86,69.86,0,0,0-10.16,4.95c-6.08,3.87-9.05,10.12-11.82,16.55-1.4,3.26-2.62,6.62-4.21,9.79-.45.89-1.31,3.1-2.44,3.47-2,.66-5.07-2.33-6.43-3.35l.39,3.34c4.23-10,6.45-19.65,14.25-27.74C316.9,445.7,316.38,441.86,315.22,443.06Z"/><ellipse class="cls-3" cx="276.13" cy="430.18" rx="5.59" ry="9.53" transform="translate(-227.93 345.15) rotate(-47.73)"/><path class="cls-3" d="M289,442.57c6.25,1.66,9.89-7.35,10-12.08l-.88,2c7.92-.35,10.08-7.51,7.81-14.15-.67-2-1.6,1.79-1.24,2.83,1.75,5.11-2.67,7.16-6.56,7.33-.78,0-.86,1.51-.88,2-.12,3.69-4,9.21-8.28,8.08-1-.26-1.33,3.65,0,4Z"/><ellipse class="cls-3" cx="297.15" cy="409.56" rx="5.59" ry="9.53" transform="translate(-185.2 256.66) rotate(-36.45)"/><path class="cls-3" d="M377.5,175.44c3.83-3,9.83-3.58,14.48-4.19,5.37-.7,11.91-1.57,17.19.07,2.83.88,2.53.89.93,3.33a41.49,41.49,0,0,1-5.37,6.26,112.51,112.51,0,0,1-9.14,8.28c-.92.75-.84,2.75-.21,3.66,4.35,6.27,7.15,14.72,5.45,22.36-.18.8-.29,2.38.53,2.94a202.31,202.31,0,0,1,22.9,17.78c1.41,1.31,4.35,3.5,5,5.46.23.72.09.77-1.45,1.19a44.59,44.59,0,0,1-4.65,1.24c-7.73,1.23-16.75.79-24.11-2-1.1-.42-1.17,1.87-1.08,2.46.64,4.2-1.53,8.7-3.52,12.27a28.82,28.82,0,0,1-2.73,4.15c-.31.38-3.07,3-2.18,3.13-.44-.08-2.16-4.66-2.46-5.19-1.31-2.32-2.9-4.92-5.52-5.89-.77-.28-1,.87-1.08,1.4-.76,5.34-5.8,10.12-9.89,13.31l1.11,1.93c-.15-4.35-.58-9.93-3.9-13.09-.22-.21-.55,0-.68.2-3.24,4-9.14,10.59-15.15,8.44-3.46-1.24-3.39-3.72-3.25-6.85.5-11.13,1.17-22.88-2.62-33.56-4-11.35-12.94-17.62-20.58-26.23a88.45,88.45,0,0,1-5.73-7.12c-1.73-2.41-5.28-6.08-1.09-7.22,4.54-1.24,11-1.23,15.45.51.77.3,1-.89,1.08-1.4a15.4,15.4,0,0,0-2.35-11.14l-.21,3.66c5.55-2.17,12.14-1.56,17.74.06.43.12.69-.76.76-1a18.22,18.22,0,0,0-2.22-15l-.44,3.73c3.86-1,10,2.28,13.42,3.66,5.25,2.1,11,4.49,15.16,8.39.76.71,1.41-3,.47-3.86-4.47-4.16-10.66-6.66-16.28-8.84-3.2-1.24-9.21-4.3-12.76-3.36-1.31.35-1,2.89-.44,3.73a13.12,13.12,0,0,1,2.06,5.57q.1,3.57-2.38,2.28c-1.73.23-4.14-.63-5.94-.69a24,24,0,0,0-9.6,1.46c-1.07.42-.69,2.95-.21,3.66a8.41,8.41,0,0,1,1.54,6.62l1.08-1.4c-4.66-1.84-19.89-3.77-20.16,4-.15,4.32,3.28,8.56,5.73,11.77a97.75,97.75,0,0,0,11.06,11.89c5.23,4.91,10,10.26,12.78,17,3,7,3.36,14.94,3.31,22.48,0,5.53-2.93,15.9,2.3,20,3.32,2.64,7.68,1.47,11-.63a24.79,24.79,0,0,0,3.83-3.13c1.57-1.52,2.57-3.6,4.3-1.56,1.21,1.43,1.16,5.09,1.22,7,0,.25.28,2.58,1.11,1.93,5.14-4,10.17-9.43,11.12-16.1l-1.08,1.4c3.85,1.42,5.88,6.58,7.25,10.16.13.34.46.73.86.51,7-3.79,11.63-16.53,10.48-24.07l-1.08,2.46c5.53,2.09,40.52,6.49,31.56-7.75-3.61-5.74-10.24-10.19-15.49-14.26-4.18-3.23-8.44-6.37-12.79-9.38l.53,2.94c2.12-9.5-.6-19.93-6.08-27.83l-.21,3.66a101.5,101.5,0,0,0,12-11.28c2.5-2.82,7.22-8.37,4.47-12.49s-12.18-2.79-16.19-2.48c-5.93.46-14.4.94-19.32,4.79C376,172.36,376.6,176.15,377.5,175.44Z"/><path class="cls-3" d="M345.83,223.89c-4.24-10.67-12.32-16.85-19.83-25-.19-.21-.4-.36-.68-.2-4.24,2.33-8.29,4.93-5.59,10,3.37,6.4,10.18,11.08,14.47,16.89,5.66,7.66,4.05,15.79,4.53,24.64.08,1.51.08,3.92,1.18,5.14,2.08,2.33,6.16,0,8.38-1,.57-.26.63-1.43.65-1.93.32-9.62.09-19.39-3.11-28.56-.68-2-1.61,1.79-1.24,2.83,2.86,8.22,2.88,17.13,2.59,25.73l.65-1.93c-2.48,1.11-6.17,3.42-7.3.09-.49-1.45-.05-3.64,0-5.15a71,71,0,0,0-.39-11.49c-1.14-7.77-6-13.37-11.14-19-2.29-2.47-5.87-5.19-7.38-8.24-.16-.32-1.1-1.27-1-1.6-.13.4,2.89-1.3,3-1.37,2.26-1.13,2.56-.31,4.1,1.17,6.88,6.62,13.28,12.65,16.89,21.75C345.37,228.68,346.24,224.93,345.83,223.89Z"/><ellipse class="cls-3" cx="374.76" cy="195.26" rx="9.53" ry="5.59" transform="translate(-46.76 165.48) rotate(-23.48)"/><path class="cls-3" d="M359.54,201c-4.24,5.22.55,13.65,5.64,16.15l-.39-3.34c-2.61,6.69-.33,13.59,7.46,14.38,1.15.12,1.3-3.87,0-4-3.72-.38-8.26-2.32-6.22-7.55.3-.76.59-2.86-.39-3.34-2.19-1.07-7.8-5.67-5.22-8.84.71-.88.13-4.7-.89-3.45Z"/><ellipse class="cls-3" cx="384.93" cy="222.89" rx="9.53" ry="5.59" transform="translate(-38.41 86.37) rotate(-12.2)"/><circle class="cls-3" cx="90.35" cy="292.11" r="9.38"/><path class="cls-3" d="M88.73,268.36c2.47.05,4.48,3,5.31,5,.59,1.47.34,2.34-1.09,3a10,10,0,0,1-3.58.72c-.72,0-2.12.12-2.71-.4s-.4-1.73-.39-2.4c0-1.7.18-5.63,2.46-5.92.49-.06.43-1.55,0-1.5-2.82.36-3.07,5.13-3.12,7.25,0,1-.16,2.66.44,3.58s2.29.94,3.32.9c2.75-.1,6.1-1,5.68-4.31-.36-2.87-3.09-7.34-6.32-7.41C88.27,266.85,88.25,268.35,88.73,268.36Z"/><path class="cls-3" d="M72,276.66c1.72-1.64,4.91-1.11,6.93-.4a5,5,0,0,1,2.45,1.43c.71,1.19-.76,2.94-1.48,3.82-1.16,1.41-2.4,2.79-4,1.46-1.15-.94-5.09-4.69-3.81-6.39.26-.34,0-1.77-.33-1.3-1.8,2.38.68,5.71,2.26,7.46.68.76,1.81,2.22,2.88,2.4s2.4-1.24,3.09-2c1.5-1.71,3.54-5,1.47-7s-7.38-3-9.61-.89C71.45,275.54,71.69,276.93,72,276.66Z"/><path class="cls-3" d="M66.18,293.74c.05-2.48,4.09-4.77,6.19-5.19,2.75-.56,3.33,2.61,3.38,4.74,0,.93.06,2-.89,2.33a7.18,7.18,0,0,1-2.51.15c-1.46,0-5.91-.19-6.18-2.24-.13-1-.72-.27-.64.4.4,3.07,4.78,3.33,7.17,3.34,1,0,2.44.12,3.11-.74s.63-2.57.58-3.63c-.11-2.52-.85-6.59-4.19-5.83-3,.67-6.61,3.37-6.68,6.66C65.5,294.63,66.16,294.63,66.18,293.74Z"/><path class="cls-3" d="M74.35,309.94c-1.76-1.84-.85-6.1.67-7.9s4.26.18,5.61,1.38c.6.53,1.71,1.48,1.5,2.17s-1.62,1.8-2.2,2.3c-1.3,1.12-3.92,3.3-5.67,2-.34-.26-.56,1.16-.18,1.45,2.44,1.84,6.33-2,7.8-3.71,1.84-2.11.88-3.91-1.08-5.63-1.1-1-2.69-2.16-4.23-2.19s-2.2,1.22-2.72,2.38c-1.13,2.48-2,6.87.15,9.08C74.44,311.68,74.64,310.25,74.35,309.94Z"/><path class="cls-3" d="M92,315.86c-2.47-.05-4.48-3-5.31-5-.59-1.47-.34-2.34,1.09-3a10,10,0,0,1,3.58-.72c.72,0,2.12-.12,2.71.4s.4,1.73.39,2.4c0,1.7-.18,5.63-2.46,5.92-.49.06-.43,1.55,0,1.5,2.82-.36,3.07-5.13,3.12-7.25,0-1,.16-2.66-.44-3.58s-2.29-.94-3.32-.9c-2.75.1-6.1,1-5.68,4.31.36,2.87,3.09,7.34,6.32,7.41C92.44,317.37,92.45,315.87,92,315.86Z"/><path class="cls-3" d="M108.74,307.56c-1.72,1.64-4.91,1.11-6.93.4a5,5,0,0,1-2.45-1.43c-.71-1.19.76-2.94,1.48-3.82,1.16-1.41,2.4-2.79,4-1.46,1.15.94,5.09,4.69,3.81,6.39-.26.34,0,1.77.33,1.3,1.8-2.38-.68-5.71-2.26-7.46-.68-.76-1.81-2.22-2.88-2.4s-2.4,1.24-3.09,2c-1.5,1.71-3.54,5-1.47,7s7.38,3,9.61.89C109.26,308.68,109,307.29,108.74,307.56Z"/><path class="cls-3" d="M114.52,290.48c-.05,2.48-4.09,4.77-6.19,5.19-2.75.56-3.33-2.61-3.38-4.74,0-.93-.06-2,.89-2.33a7.18,7.18,0,0,1,2.51-.15c1.46,0,5.91.19,6.18,2.24.13,1,.72.27.64-.4-.4-3.07-4.78-3.33-7.17-3.34-1,0-2.44-.12-3.11.74s-.63,2.57-.58,3.63c.11,2.52.85,6.59,4.19,5.83,3-.67,6.61-3.37,6.68-6.66C115.2,289.59,114.54,289.59,114.52,290.48Z"/><path class="cls-3" d="M106.36,274.28c1.76,1.84.85,6.1-.67,7.9s-4.26-.18-5.61-1.38c-.6-.53-1.71-1.48-1.5-2.17s1.62-1.8,2.2-2.3c1.3-1.12,3.92-3.3,5.67-2,.34.26.56-1.16.18-1.45-2.44-1.84-6.33,2-7.8,3.71-1.84,2.11-.88,3.91,1.08,5.63,1.1,1,2.69,2.16,4.23,2.19s2.2-1.22,2.72-2.38c1.13-2.48,2-6.87-.15-9.08C106.27,272.54,106.06,274,106.36,274.28Z"/><circle class="cls-3" cx="203" cy="9.38" r="9.38"/><path class="cls-3" d="M184.61-6.07c1.72-1.64,4.91-1.11,6.93-.4A5,5,0,0,1,194-5c.71,1.19-.76,2.94-1.48,3.82-1.16,1.41-2.4,2.79-4,1.46-1.15-.94-5.09-4.69-3.81-6.39.26-.34,0-1.77-.33-1.3-1.8,2.38.68,5.71,2.26,7.46.68.76,1.81,2.22,2.88,2.4s2.4-1.24,3.09-2c1.5-1.71,3.54-5,1.47-7s-7.38-3-9.61-.89C184.09-7.19,184.33-5.8,184.61-6.07Z"/><path class="cls-3" d="M178.83,11c.05-2.48,4.09-4.77,6.19-5.19,2.75-.56,3.33,2.61,3.38,4.74,0,.93.06,2-.89,2.33A7.18,7.18,0,0,1,185,13c-1.46,0-5.91-.19-6.18-2.24-.13-1-.72-.27-.64.4.4,3.07,4.78,3.33,7.17,3.34,1,0,2.44.12,3.11-.74s.63-2.57.58-3.63c-.11-2.52-.85-6.59-4.19-5.83-3,.67-6.61,3.37-6.68,6.66C178.15,11.9,178.81,11.9,178.83,11Z"/><path class="cls-3" d="M187,27.21c-1.76-1.84-.85-6.1.67-7.9s4.26.18,5.61,1.38c.6.53,1.71,1.48,1.5,2.17s-1.62,1.8-2.2,2.3c-1.3,1.12-3.92,3.3-5.67,2-.34-.26-.56,1.16-.18,1.45,2.44,1.84,6.33-2,7.8-3.71,1.84-2.11.88-3.91-1.08-5.63-1.1-1-2.69-2.16-4.23-2.19s-2.2,1.22-2.72,2.38c-1.13,2.48-2,6.87.15,9.08C187.09,29,187.29,27.52,187,27.21Z"/><path class="cls-3" d="M204.63,33.13c-2.47-.05-4.48-3-5.31-5-.59-1.47-.34-2.34,1.09-3a10,10,0,0,1,3.58-.72c.72,0,2.12-.12,2.71.4s.4,1.73.39,2.4c0,1.7-.18,5.63-2.46,5.92-.49.06-.43,1.55,0,1.5,2.82-.36,3.07-5.13,3.12-7.25,0-1,.16-2.66-.44-3.58s-2.29-.94-3.32-.9c-2.75.1-6.1,1-5.68,4.31.36,2.87,3.09,7.34,6.32,7.41C205.08,34.64,205.1,33.14,204.63,33.13Z"/><path class="cls-3" d="M221.39,24.83c-1.72,1.64-4.91,1.11-6.93.4A5,5,0,0,1,212,23.8c-.71-1.19.76-2.94,1.48-3.82,1.16-1.41,2.4-2.79,4-1.46,1.15.94,5.09,4.69,3.81,6.39-.26.34,0,1.77.33,1.3,1.8-2.38-.68-5.71-2.26-7.46-.68-.76-1.81-2.22-2.88-2.4s-2.4,1.24-3.09,2c-1.5,1.71-3.54,5-1.47,7s7.38,3,9.61.89C221.91,26,221.67,24.57,221.39,24.83Z"/><path class="cls-3" d="M227.17,7.76c-.05,2.48-4.09,4.77-6.19,5.19-2.75.56-3.33-2.61-3.38-4.74,0-.93-.06-2,.89-2.33A7.18,7.18,0,0,1,221,5.72c1.46,0,5.91.19,6.18,2.24.13,1,.72.27.64-.4-.4-3.07-4.78-3.33-7.17-3.34-1,0-2.44-.12-3.11.74s-.63,2.57-.58,3.63c.11,2.52.85,6.59,4.19,5.83,3-.67,6.61-3.37,6.68-6.66C227.85,6.87,227.19,6.86,227.17,7.76Z"/><path class="cls-3" d="M219-8.44c1.76,1.84.85,6.1-.67,7.9s-4.26-.18-5.61-1.38c-.6-.53-1.71-1.48-1.5-2.17s1.62-1.8,2.2-2.3c1.3-1.12,3.92-3.3,5.67-2,.34.26.56-1.16.18-1.45-2.44-1.84-6.33,2-7.8,3.71-1.84,2.11-.88,3.91,1.08,5.63,1.1,1,2.69,2.16,4.23,2.19S219,.49,219.49-.66c1.13-2.48,2-6.87-.15-9.08C218.91-10.19,218.71-8.76,219-8.44Z"/><circle class="cls-3" cx="434.57" cy="452.49" r="9.38"/><path class="cls-3" d="M432.94,428.74c2.47.05,4.48,3,5.31,5,.59,1.47.34,2.34-1.09,3a10,10,0,0,1-3.58.72c-.72,0-2.12.12-2.71-.4s-.4-1.73-.39-2.4c0-1.7.18-5.63,2.46-5.92.49-.06.43-1.55,0-1.5-2.82.36-3.07,5.13-3.12,7.25,0,1-.16,2.66.44,3.58s2.29.94,3.32.9c2.75-.1,6.1-1,5.68-4.31-.36-2.87-3.09-7.34-6.32-7.41C432.48,427.23,432.47,428.73,432.94,428.74Z"/><path class="cls-3" d="M416.18,437c1.72-1.64,4.91-1.11,6.93-.4a5,5,0,0,1,2.45,1.43c.71,1.19-.76,2.94-1.48,3.82-1.16,1.41-2.4,2.79-4,1.46-1.15-.94-5.09-4.69-3.81-6.39.26-.34,0-1.77-.33-1.3-1.8,2.38.68,5.71,2.26,7.46.68.76,1.81,2.22,2.88,2.4s2.4-1.24,3.09-2c1.5-1.71,3.54-5,1.47-7s-7.38-3-9.61-.89C415.66,435.92,415.9,437.31,416.18,437Z"/><path class="cls-3" d="M410.4,454.12c.05-2.48,4.09-4.77,6.19-5.19,2.75-.56,3.33,2.61,3.38,4.74,0,.93.06,2-.89,2.33a7.18,7.18,0,0,1-2.51.15c-1.46,0-5.91-.19-6.18-2.24-.13-1-.72-.27-.64.4.4,3.07,4.78,3.33,7.17,3.34,1,0,2.44.12,3.11-.74s.63-2.57.58-3.63c-.11-2.52-.85-6.59-4.19-5.83-3,.67-6.61,3.37-6.68,6.66C409.72,455,410.38,455,410.4,454.12Z"/><path class="cls-3" d="M418.56,470.32c-1.76-1.84-.85-6.1.67-7.9s4.26.18,5.61,1.38c.6.53,1.71,1.48,1.5,2.17s-1.62,1.8-2.2,2.3c-1.3,1.12-3.92,3.3-5.67,2-.34-.26-.56,1.16-.18,1.45,2.44,1.84,6.33-2,7.8-3.71,1.84-2.11.88-3.91-1.08-5.63-1.1-1-2.69-2.16-4.23-2.19s-2.2,1.22-2.72,2.38c-1.13,2.48-2,6.87.15,9.08C418.65,472.06,418.86,470.63,418.56,470.32Z"/><path class="cls-3" d="M436.19,476.24c-2.47-.05-4.48-3-5.31-5-.59-1.47-.34-2.34,1.09-3a10,10,0,0,1,3.58-.72c.72,0,2.12-.12,2.71.4s.4,1.73.39,2.4c0,1.7-.18,5.63-2.46,5.92-.49.06-.43,1.55,0,1.5,2.82-.36,3.07-5.13,3.12-7.25,0-1,.16-2.66-.44-3.58s-2.29-.94-3.32-.9c-2.75.1-6.1,1-5.68,4.31.36,2.87,3.09,7.34,6.32,7.41C436.65,477.75,436.67,476.25,436.19,476.24Z"/><path class="cls-3" d="M453,467.94c-1.72,1.64-4.91,1.11-6.93.4a5,5,0,0,1-2.45-1.43c-.71-1.19.76-2.94,1.48-3.82,1.16-1.41,2.4-2.79,4-1.46,1.15.94,5.09,4.69,3.81,6.39-.26.34,0,1.77.33,1.3,1.8-2.38-.68-5.71-2.26-7.46-.68-.76-1.81-2.22-2.88-2.4s-2.4,1.24-3.09,2c-1.5,1.71-3.54,5-1.47,7s7.38,3,9.61.89C453.47,469.06,453.23,467.67,453,467.94Z"/><path class="cls-3" d="M458.74,450.87c-.05,2.48-4.09,4.77-6.19,5.19-2.75.56-3.33-2.61-3.38-4.74,0-.93-.06-2,.89-2.33a7.18,7.18,0,0,1,2.51-.15c1.46,0,5.91.19,6.18,2.24.13,1,.72.27.64-.4-.4-3.07-4.78-3.33-7.17-3.34-1,0-2.44-.12-3.11.74s-.63,2.57-.58,3.63c.11,2.52.85,6.59,4.19,5.83,3-.67,6.61-3.37,6.68-6.66C459.42,450,458.76,450,458.74,450.87Z"/><path class="cls-3" d="M450.57,434.66c1.76,1.84.85,6.1-.67,7.9s-4.26-.18-5.61-1.38c-.6-.53-1.71-1.48-1.5-2.17s1.62-1.8,2.2-2.3c1.3-1.12,3.92-3.3,5.67-2,.34.26.56-1.16.18-1.45-2.44-1.84-6.33,2-7.8,3.71-1.84,2.11-.88,3.91,1.08,5.63,1.1,1,2.69,2.16,4.23,2.19s2.2-1.22,2.72-2.38c1.13-2.48,2-6.87-.15-9.08C450.48,432.92,450.28,434.35,450.57,434.66Z"/><circle class="cls-3" cx="285" cy="301.49" r="9.38"/><path class="cls-3" d="M283.37,277.74c2.47.05,4.48,3,5.31,5,.59,1.47.34,2.34-1.09,3a10,10,0,0,1-3.58.72c-.72,0-2.12.12-2.71-.4s-.4-1.73-.39-2.4c0-1.7.18-5.63,2.46-5.92.49-.06.43-1.55,0-1.5-2.82.36-3.07,5.13-3.12,7.25,0,1-.16,2.66.44,3.58s2.29.94,3.32.9c2.75-.1,6.1-1,5.68-4.31-.36-2.87-3.09-7.34-6.32-7.41C282.91,276.23,282.9,277.73,283.37,277.74Z"/><path class="cls-3" d="M266.61,286c1.72-1.64,4.91-1.11,6.93-.4a5,5,0,0,1,2.45,1.43c.71,1.19-.76,2.94-1.48,3.82-1.16,1.41-2.4,2.79-4,1.46-1.15-.94-5.09-4.69-3.81-6.39.26-.34,0-1.77-.33-1.3-1.8,2.38.68,5.71,2.26,7.46.68.76,1.81,2.22,2.88,2.4s2.4-1.24,3.09-2c1.5-1.71,3.54-5,1.47-7s-7.38-3-9.61-.89C266.09,284.92,266.33,286.31,266.61,286Z"/><path class="cls-3" d="M260.83,303.12c.05-2.48,4.09-4.77,6.19-5.19,2.75-.56,3.33,2.61,3.38,4.74,0,.93.06,2-.89,2.33a7.18,7.18,0,0,1-2.51.15c-1.46,0-5.91-.19-6.18-2.24-.13-1-.72-.27-.64.4.4,3.07,4.78,3.33,7.17,3.34,1,0,2.44.12,3.11-.74s.63-2.57.58-3.63c-.11-2.52-.85-6.59-4.19-5.83-3,.67-6.61,3.37-6.68,6.66C260.15,304,260.81,304,260.83,303.12Z"/><path class="cls-3" d="M269,319.32c-1.76-1.84-.85-6.1.67-7.9s4.26.18,5.61,1.38c.6.53,1.71,1.48,1.5,2.17s-1.62,1.8-2.2,2.3c-1.3,1.12-3.92,3.3-5.67,2-.34-.26-.56,1.16-.18,1.45,2.44,1.84,6.33-2,7.8-3.71,1.84-2.11.88-3.91-1.08-5.63-1.1-1-2.69-2.16-4.23-2.19s-2.2,1.22-2.72,2.38c-1.13,2.48-2,6.87.15,9.08C269.08,321.06,269.29,319.63,269,319.32Z"/><path class="cls-3" d="M286.62,325.24c-2.47-.05-4.48-3-5.31-5-.59-1.47-.34-2.34,1.09-3a10,10,0,0,1,3.58-.72c.72,0,2.12-.12,2.71.4s.4,1.73.39,2.4c0,1.7-.18,5.63-2.46,5.92-.49.06-.43,1.55,0,1.5,2.82-.36,3.07-5.13,3.12-7.25,0-1,.16-2.66-.44-3.58S287,315,286,315c-2.75.1-6.1,1-5.68,4.31.36,2.87,3.09,7.34,6.32,7.41C287.08,326.75,287.1,325.25,286.62,325.24Z"/><path class="cls-3" d="M303.38,316.95c-1.72,1.64-4.91,1.11-6.93.4a5,5,0,0,1-2.45-1.43c-.71-1.19.76-2.94,1.48-3.82,1.16-1.41,2.4-2.79,4-1.46,1.15.94,5.09,4.69,3.81,6.39-.26.34,0,1.77.33,1.3,1.8-2.38-.68-5.71-2.26-7.46-.68-.76-1.81-2.22-2.88-2.4s-2.4,1.24-3.09,2c-1.5,1.71-3.54,5-1.47,7s7.38,3,9.61.89C303.9,318.06,303.67,316.68,303.38,316.95Z"/><path class="cls-3" d="M309.17,299.87c-.05,2.48-4.09,4.77-6.19,5.19-2.75.56-3.33-2.61-3.38-4.74,0-.93-.06-2,.89-2.33a7.18,7.18,0,0,1,2.51-.15c1.46,0,5.91.19,6.18,2.24.13,1,.72.27.64-.4-.4-3.07-4.78-3.33-7.17-3.34-1,0-2.44-.12-3.11.74s-.63,2.57-.58,3.63c.11,2.52.85,6.59,4.19,5.83,3-.67,6.61-3.37,6.68-6.66C309.85,299,309.19,299,309.17,299.87Z"/><path class="cls-3" d="M301,283.67c1.76,1.84.85,6.1-.67,7.9s-4.26-.18-5.61-1.38c-.6-.53-1.71-1.48-1.5-2.17s1.62-1.8,2.2-2.3c1.3-1.12,3.92-3.3,5.67-2,.34.26.56-1.16.18-1.45-2.44-1.84-6.33,2-7.8,3.71-1.84,2.11-.88,3.91,1.08,5.63,1.1,1,2.69,2.16,4.23,2.19s2.2-1.22,2.72-2.38c1.13-2.48,2-6.87-.15-9.08C300.91,281.92,300.71,283.35,301,283.67Z"/><circle class="cls-3" cx="262.84" cy="138.33" r="9.38"/><path class="cls-3" d="M261.22,114.58c2.47.05,4.48,3,5.31,5,.59,1.47.34,2.34-1.09,3a10,10,0,0,1-3.58.72c-.72,0-2.12.12-2.71-.4s-.4-1.73-.39-2.4c0-1.7.18-5.63,2.46-5.92.49-.06.43-1.55,0-1.5-2.82.36-3.07,5.13-3.12,7.25,0,1-.16,2.66.44,3.58s2.29.94,3.32.9c2.75-.1,6.1-1,5.68-4.31-.36-2.87-3.09-7.34-6.32-7.41C260.76,113.07,260.75,114.57,261.22,114.58Z"/><path class="cls-3" d="M244.46,122.88c1.72-1.64,4.91-1.11,6.93-.4a5,5,0,0,1,2.45,1.43c.71,1.19-.76,2.94-1.48,3.82-1.16,1.41-2.4,2.79-4,1.46-1.15-.94-5.09-4.69-3.81-6.39.26-.34,0-1.77-.33-1.3-1.8,2.38.68,5.71,2.26,7.46.68.76,1.81,2.22,2.88,2.4s2.4-1.24,3.09-2c1.5-1.71,3.54-5,1.47-7s-7.38-3-9.61-.89C243.94,121.76,244.18,123.15,244.46,122.88Z"/><path class="cls-3" d="M238.67,140c.05-2.48,4.09-4.77,6.19-5.19,2.75-.56,3.33,2.61,3.38,4.74,0,.93.06,2-.89,2.33a7.18,7.18,0,0,1-2.51.15c-1.46,0-5.91-.19-6.18-2.24-.13-1-.72-.27-.64.4.4,3.07,4.78,3.33,7.17,3.34,1,0,2.44.12,3.11-.74s.63-2.57.58-3.63c-.11-2.52-.85-6.59-4.19-5.83-3,.67-6.61,3.37-6.68,6.66C238,140.85,238.65,140.85,238.67,140Z"/><path class="cls-3" d="M246.84,156.16c-1.76-1.84-.85-6.1.67-7.9s4.26.18,5.61,1.38c.6.53,1.71,1.48,1.5,2.17s-1.62,1.8-2.2,2.3c-1.3,1.12-3.92,3.3-5.67,2-.34-.26-.56,1.16-.18,1.45,2.44,1.84,6.33-2,7.8-3.71,1.84-2.11.88-3.91-1.08-5.63-1.1-1-2.69-2.16-4.23-2.19s-2.2,1.22-2.72,2.38c-1.13,2.48-2,6.87.15,9.08C246.93,157.9,247.13,156.47,246.84,156.16Z"/><path class="cls-3" d="M264.47,162.08c-2.47-.05-4.48-3-5.31-5-.59-1.47-.34-2.34,1.09-3a10,10,0,0,1,3.58-.72c.72,0,2.12-.12,2.71.4s.4,1.73.39,2.4c0,1.7-.18,5.63-2.46,5.92-.49.06-.43,1.55,0,1.5,2.82-.36,3.07-5.13,3.12-7.25,0-1,.16-2.66-.44-3.58s-2.29-.94-3.32-.9c-2.75.1-6.1,1-5.68,4.31.36,2.87,3.09,7.34,6.32,7.41C264.93,163.59,264.94,162.09,264.47,162.08Z"/><path class="cls-3" d="M281.23,153.78c-1.72,1.64-4.91,1.11-6.93.4a5,5,0,0,1-2.45-1.43c-.71-1.19.76-2.94,1.48-3.82,1.16-1.41,2.4-2.79,4-1.46,1.15.94,5.09,4.69,3.81,6.39-.26.34,0,1.77.33,1.3,1.8-2.38-.68-5.71-2.26-7.46-.68-.76-1.81-2.22-2.88-2.4s-2.4,1.24-3.09,2c-1.5,1.71-3.54,5-1.47,7s7.38,3,9.61.89C281.75,154.9,281.51,153.51,281.23,153.78Z"/><path class="cls-3" d="M287,136.7c-.05,2.48-4.09,4.77-6.19,5.19-2.75.56-3.33-2.61-3.38-4.74,0-.93-.06-2,.89-2.33a7.18,7.18,0,0,1,2.51-.15c1.46,0,5.91.19,6.18,2.24.13,1,.72.27.64-.4-.4-3.07-4.78-3.33-7.17-3.34-1,0-2.44-.12-3.11.74s-.63,2.57-.58,3.63c.11,2.52.85,6.59,4.19,5.83,3-.67,6.61-3.37,6.68-6.66C287.69,135.81,287,135.81,287,136.7Z"/><path class="cls-3" d="M278.85,120.5c1.76,1.84.85,6.1-.67,7.9s-4.26-.18-5.61-1.38c-.6-.53-1.71-1.48-1.5-2.17s1.62-1.8,2.2-2.3c1.3-1.12,3.92-3.3,5.67-2,.34.26.56-1.16.18-1.45-2.44-1.84-6.33,2-7.8,3.71-1.84,2.11-.88,3.91,1.08,5.63,1.1,1,2.69,2.16,4.23,2.19s2.2-1.22,2.72-2.38c1.13-2.48,2-6.87-.15-9.08C278.76,118.76,278.55,120.19,278.85,120.5Z"/><path class="cls-3" d="M53,406.43c.35-2.36,4.53-4.7,6.29-5.92a62.78,62.78,0,0,1,8.45-5c3.56-1.71,6.81-1.81,10.7-2a335.63,335.63,0,0,1,35.29-.27c4.36.25,8.63-.33,9.76,4.66,1,4.29,2.3,14.89-3,16.46-4.32,1.28-9.79.8-14.24.9-6.42.14-12.85.13-19.28,0-4.9-.09-10,.07-14.86-.65a43,43,0,0,1-9.7-3c-2.12-.86-8.94-3.12-9.4-5.88-.26-1.56-1.17-.43-1,.62.94,5.65,11.54,8.26,16,9.59s9.31,1.38,14.08,1.52q11.55.33,23.11.12c4.77-.09,11.94.81,16.44-1.18,3.79-1.69,3.51-8.51,3.49-12,0-3.65.2-10.76-3.7-12.63-4.42-2.12-11.93-1.18-16.63-1.22-7.53-.08-15.08.07-22.6.36-5.11.2-10,0-14.72,2.25C62.95,395.44,52.84,400,52,405.8,51.85,406.84,52.76,408,53,406.43Z"/><path class="cls-3" d="M32.42,411.49c7.69-2.9,17.72-4.86,25.95-4.36.7,0,.75-2.3,0-2.34-8.34-.51-18.42,1.5-26.22,4.44-.64.24-.49,2.55.27,2.26Z"/><path class="cls-3" d="M68.19,405.58a30.86,30.86,0,0,1,8.41,0c.6.05.66-2,0-2.05a30.87,30.87,0,0,0-8.41,0c-.68.13-.55,2.16,0,2.05Z"/><path class="cls-3" d="M90.8,397.34c-1.16-.22-2.32-.42-3.48-.58-.74-.11-2.35-.59-3.07-.16-1.18.71-2.63,5.28-1.29,6.32.83.64,2.8.44,3.78.55.43,0,2.15.05,2.43.46s-.54,2.22-.72,2.61c-.71,1.53-2,.84-3.37.46-1.22-.33-2.43-.73-3.63-1.14-.68-.24-.8,1.78-.24,2q1.5.52,3,1c.92.27,2.85,1.14,3.81.7,1.54-.71,2.84-5.73,1.82-7.15-.65-.9-2.38-.86-3.36-1-.83-.09-1.67-.21-2.5-.26-.16,0-1-.31-.68,0s.37-.81.5-1.16c.29-.76.38-1.25,1.12-1.42a7.11,7.11,0,0,1,2.15.23c1.23.17,2.47.39,3.69.61.55.1.68-1.92,0-2.05Z"/><path class="cls-3" d="M95.65,397.44c-1,.65-1.13,2.91-1.33,3.91a48.23,48.23,0,0,0-.9,5.9c-.08,1-.21,2,.76,2.49,1.49.8,4.17.87,5.79.82s1.78-.59,2.09-2a27.84,27.84,0,0,0,.5-6.19c0-1.19.12-3-.82-3.88-1.22-1.18-4.42-1.43-6-1.09-.66.14-.52,2.1,0,2a9.46,9.46,0,0,1,4.06.29c1.82.46,1.86,1.18,1.86,2.91a27.92,27.92,0,0,1-.3,4.47c-.25,1.54-.7,1.54-2.21,1.48A20.86,20.86,0,0,1,95,408a4.9,4.9,0,0,0-.84-.24c-.36,0,.07.6,0,.37a5.85,5.85,0,0,1,.12-1.32c.17-1.49.42-3,.71-4.44.12-.59.26-2.63.81-3S96.15,397.1,95.65,397.44Z"/><path class="cls-3" d="M114.11,397.43a71.9,71.9,0,0,0-6.31,12.17c-.21.52.24,2.46.64,1.45a69.93,69.93,0,0,1,6.13-11.85c.31-.49,0-2.43-.46-1.77Z"/><path class="cls-3" d="M106,399.05a3.66,3.66,0,0,0-.61,2.18,11.87,11.87,0,0,0,.11,2.74c.1.59.23,1.51.91,1.71a3.33,3.33,0,0,0,2.23-.69c1.35-.85,1.52-2.91,1.37-4.37a2,2,0,0,0-1.25-1.92,3.06,3.06,0,0,0-2.66.26c-.52.38-.24,2.33.24,2s2.54-.67,2.79.25a2.91,2.91,0,0,1-.23,1.39q-.08.24,0,0a.64.64,0,0,1-.17.16,3.61,3.61,0,0,1-.52.34,3.44,3.44,0,0,1-1.41.54c-.43,0-.41,0-.48-.4s-.33-2,.11-2.42S106.62,398.43,106,399.05Z"/><path class="cls-3" d="M115.56,411.34a3.66,3.66,0,0,0,.61-2.18,11.87,11.87,0,0,0-.11-2.74c-.1-.59-.23-1.51-.91-1.71a3.33,3.33,0,0,0-2.23.69c-1.35.85-1.52,2.91-1.37,4.37a2,2,0,0,0,1.25,1.92,3.06,3.06,0,0,0,2.66-.26c.52-.38.24-2.33-.24-2s-2.54.67-2.79-.25a2.91,2.91,0,0,1,.23-1.39q.08-.24,0,0a.64.64,0,0,1,.17-.16,3.61,3.61,0,0,1,.52-.34,3.44,3.44,0,0,1,1.41-.54c.43,0,.41,0,.48.4s.33,2-.11,2.42S115,412,115.56,411.34Z"/><path class="cls-3" d="M164.35,221.43c4.82-.49,11.45,7.79,14.15,10.89s3.7,5.83,4.86,9.61c3.4,11.05,6.55,22.29,8.84,33.62a37.76,37.76,0,0,1,1.06,6.52c.06,2.81-1.68,3.57-4.19,4.68-3.31,1.46-13.33,5.31-16.45,1.84-2.48-2.75-3.23-8.91-4.21-12.35-1.74-6.17-3.31-12.38-4.79-18.62-1.24-5.22-2.77-10.59-3.37-15.93a38.62,38.62,0,0,1,.32-8.85c.35-2.91.71-10.07,3.9-11.46.64-.28.46-2.58-.27-2.26-4.67,2-4.78,13.37-5,17.4-.28,4.78.6,9.12,1.6,13.78,1.6,7.43,3.41,14.81,5.36,22.15,1.48,5.55,2.7,11.67,5.25,16.86,2.27,4.61,8.57,2.61,12.63,1.52,3.86-1,10-2.43,10.31-7.18.38-5.08-1.56-10.91-2.71-15.77-1.75-7.37-3.73-14.68-5.85-22-1.3-4.48-2.22-9.69-5-13.51a54.88,54.88,0,0,0-8.11-8.49c-2-1.74-5.35-5.15-8.3-4.85C163.6,219.17,163.67,221.5,164.35,221.43Z"/><path class="cls-3" d="M155,202.71c4.61,6.64,9,15.84,10.45,23.8.28,1.48,1-.44.89-1.18-1.57-8.34-6-17.7-10.82-24.64-.51-.74-.9,1.47-.52,2Z"/><path class="cls-3" d="M169.38,235.83a29.11,29.11,0,0,1,1.94,7.7c.22,1.37,1,.37.87-.55a32.45,32.45,0,0,0-2.17-8.61c-.47-1-.88.93-.64,1.45Z"/><path class="cls-3" d="M181.65,255.25c-.07-1.17-.16-2.35-.28-3.52-.09-.89,0-2.6-.63-3.36-.93-1.18-5-1.52-5.32.33a12.67,12.67,0,0,0,.38,3.93c0,.34.42,1.72.18,2s-2,.23-2.49.2-2.13,0-2.46-.45-.13-1.55-.12-2.09c0-1.22.11-2.43.21-3.65.08-.9-.75-1.94-.87-.55q-.16,1.77-.22,3.54c0,1.15-.31,3,.26,4.11.79,1.49,5.4,1.85,6.34.4.64-1,.22-2.84.08-3.88a17.26,17.26,0,0,1-.37-2.54c0-.46-.48-.15.19-.14.39,0,.77,0,1.16,0,.55,0,2.06,0,2.46.4s.27,1.39.32,1.84c.15,1.31.25,2.63.33,3.94s.93.36.87-.55Z"/><path class="cls-3" d="M182.52,259.39c-.83-.76-3.42-.25-4.41-.19-1.71.1-3.91,0-5.54.61-1.13.42-1.06,1.34-1,2.5a18.5,18.5,0,0,0,.84,5.83c.52,1.43,1.29,1.38,2.73,1.25a27.62,27.62,0,0,0,6.17-1.25,2.76,2.76,0,0,0,2.25-2.92,11.36,11.36,0,0,0-.81-5.57c-.48-1-.87.9-.62,1.41.49,1,1.08,3.67.33,4.59s-2.77,1-3.68,1.17a25.56,25.56,0,0,1-4.17.63c-1.57.07-1.6-.54-1.85-2-.12-.72-.21-1.46-.27-2.19,0-.47.1-1.59-.2-1.33.52-.46,2.21-.39,2.85-.46,1.48-.16,3-.27,4.46-.32.63,0,2.2-.29,2.72.19S183,259.82,182.52,259.39Z"/><path class="cls-3" d="M187.13,277.34a72,72,0,0,0-13.29-3.14c-.58-.08-.67,2,0,2.05a70.65,70.65,0,0,1,13,3.06c.68.23.8-1.79.24-2Z"/><path class="cls-3" d="M183.59,269.92a3.34,3.34,0,0,0-2.21.06,6.42,6.42,0,0,0-2.28.87c-1.48,1.1-.11,3.33.87,4.24a3.58,3.58,0,0,0,4.06,0c1.45-1.06.75-4.2-.43-5.2-.43-.36-.74,1.55-.24,2s.68,1,.29,1.34a2.88,2.88,0,0,1-1.49.37,2.06,2.06,0,0,1-2.13-.7,4.67,4.67,0,0,1-.42-.53,1.87,1.87,0,0,1-.21-.37q-.46,1.19,0,.79a7.57,7.57,0,0,0,1.22-.54c.68-.23,2-.73,2.74-.36S184.15,270.22,183.59,269.92Z"/><path class="cls-3" d="M175.36,283.25a3.34,3.34,0,0,0,2.21-.06,6.42,6.42,0,0,0,2.28-.87c1.48-1.1.11-3.33-.87-4.24a3.58,3.58,0,0,0-4.06,0c-1.45,1.06-.75,4.2.43,5.2.43.36.74-1.55.24-2s-.68-1-.29-1.34a2.88,2.88,0,0,1,1.49-.37,2.06,2.06,0,0,1,2.13.7,4.67,4.67,0,0,1,.42.53,1.87,1.87,0,0,1,.21.37q.46-1.19,0-.79a7.57,7.57,0,0,0-1.22.54c-.68.23-2,.73-2.74.36S174.8,283,175.36,283.25Z"/><path class="cls-3" d="M373.25,69.71c-1.39-4.63,5.47-12.72,8-16s5-4.74,8.51-6.6C400,41.71,410.4,36.48,421.1,32.08a37.76,37.76,0,0,1,6.2-2.28c2.75-.59,3.82,1,5.39,3.22,2.06,3,7.74,12.08,4.93,15.8-2.23,3-8.14,4.87-11.33,6.48-5.72,2.88-11.53,5.6-17.37,8.24-4.89,2.21-9.87,4.73-15,6.33a38.62,38.62,0,0,1-8.75,1.36c-2.92.21-10,1.22-12-1.66-.39-.57-2.62,0-2.17.7,2.88,4.2,14,2.15,18,1.62,4.75-.63,8.84-2.32,13.22-4.19,7-3,13.9-6.16,20.73-9.47,5.17-2.51,10.94-4.87,15.55-8.36,4.09-3.1.94-8.91-.91-12.69-1.75-3.59-4.28-9.32-9-8.76-5.06.6-10.41,3.61-15,5.66C406.77,37.2,400,40.54,393.23,44c-4.15,2.13-9.09,4-12.31,7.51a54.88,54.88,0,0,0-6.79,9.58c-1.33,2.28-4,6.23-3.18,9.07C371.17,70.88,373.45,70.36,373.25,69.71Z"/><path class="cls-3" d="M356.63,82.4c5.65-5.79,13.85-11.8,21.39-14.78,1.4-.55-.63-.93-1.33-.65-7.89,3.12-16.24,9.24-22.14,15.3-.63.65,1.62.61,2.09.13Z"/><path class="cls-3" d="M386.43,62a29.11,29.11,0,0,1,7.2-3.36c1.3-.48.17-1.07-.7-.75a32.45,32.45,0,0,0-8,3.76c-.88.65,1.08.69,1.55.35Z"/><path class="cls-3" d="M403.16,46.3c-1.14.29-2.27.61-3.4.95-.86.26-2.55.53-3.18,1.26-1,1.14-.55,5.16,1.33,5.16a12.67,12.67,0,0,0,3.79-1.12c.32-.11,1.61-.74,2-.56s.61,2,.67,2.41.37,2.1,0,2.5-1.5.42-2,.51c-1.2.21-2.41.36-3.62.48-.9.09-1.76,1.1-.37,1q1.76-.18,3.52-.45c1.13-.18,3-.27,4-1,1.31-1.06.79-5.65-.81-6.3-1.09-.44-2.83.32-3.83.66a17.26,17.26,0,0,1-2.43.85c-.45.08-.06.5-.17-.16-.07-.38-.18-.75-.23-1.13-.08-.54-.41-2-.08-2.49s1.32-.53,1.75-.66c1.26-.39,2.53-.74,3.81-1.07s.17-1-.7-.75Z"/><path class="cls-3" d="M407.06,44.67c-.59,1,.4,3.41.65,4.36.42,1.66.75,3.84,1.65,5.32.63,1,1.52.79,2.65.55A18.5,18.5,0,0,0,417.58,53c1.3-.78,1.11-1.53.71-2.92a27.62,27.62,0,0,0-2.4-5.82,2.76,2.76,0,0,0-3.29-1.65,11.36,11.36,0,0,0-5.32,1.85c-.85.65,1,.68,1.5.34.87-.67,3.4-1.76,4.45-1.19.88.48,1.48,2.53,1.85,3.39a25.56,25.56,0,0,1,1.41,4c.37,1.52-.23,1.67-1.65,2.2-.69.26-1.39.48-2.1.68-.46.13-1.58.2-1.27.45-.55-.42-.8-2.09-1-2.71-.44-1.42-.83-2.86-1.16-4.32-.14-.61-.7-2.1-.33-2.7C409.26,44.09,407.4,44.12,407.06,44.67Z"/><path class="cls-3" d="M423.81,36.73a72,72,0,0,0-.56,13.64c0,.58,2.06.29,2-.39a70.65,70.65,0,0,1,.53-13.39c.09-.72-1.91-.45-2,.14Z"/><path class="cls-3" d="M417.2,41.61a3.34,3.34,0,0,0,.48,2.16A6.42,6.42,0,0,0,419,45.85c1.37,1.24,3.29-.52,4-1.65a3.58,3.58,0,0,0-.74-4c-1.32-1.22-4.27.06-5,1.41-.27.49,1.67.43,2-.14s.82-.85,1.26-.54.53,1,.64,1.4a2.06,2.06,0,0,1-.28,2.23,4.67,4.67,0,0,1-.44.51,1.87,1.87,0,0,1-.33.28q1.25.23.78-.16c-.1-.34-.58-.77-.76-1.09-.35-.63-1.1-1.86-.87-2.62S417.39,41,417.2,41.61Z"/><path class="cls-3" d="M431.85,47.16a3.34,3.34,0,0,0-.48-2.16,6.42,6.42,0,0,0-1.29-2.08c-1.37-1.24-3.29.52-4,1.65a3.58,3.58,0,0,0,.74,4c1.32,1.22,4.27-.06,5-1.41.27-.49-1.67-.43-2,.14s-.82.85-1.26.54-.53-1-.64-1.4a2.06,2.06,0,0,1,.28-2.23,4.67,4.67,0,0,1,.44-.51,1.87,1.87,0,0,1,.33-.28q-1.25-.23-.78.16c.1.34.58.77.76,1.09.35.63,1.1,1.86.87,2.62S431.66,47.77,431.85,47.16Z"/><path class="cls-3" d="M471.14,344.76c-3,3.68-13.62,2.53-17.74,2.25s-6.73-1.46-10.2-3.29c-10.34-5.44-20.63-11.2-30.39-17.64a59.63,59.63,0,0,1-5.39-3.84c-2.27-1.89-2.24-2.79-1.12-5.76,1.36-3.56,5.62-13.18,10.38-12.8,3.82.31,8.7,4,11.93,5.85,5.6,3.12,11.11,6.39,16.57,9.75A159,159,0,0,1,458.75,328a36.58,36.58,0,0,1,6,6.13c1.51,1.85,7.33,8.19,6.32,10.77-.23.6.28,2.81.73,1.66,1.95-5-4.12-11.55-6.9-14.9a46.35,46.35,0,0,0-11.29-9.58c-6.32-4.09-12.76-8-19.27-11.76-5.19-3-10.63-6.67-16.35-8.6-4.73-1.6-7.88,4.49-9.89,8-1.8,3.13-5.27,9-3.09,12.68s8.74,6.73,12.32,8.95c6.46,4,13.06,7.77,19.72,11.43,4.23,2.32,8.78,5.56,13.65,6.29a54.41,54.41,0,0,0,12.67.16c2.46-.22,6.59-.34,8.33-2.47C472.08,346.26,471.73,344,471.14,344.76Z"/><path class="cls-3" d="M490.94,351.29c-8.08-1.44-17.71-4.88-24.53-9.52-.58-.39-.89,1.84-.27,2.26,6.9,4.7,16.58,8.14,24.8,9.61.63.11.78-2.21,0-2.34Z"/><path class="cls-3" d="M457.24,338.09a30.48,30.48,0,0,1-7.23-4.3c-.49-.35-.77,1.6-.24,2a30.48,30.48,0,0,0,7.23,4.3c.67.24.8-1.78.24-2Z"/><path class="cls-3" d="M434.4,333.82c1.22,1.07,3.69,4,5.37,4,1,0,2.69-1.74,3.2-2.52a2.3,2.3,0,0,0,.28-2.35c-.52-1-2-1.73-2.88-2.38-.4-.3-.83-.61-1.2-.94s-.55-.79-.61-.51c-.12.51,1-.71,1.07-.8a11.6,11.6,0,0,1,1.06-.87c.66-.48,1.06-.87,1.81-.59s1.29,1.16,1.76,1.65c.87.91,1.7,1.86,2.51,2.82.53.63.84-1.32.46-1.77-.81-1-1.64-1.91-2.51-2.82-.59-.61-1.65-2.06-2.58-2.14s-2.6,1.56-3.25,2.23a3.34,3.34,0,0,0-1.26,3.06c.27,1.12,1.44,1.86,2.3,2.51s1.45,1.14,2.21,1.64c.5.34.58-.41,0-.08a12,12,0,0,0-1.06.93c-1.59,1.22-2,.66-3.5-.51-1-.8-2-1.63-2.94-2.48-.41-.36-.73,1.54-.24,2Z"/><path class="cls-3" d="M430.27,331.26c1.07-.08,2.31-1.9,3-2.62a30,30,0,0,0,3.81-4.71c1.61-2.77-2.32-5.08-4.4-6.27-1.38-.79-1.87-.56-2.9.6a26.91,26.91,0,0,0-3.66,5.44c-.62,1.21-1.09,2.42-.45,3.73a9.18,9.18,0,0,0,4.53,3.79c.66.23.78-1.73.23-1.92a8.59,8.59,0,0,1-3.69-2.7c-.45-.65-.43-.53-.1-1.31a15.52,15.52,0,0,1,1.25-2.13,17.83,17.83,0,0,1,2.58-3.48c1-.94,1.66-.35,2.74.38s2.17,2.23,3.29,2.71a3.57,3.57,0,0,1,.28.31V322s-.24.4-.28.43a8.76,8.76,0,0,0-1,1.35q-1.34,1.7-2.8,3.3c-.47.52-1.57,2.11-2.36,2.17C429.63,329.32,429.68,331.3,430.27,331.26Z"/><path class="cls-3" d="M414.39,321.83a70.59,70.59,0,0,0,11.49-7.14c.51-.4.23-2.34-.24-2a70.59,70.59,0,0,1-11.49,7.14c-.55.28-.37,2.28.24,2Z"/><path class="cls-3" d="M422,324.59c1.33-.41,2.29-2.62,2.64-3.84a2.53,2.53,0,0,0-.17-2.21,2.89,2.89,0,0,0-2.09-.65,2,2,0,0,0-1.69.55,6,6,0,0,0-1.57,2.23,3,3,0,0,0,2.86,3.92c.66-.06.6-2.1,0-2.05-.76.07-1.22-.38-1.83-.72q-.28-.5-.29-.07t0,0c.2-.24.34-.54.54-.79a2,2,0,0,1,2-1,5.29,5.29,0,0,1,.71.08,4.42,4.42,0,0,0,.72.23q.29.26.06-.31,0-.59-.07-.37s-.24.62-.25.65c-.29.64-.92,2.1-1.66,2.33S421.54,324.74,422,324.59Z"/><path class="cls-3" d="M419.62,308.87c-1.33.41-2.29,2.62-2.64,3.84a2.53,2.53,0,0,0,.17,2.21,2.89,2.89,0,0,0,2.09.65,2,2,0,0,0,1.69-.55,6,6,0,0,0,1.57-2.23,3,3,0,0,0-2.86-3.92c-.66.06-.6,2.1,0,2.05.76-.07,1.22.38,1.83.72q.28.5.29.07t0,0c-.2.24-.34.54-.54.79a2,2,0,0,1-2,1,5.29,5.29,0,0,1-.71-.08,4.42,4.42,0,0,0-.72-.23q-.29-.26-.06.31,0,.59.07.37s.24-.62.25-.65c.29-.64.92-2.1,1.66-2.33S420.11,308.72,419.62,308.87Z"/><path class="cls-3" d="M491.62,173.3c4-2.53,13.72,1.93,17.53,3.51s5.91,3.53,8.63,6.37c8.08,8.44,16,17.18,23.2,26.39a59.63,59.63,0,0,1,3.89,5.35c1.55,2.52,1.24,3.36-.77,5.81-2.42,2.95-9.52,10.71-13.92,8.83-3.52-1.51-7-6.61-9.45-9.34-4.32-4.74-8.5-9.6-12.61-14.51a159,159,0,0,1-10.07-12.63,36.58,36.58,0,0,1-3.71-7.7c-.84-2.23-4.34-10.09-2.57-12.22.41-.49.63-2.75-.16-1.8-3.43,4.11.23,12.26,1.8,16.32a46.35,46.35,0,0,0,7.66,12.67c4.69,5.88,9.56,11.63,14.53,17.28,4,4.5,8,9.7,12.77,13.35,4,3,8.9-1.75,11.91-4.42,2.71-2.4,7.85-6.82,7-11s-6.15-9.16-8.84-12.4c-4.85-5.85-9.91-11.52-15.06-17.11-3.27-3.55-6.55-8.07-10.94-10.31a54.41,54.41,0,0,0-12-4.18c-2.4-.58-6.36-1.78-8.68-.31C491.21,171.57,490.83,173.81,491.62,173.3Z"/><path class="cls-3" d="M474.93,160.81c7.2,3.94,15.24,10.26,20.22,16.83.42.56,1.43-1.47,1-2.06-5-6.65-13.13-13-20.46-17-.56-.31-1.44,1.84-.75,2.22Z"/><path class="cls-3" d="M-33.71,173.3c4-2.53,13.72,1.93,17.53,3.51s5.91,3.53,8.63,6.37c8.08,8.44,16,17.18,23.2,26.39a59.63,59.63,0,0,1,3.89,5.35c1.55,2.52,1.24,3.36-.77,5.81-2.42,2.95-9.52,10.71-13.92,8.83-3.52-1.51-7-6.61-9.45-9.34-4.32-4.74-8.5-9.6-12.61-14.51a159,159,0,0,1-10.07-12.63,36.58,36.58,0,0,1-3.71-7.7c-.84-2.23-4.34-10.09-2.57-12.22.41-.49.63-2.75-.16-1.8-3.43,4.11.23,12.26,1.8,16.32a46.35,46.35,0,0,0,7.66,12.67c4.69,5.88,9.56,11.63,14.53,17.28,4,4.5,8,9.7,12.77,13.35,4,3,8.9-1.75,11.91-4.42,2.71-2.4,7.85-6.82,7-11s-6.15-9.16-8.84-12.4C8.23,197.28,3.17,191.6-2,186c-3.27-3.55-6.55-8.07-10.94-10.31a54.41,54.41,0,0,0-12-4.18c-2.4-.58-6.36-1.78-8.68-.31C-34.12,171.57-34.51,173.81-33.71,173.3Z"/><path class="cls-3" d="M.75,199.1c-1-.26-2.8,1.07-3.64,1.54A30,30,0,0,0-8,203.89c-2.41,2.12.58,5.55,2.17,7.34,1.06,1.19,1.6,1.13,2.95.35a26.91,26.91,0,0,0,5.2-4c1-.95,1.8-1.95,1.61-3.39a9.18,9.18,0,0,0-3.08-5c-.55-.43-1.29,1.39-.83,1.74a8.59,8.59,0,0,1,2.64,3.74c.22.76.24.64-.32,1.27a15.52,15.52,0,0,1-1.86,1.62A17.83,17.83,0,0,1-3.09,210c-1.27.57-1.69-.2-2.47-1.23s-1.35-2.81-2.26-3.61a3.57,3.57,0,0,1-.16-.39l-.33,1s.36-.3.4-.32a8.76,8.76,0,0,0,1.39-1q1.81-1.19,3.71-2.24C-2.2,202-.66,200.79.12,201,.73,201.14,1.32,199.24.75,199.1Z"/><path class="cls-3" d="M12.8,213.09A70.59,70.59,0,0,0-.37,216.21c-.61.21-1,2.15-.4,2A70.59,70.59,0,0,1,12.4,215c.61-.09,1.07-2,.4-2Z"/><path class="cls-3" d="M6.44,208c-1.39,0-3,1.76-3.73,2.8A2.53,2.53,0,0,0,2.17,213c.25.67,1.15,1.05,1.77,1.28a2,2,0,0,0,1.77,0,6,6,0,0,0,2.19-1.62A3,3,0,0,0,6.44,208c-.64-.16-1.24,1.8-.65,1.94.74.18,1,.75,1.51,1.27q.1.57.25.16t0,0c-.26.17-.49.4-.76.57a2,2,0,0,1-2.24.32,5.29,5.29,0,0,1-.65-.3c-.12-.07-.5-.44-.61-.45q-.2-.33-.15.28-.19.55-.05.37s.42-.51.44-.53C4,211.15,5,210,5.79,210S6.95,208.06,6.44,208Z"/><path class="cls-3" d="M3.72,223.71c1.39,0,3-1.76,3.73-2.8A2.53,2.53,0,0,0,8,218.76c-.25-.67-1.15-1.05-1.77-1.28a2,2,0,0,0-1.77,0,6,6,0,0,0-2.19,1.62,3,3,0,0,0,1.47,4.63c.64.16,1.24-1.8.65-1.94-.74-.18-1-.75-1.51-1.27q-.1-.57-.25-.16t0,0c.26-.17.49-.4.76-.57a2,2,0,0,1,2.24-.32,5.29,5.29,0,0,1,.65.3c.12.07.5.44.61.45q.2.33.15-.28.19-.55.05-.37s-.42.51-.44.53c-.48.51-1.54,1.7-2.31,1.68S3.21,223.69,3.72,223.71Z"/><path class="cls-3" d="M176,485.63c2.47.05,4.48,3,5.31,5,.59,1.47.34,2.34-1.09,3a10,10,0,0,1-3.58.72c-.72,0-2.12.12-2.71-.4s-.4-1.73-.39-2.4c0-1.7.18-5.63,2.46-5.92.49-.06.43-1.55,0-1.5-2.82.36-3.07,5.13-3.12,7.25,0,1-.16,2.66.44,3.58s2.29.94,3.32.9c2.75-.1,6.1-1,5.68-4.31-.36-2.87-3.09-7.34-6.32-7.41C175.58,484.12,175.57,485.62,176,485.63Z"/><path class="cls-3" d="M159.28,493.93c1.72-1.64,4.91-1.11,6.93-.4a5,5,0,0,1,2.45,1.43c.71,1.19-.76,2.94-1.48,3.82-1.16,1.41-2.4,2.79-4,1.46-1.15-.94-5.09-4.69-3.81-6.39.26-.34,0-1.77-.33-1.3-1.8,2.38.68,5.71,2.26,7.46.68.76,1.81,2.22,2.88,2.4s2.4-1.24,3.09-2c1.5-1.71,3.54-5,1.47-7s-7.38-3-9.61-.89C158.76,492.81,159,494.2,159.28,493.93Z"/><path class="cls-3" d="M193.67,491.56c1.76,1.84.85,6.1-.67,7.9s-4.26-.18-5.61-1.38c-.6-.53-1.71-1.48-1.5-2.17s1.62-1.8,2.2-2.3c1.3-1.12,3.92-3.3,5.67-2,.34.26.56-1.16.18-1.45-2.44-1.84-6.33,2-7.8,3.71-1.84,2.11-.88,3.91,1.08,5.63,1.1,1,2.69,2.16,4.23,2.19s2.2-1.22,2.72-2.38c1.13-2.48,2-6.87-.15-9.08C193.58,489.81,193.38,491.24,193.67,491.56Z"/></g></g></svg>