<svg xmlns="http://www.w3.org/2000/svg" viewBox="0 0 200 200"><defs><style>.cls-1{fill:#e6e5e5;}</style></defs><title>umy_light_gray</title><g id="图层_2" data-name="图层 2"><path class="cls-1" d="M128.7,73.6c-.31-1.2.35-2.87.73-4,.25-.75.84-3,1.78-3.17,1.38-.32,2.51,4.3,2.78,5.25,0,.06.08.26.18.24a7.82,7.82,0,0,1,6,1.11.1.1,0,0,0,.11,0,48.85,48.85,0,0,1,6.1-3.34,6.63,6.63,0,0,1,1.68-.58c.77-.11.75.38.61,1.06a11.2,11.2,0,0,1-2.76,5.23c-.17.17-.17.82.11.89,1.39.37,3.48,2.37,3.61,3.89l.2-.61c-1,0-2.44-.07-3.19.73-.16.17-.17.74.05.88a5.66,5.66,0,0,1,2.11,3.5l.24-.71a4.06,4.06,0,0,0-2.88-.35c-.23.09-.18.64-.09.8.54,1,1.56,3.16,0,3.85-.71.31-1.34-.14-2-.45-2.44-1.2-5.09-2.5-7.88-2.47s-5.06,1.52-7.67,2.27c-.59.17-3.2,1.09-3.64.33-.22-.37.42-1.5.6-1.88a5.21,5.21,0,0,1,1-1.51.74.74,0,0,0-.05-.88,3,3,0,0,0-2.2-.44l.21.48a6.3,6.3,0,0,1,1.61-3.54.75.75,0,0,0-.05-.88,3.61,3.61,0,0,0-2.94-.77l.2.61c.08-.55,1.51-1.84,2-2.36a11.4,11.4,0,0,1,3.25-2.49c.26-.11.19-1.06-.11-.93a12.42,12.42,0,0,0-3.65,2.89c-.67.69-1.77,1.61-1.92,2.63,0,.09,0,.64.2.61a3.44,3.44,0,0,1,2.83.74l-.05-.88A7.47,7.47,0,0,0,124,83.73c0,.09,0,.51.21.48a2.83,2.83,0,0,1,2.08.4l-.05-.88c-.87.87-2.47,3.76-1.6,5,.53.76,2,.31,2.72.15A19.8,19.8,0,0,0,131,87.72a14.65,14.65,0,0,1,4.49-1.36,11.46,11.46,0,0,1,5.09.85c1.29.48,2.52,1.1,3.76,1.7a2.16,2.16,0,0,0,1.7.36c2.29-.75,1.08-4.14.37-5.52l-.09.8a3.89,3.89,0,0,1,2.66.35c.3.12.27-.56.24-.71-.37-1.43-1-3.14-2.36-3.94l.05.88c.65-.69,2.09-.63,3-.6.23,0,.21-.5.2-.61a6.26,6.26,0,0,0-4-4.59l.11.89a12.35,12.35,0,0,0,2.66-4.69c.25-.76.86-2.61,0-3.27-.62-.5-2,.24-2.56.5a42,42,0,0,0-4.1,2.14l-1.44.85c-.53.32-.42.38-.93,0a7,7,0,0,0-3-.94,8.34,8.34,0,0,0-1.71,0s-1,.17-.75.37c0,0,0-.15-.05-.18-.26-.27-.37-1.19-.49-1.54a19.68,19.68,0,0,0-.9-2.24c-.32-.65-1-2.12-1.91-1.67-1.18.57-1.74,2.92-2.08,4a8.85,8.85,0,0,0-.58,4.5C128.49,74.68,128.78,73.9,128.7,73.6Z"/><path class="cls-1" d="M136.85,85.37c-2.75-.08-4.86,1.11-7.37,2-.17.06-.16.47-.15.59,0,.54,0,1.66.55,2,.36.26.91.06,1.29,0,1.83-.5,3.59-1.49,5.51-1.6S140.18,89.46,142,90c1.42.43,1.37-1.14,1.36-2.18,0-.12,0-.4-.16-.46a18.13,18.13,0,0,0-6.3-2c-.28,0-.31.94,0,1a17.77,17.77,0,0,1,6.19,2l-.16-.46c0,1.32-.19,1.52-1.23,1.1-.52-.2-1-.46-1.52-.68a7.28,7.28,0,0,0-3.72-.84,16.87,16.87,0,0,0-3.7,1.06,14.21,14.21,0,0,1-1.86.6c-1,.2-1-.45-1.1-1.37l-.15.59c2.46-.86,4.55-2,7.25-1.95C137.14,86.34,137.16,85.38,136.85,85.37Z"/><ellipse class="cls-1" cx="133.06" cy="76.47" rx="1.34" ry="2.29"/><path class="cls-1" d="M133.15,80.78a1.48,1.48,0,0,0,1.11.77,2.8,2.8,0,0,0,1.26-.05c.31-.08.72-.42,1-.4.65,0,1,.67,1.8.5a2.28,2.28,0,0,0,1.44-1.27c.13-.24,0-1.13-.3-.68a1.66,1.66,0,0,1-2.81.38s-.1-.1-.16,0c-.66.55-2.49,1.18-3.06.12-.25-.46-.43.44-.3.68Z"/><ellipse class="cls-1" cx="140.12" cy="76.87" rx="2.29" ry="1.34" transform="translate(37.32 199.25) rotate(-78.72)"/><path class="cls-1" d="M90.67,174a7.33,7.33,0,0,1-2.32-2.73c-.35-.56-2.08-3.14-1.55-3.83s2.84.41,3.35.61c.83.32,1.64.68,2.43,1.08a.12.12,0,0,0,.16,0,7.76,7.76,0,0,1,4.82-3.67c.15,0,.18-.23.2-.35a42.57,42.57,0,0,1,1.75-7c.14-.38.33-1.12.69-1.37.52-.36,1,.25,1.32.66a10.88,10.88,0,0,1,2.13,5.64c0,.09.09.44.26.34,1.32-.86,4.29-1,5.59,0l-.05-.88a4.5,4.5,0,0,0-1.68,3.27c0,.07.07.39.2.35a5.93,5.93,0,0,1,4.2.83V166a4.12,4.12,0,0,0-2.22,1.94c-.07.21-.14.74.15.82.88.24,3.38,1,3.24,2.31-.07.65-.81.85-1.31,1-2.41,1-5,1.91-6.88,3.72-2.16,2-2.63,4.7-3.81,7.28-.32.71-1.39,3.55-2.43,3.42S97.07,183.79,97,183c0-.08,0-.53-.21-.48a3.15,3.15,0,0,0-1,.48c-.15.11-.63.7-.8.69s-.74-1.11-.84-1.31a7.4,7.4,0,0,1-.64-2.14c0-.08-.06-.37-.2-.35A3.27,3.27,0,0,0,91.1,181c-.3.41-.21.61-.35.08a7.23,7.23,0,0,1-.16-1,12.76,12.76,0,0,1,.17-5.28c.08-.25-.14-1.15-.3-.68a12.9,12.9,0,0,0-.39,4.77c0,1,0,2.68.62,3.48a.12.12,0,0,0,.21,0,3.38,3.38,0,0,1,2.39-1.56l-.2-.35A7.37,7.37,0,0,0,95,184.71c.07.06.15.1.21,0a2.74,2.74,0,0,1,1.64-1.23l-.21-.48c0,1,1.05,4.77,2.52,4.46,1-.2,1.69-2,2.09-2.76a32.55,32.55,0,0,0,1.47-3.7c1.26-3.45,3.67-5.45,6.94-6.92,1-.45,2.09-.79,3.08-1.26a1.69,1.69,0,0,0,1-1.08c.74-2.29-1.77-3.47-3.55-3.94l.15.82c.29-.81,1.29-1.33,2-1.69.23-.11.22-.81,0-.93a6.17,6.17,0,0,0-4.31-.87l.2.35c0-.71,1-1.71,1.49-2.18a.75.75,0,0,0-.05-.88c-1.38-1.06-4.41-.94-5.81,0l.26.34a12.25,12.25,0,0,0-2.19-6c-.73-1-1.56-1.58-2.25-.3-1.33,2.5-1.77,5.67-2.28,8.42l.2-.35a7.54,7.54,0,0,0-3.65,2.06c-.19.18-.37.37-.55.57s-.69,1.12-.68,1.11-.55-.27-.64-.31a25.18,25.18,0,0,0-2.7-1.1,4.09,4.09,0,0,0-2.43-.37c-2.5,1,2.34,7.81,3.65,8.51C90.83,175.09,90.93,174.16,90.67,174Z"/><path class="cls-1" d="M105,176c-1.91,2-2.47,4.36-3.51,6.81-.09.22-.12.64.09.8.47.35,1.24,1.11,1.86.74.4-.24.66-1,.83-1.35.81-1.77,1.35-4.05,2.92-5.33,1.3-1.06,3.09-1.26,4.37-2.26,1.13-.89,0-2.07-.76-2.75a.1.1,0,0,0-.11,0,17.89,17.89,0,0,0-5.66,3.3c-.22.21-.07,1.1.11.93a13.18,13.18,0,0,1,2.9-2c.49-.26,1-.51,1.51-.74.72-.32,1.22-.59,1.84.15.21.25.25,0,.06.22a1.3,1.3,0,0,1-.39.23c-.31.17-.64.3-1,.44a16.77,16.77,0,0,0-2.44,1.19,8.1,8.1,0,0,0-2.84,4c-.34.78-.63,1.59-1,2.35-.11.21-.32.74-.59.83-.48.16-1.22-.56-1.54-.8l.09.8c1-2.39,1.55-4.72,3.42-6.66C105.4,176.62,105.28,175.69,105,176Z"/><ellipse class="cls-1" cx="95.62" cy="172.89" rx="1.34" ry="2.29" transform="translate(-96.63 127.35) rotate(-47.73)"/><path class="cls-1" d="M98.72,175.86c1.5.4,2.37-1.76,2.41-2.9l-.21.48c1.9-.08,2.42-1.8,1.87-3.4-.16-.47-.38.43-.3.68.42,1.23-.64,1.72-1.58,1.76-.19,0-.21.36-.21.48,0,.89-1,2.21-2,1.94-.24-.06-.32.88,0,1Z"/><ellipse class="cls-1" cx="100.66" cy="167.94" rx="1.34" ry="2.29" transform="translate(-80.08 92.66) rotate(-36.45)"/><path class="cls-1" d="M36.15,38.37a7.33,7.33,0,0,1,3.48-1,10.2,10.2,0,0,1,4.12,0c.68.21.61.21.22.8a10,10,0,0,1-1.29,1.5,27,27,0,0,1-2.19,2,.76.76,0,0,0-.05.88,7.11,7.11,0,0,1,1.31,5.37c0,.19-.07.57.13.71a48.55,48.55,0,0,1,5.49,4.27c.34.31,1,.84,1.19,1.31.06.17,0,.19-.35.29a10.7,10.7,0,0,1-1.12.3,11.8,11.8,0,0,1-5.79-.48c-.26-.1-.28.45-.26.59a4.94,4.94,0,0,1-.85,2.95,6.92,6.92,0,0,1-.66,1c-.07.09-.74.72-.52.75a8.19,8.19,0,0,1-.59-1.25,2.85,2.85,0,0,0-1.33-1.41c-.18-.07-.24.21-.26.34-.18,1.28-1.39,2.43-2.37,3.19l.27.46a4.57,4.57,0,0,0-.94-3.14c-.05-.05-.13,0-.16,0-.78.95-2.19,2.54-3.64,2-.83-.3-.81-.89-.78-1.64.12-2.67.28-5.49-.63-8.06-1-2.72-3.11-4.23-4.94-6.3a21.23,21.23,0,0,1-1.38-1.71c-.41-.58-1.27-1.46-.26-1.73a6.55,6.55,0,0,1,3.71.12c.18.07.24-.21.26-.34a3.7,3.7,0,0,0-.56-2.67l-.05.88a6.83,6.83,0,0,1,4.26,0c.1,0,.16-.18.18-.24a4.37,4.37,0,0,0-.53-3.6l-.11.89c.93-.25,2.39.55,3.22.88a11.56,11.56,0,0,1,3.64,2c.18.17.34-.72.11-.93a12,12,0,0,0-3.91-2.12c-.77-.3-2.21-1-3.06-.81-.32.08-.23.69-.11.89a3.15,3.15,0,0,1,.49,1.34q0,.86-.57.55a10.42,10.42,0,0,1-1.43-.16,5.77,5.77,0,0,0-2.3.35c-.26.1-.17.71-.05.88a2,2,0,0,1,.37,1.59l.26-.34c-1.12-.44-4.77-.91-4.84,1a5,5,0,0,0,1.38,2.82A23.46,23.46,0,0,0,25,46.24a12.13,12.13,0,0,1,3.07,4.07,13.68,13.68,0,0,1,.79,5.4c0,1.33-.7,3.82.55,4.81a2.25,2.25,0,0,0,2.63-.15,6,6,0,0,0,.92-.75c.38-.36.62-.86,1-.37a3.37,3.37,0,0,1,.29,1.67c0,.06.07.62.27.46a6.4,6.4,0,0,0,2.67-3.86l-.26.34c.92.34,1.41,1.58,1.74,2.44,0,.08.11.18.21.12,1.68-.91,2.79-4,2.52-5.78l-.26.59c1.33.5,9.72,1.56,7.57-1.86a15.24,15.24,0,0,0-3.72-3.42c-1-.78-2-1.53-3.07-2.25l.13.71a8.71,8.71,0,0,0-1.46-6.68l-.05.88a24.36,24.36,0,0,0,2.88-2.71c.6-.68,1.73-2,1.07-3s-2.92-.67-3.88-.6c-1.42.11-3.46.23-4.64,1.15C35.8,37.63,35.93,38.54,36.15,38.37Z"/><path class="cls-1" d="M28.55,50c-1-2.56-3-4-4.76-6,0,0-.1-.09-.16,0-1,.56-2,1.18-1.34,2.41.81,1.54,2.44,2.66,3.47,4.05,1.36,1.84,1,3.79,1.09,5.91a2.17,2.17,0,0,0,.28,1.23c.5.56,1.48,0,2-.25.14-.06.15-.34.16-.46A18.79,18.79,0,0,0,28.55,50c-.16-.47-.39.43-.3.68a17,17,0,0,1,.62,6.18l.16-.46c-.6.27-1.48.82-1.75,0a4.14,4.14,0,0,1,0-1.24,17,17,0,0,0-.09-2.76,8.63,8.63,0,0,0-2.67-4.55,10.1,10.1,0,0,1-1.77-2c0-.08-.27-.3-.24-.38,0,.1.69-.31.72-.33.54-.27.61-.07,1,.28a15,15,0,0,1,4.05,5.22C28.44,51.15,28.65,50.25,28.55,50Z"/><ellipse class="cls-1" cx="35.49" cy="43.13" rx="2.29" ry="1.34" transform="translate(-14.24 17.71) rotate(-23.48)"/><path class="cls-1" d="M31.84,44.52c-1,1.25.13,3.28,1.35,3.88l-.09-.8c-.63,1.61-.08,3.26,1.79,3.45.28,0,.31-.93,0-1-.89-.09-2-.56-1.49-1.81.07-.18.14-.69-.09-.8-.53-.26-1.87-1.36-1.25-2.12.17-.21,0-1.13-.21-.83Z"/><ellipse class="cls-1" cx="37.93" cy="49.76" rx="2.29" ry="1.34" transform="translate(-9.66 9.14) rotate(-12.2)"/><circle class="cls-1" cx="27.73" cy="109.09" r="2.25"/><path class="cls-1" d="M27.34,103.39c.59,0,1.07.71,1.27,1.21s.08.56-.26.71a2.4,2.4,0,0,1-.86.17c-.17,0-.51,0-.65-.1s-.1-.41-.09-.58c0-.41,0-1.35.59-1.42.12,0,.1-.37,0-.36-.68.09-.74,1.23-.75,1.74a1.68,1.68,0,0,0,.1.86c.16.24.55.23.8.22.66,0,1.46-.23,1.36-1S28.11,103,27.34,103C27.23,103,27.23,103.39,27.34,103.39Z"/><path class="cls-1" d="M23.32,105.38a1.74,1.74,0,0,1,1.66-.1,1.19,1.19,0,0,1,.59.34c.17.29-.18.71-.35.92s-.58.67-1,.35-1.22-1.13-.91-1.53c.06-.08,0-.42-.08-.31-.43.57.16,1.37.54,1.79.16.18.43.53.69.58s.58-.3.74-.48c.36-.41.85-1.2.35-1.69a2,2,0,0,0-2.31-.21C23.19,105.12,23.25,105.45,23.32,105.38Z"/><path class="cls-1" d="M21.93,109.48c0-.59,1-1.14,1.49-1.25.66-.13.8.63.81,1.14,0,.22,0,.47-.21.56a1.72,1.72,0,0,1-.6,0c-.35,0-1.42,0-1.48-.54,0-.24-.17-.06-.15.1.09.74,1.15.8,1.72.8.24,0,.58,0,.75-.18a1.44,1.44,0,0,0,.14-.87c0-.61-.2-1.58-1-1.4s-1.59.81-1.6,1.6C21.77,109.7,21.92,109.7,21.93,109.48Z"/><path class="cls-1" d="M23.89,113.37a1.68,1.68,0,0,1,.16-1.9c.38-.44,1,0,1.35.33.14.13.41.35.36.52s-.39.43-.53.55c-.31.27-.94.79-1.36.47-.08-.06-.13.28,0,.35.59.44,1.52-.49,1.87-.89s.21-.94-.26-1.35a1.8,1.8,0,0,0-1-.53c-.34,0-.53.29-.65.57a2.18,2.18,0,0,0,0,2.18C23.91,113.79,24,113.45,23.89,113.37Z"/><path class="cls-1" d="M28.12,114.79c-.59,0-1.07-.71-1.27-1.21s-.08-.56.26-.71a2.4,2.4,0,0,1,.86-.17c.17,0,.51,0,.65.1s.1.41.09.58c0,.41,0,1.35-.59,1.42-.12,0-.1.37,0,.36.68-.09.74-1.23.75-1.74a1.68,1.68,0,0,0-.1-.86c-.16-.24-.55-.23-.8-.22-.66,0-1.46.23-1.36,1s.74,1.76,1.52,1.78C28.23,115.15,28.23,114.79,28.12,114.79Z"/><path class="cls-1" d="M32.14,112.8a1.74,1.74,0,0,1-1.66.1,1.19,1.19,0,0,1-.59-.34c-.17-.29.18-.71.35-.92s.58-.67,1-.35,1.22,1.13.91,1.53c-.06.08,0,.42.08.31.43-.57-.16-1.37-.54-1.79-.16-.18-.43-.53-.69-.58s-.58.3-.74.48c-.36.41-.85,1.2-.35,1.69a2,2,0,0,0,2.31.21C32.27,113.07,32.21,112.74,32.14,112.8Z"/><path class="cls-1" d="M33.53,108.7c0,.59-1,1.14-1.49,1.25-.66.13-.8-.63-.81-1.14,0-.22,0-.47.21-.56a1.72,1.72,0,0,1,.6,0c.35,0,1.42,0,1.48.54,0,.24.17.06.15-.1-.09-.74-1.15-.8-1.72-.8-.24,0-.58,0-.75.18a1.44,1.44,0,0,0-.14.87c0,.61.2,1.58,1,1.4s1.59-.81,1.6-1.6C33.69,108.49,33.53,108.49,33.53,108.7Z"/><path class="cls-1" d="M31.57,104.81a1.68,1.68,0,0,1-.16,1.9c-.38.44-1,0-1.35-.33-.14-.13-.41-.35-.36-.52s.39-.43.53-.55c.31-.27.94-.79,1.36-.47.08.06.13-.28,0-.35-.59-.44-1.52.49-1.87.89s-.21.94.26,1.35a1.8,1.8,0,0,0,1,.53c.34,0,.53-.29.65-.57a2.18,2.18,0,0,0,0-2.18C31.55,104.4,31.5,104.74,31.57,104.81Z"/><circle class="cls-1" cx="81.21" cy="17.57" r="2.25"/><path class="cls-1" d="M80.81,11.87c.59,0,1.07.71,1.27,1.21s.08.56-.26.71A2.4,2.4,0,0,1,81,14c-.17,0-.51,0-.65-.1s-.1-.41-.09-.58c0-.41,0-1.35.59-1.42.12,0,.1-.37,0-.36-.68.09-.74,1.23-.75,1.74a1.68,1.68,0,0,0,.1.86c.16.24.55.23.8.22.66,0,1.46-.23,1.36-1s-.74-1.76-1.52-1.78C80.7,11.51,80.7,11.87,80.81,11.87Z"/><path class="cls-1" d="M76.79,13.86a1.74,1.74,0,0,1,1.66-.1,1.19,1.19,0,0,1,.59.34c.17.29-.18.71-.35.92s-.58.67-1,.35-1.22-1.13-.91-1.53c.06-.08,0-.42-.08-.31-.43.57.16,1.37.54,1.79.16.18.43.53.69.58s.58-.3.74-.48c.36-.41.85-1.2.35-1.69a2,2,0,0,0-2.31-.21C76.67,13.59,76.72,13.93,76.79,13.86Z"/><path class="cls-1" d="M75.4,18c0-.59,1-1.14,1.49-1.25.66-.13.8.63.81,1.14,0,.22,0,.47-.21.56a1.72,1.72,0,0,1-.6,0c-.35,0-1.42,0-1.48-.54,0-.24-.17-.06-.15.1.09.74,1.15.8,1.72.8.24,0,.58,0,.75-.18a1.44,1.44,0,0,0,.14-.87c0-.61-.2-1.58-1-1.4s-1.59.81-1.6,1.6C75.24,18.17,75.4,18.17,75.4,18Z"/><path class="cls-1" d="M77.36,21.85a1.68,1.68,0,0,1,.16-1.9c.38-.44,1,0,1.35.33.14.13.41.35.36.52s-.39.43-.53.55c-.31.27-.94.79-1.36.47-.08-.06-.13.28,0,.35.59.44,1.52-.49,1.87-.89s.21-.94-.26-1.35a1.8,1.8,0,0,0-1-.53c-.34,0-.53.29-.65.57a2.18,2.18,0,0,0,0,2.18C77.39,22.27,77.43,21.92,77.36,21.85Z"/><path class="cls-1" d="M81.6,23.27c-.59,0-1.07-.71-1.27-1.21s-.08-.56.26-.71a2.4,2.4,0,0,1,.86-.17c.17,0,.51,0,.65.1s.1.41.09.58c0,.41,0,1.35-.59,1.42-.12,0-.1.37,0,.36.68-.09.74-1.23.75-1.74a1.68,1.68,0,0,0-.1-.86c-.16-.24-.55-.23-.8-.22-.66,0-1.46.23-1.36,1s.74,1.76,1.52,1.78C81.71,23.63,81.71,23.27,81.6,23.27Z"/><path class="cls-1" d="M85.62,21.28a1.74,1.74,0,0,1-1.66.1,1.19,1.19,0,0,1-.59-.34c-.17-.29.18-.71.35-.92s.58-.67,1-.35,1.22,1.13.91,1.53c-.06.08,0,.42.08.31.43-.57-.16-1.37-.54-1.79-.16-.18-.43-.53-.69-.58s-.58.3-.74.48c-.36.41-.85,1.2-.35,1.69a2,2,0,0,0,2.31.21C85.74,21.55,85.69,21.21,85.62,21.28Z"/><path class="cls-1" d="M87,17.18c0,.59-1,1.14-1.49,1.25-.66.13-.8-.63-.81-1.14,0-.22,0-.47.21-.56a1.72,1.72,0,0,1,.6,0c.35,0,1.42,0,1.48.54,0,.24.17.06.15-.1-.09-.74-1.15-.8-1.72-.8-.24,0-.58,0-.75.18a1.44,1.44,0,0,0-.14.87c0,.61.2,1.58,1,1.4s1.59-.81,1.6-1.6C87.17,17,87,17,87,17.18Z"/><path class="cls-1" d="M85,13.29a1.68,1.68,0,0,1-.16,1.9c-.38.44-1,0-1.35-.33-.14-.13-.41-.35-.36-.52s.39-.43.53-.55c.31-.27.94-.79,1.36-.47.08.06.13-.28,0-.35-.59-.44-1.52.49-1.87.89s-.21.94.26,1.35a1.8,1.8,0,0,0,1,.53c.34,0,.53-.29.65-.57a2.18,2.18,0,0,0,0-2.18C85,12.87,85,13.22,85,13.29Z"/><circle class="cls-1" cx="158.21" cy="173.23" r="2.25"/><path class="cls-1" d="M157.82,167.53c.59,0,1.07.71,1.27,1.21s.08.56-.26.71a2.4,2.4,0,0,1-.86.17c-.17,0-.51,0-.65-.1s-.1-.41-.09-.58c0-.41,0-1.35.59-1.42.12,0,.1-.37,0-.36-.68.09-.74,1.23-.75,1.74a1.68,1.68,0,0,0,.1.86c.16.24.55.23.8.22.66,0,1.46-.23,1.36-1s-.74-1.76-1.52-1.78C157.71,167.17,157.71,167.53,157.82,167.53Z"/><path class="cls-1" d="M153.8,169.52a1.74,1.74,0,0,1,1.66-.1,1.19,1.19,0,0,1,.59.34c.17.29-.18.71-.35.92s-.58.67-1,.35-1.22-1.13-.91-1.53c.06-.08,0-.42-.08-.31-.43.57.16,1.37.54,1.79.16.18.43.53.69.58s.58-.3.74-.48c.36-.41.85-1.2.35-1.69a2,2,0,0,0-2.31-.21C153.67,169.25,153.73,169.59,153.8,169.52Z"/><path class="cls-1" d="M152.41,173.62c0-.59,1-1.14,1.49-1.25.66-.13.8.63.81,1.14,0,.22,0,.47-.21.56a1.72,1.72,0,0,1-.6,0c-.35,0-1.42,0-1.48-.54,0-.24-.17-.06-.15.1.09.74,1.15.8,1.72.8.24,0,.58,0,.75-.18a1.44,1.44,0,0,0,.14-.87c0-.61-.2-1.58-1-1.4s-1.59.81-1.6,1.6C152.25,173.84,152.4,173.84,152.41,173.62Z"/><path class="cls-1" d="M154.37,177.51a1.68,1.68,0,0,1,.16-1.9c.38-.44,1,0,1.35.33.14.13.41.35.36.52s-.39.43-.53.55c-.31.27-.94.79-1.36.47-.08-.06-.13.28,0,.35.59.44,1.52-.49,1.87-.89s.21-.94-.26-1.35a1.8,1.8,0,0,0-1-.53c-.34,0-.53.29-.65.57a2.18,2.18,0,0,0,0,2.18C154.39,177.93,154.44,177.58,154.37,177.51Z"/><path class="cls-1" d="M158.6,178.93c-.59,0-1.07-.71-1.27-1.21s-.08-.56.26-.71a2.4,2.4,0,0,1,.86-.17c.17,0,.51,0,.65.1s.1.41.09.58c0,.41,0,1.35-.59,1.42-.12,0-.1.37,0,.36.68-.09.74-1.23.75-1.74a1.68,1.68,0,0,0-.1-.86c-.16-.24-.55-.23-.8-.22-.66,0-1.46.23-1.36,1s.74,1.76,1.52,1.78C158.71,179.29,158.71,178.93,158.6,178.93Z"/><path class="cls-1" d="M162.62,176.94a1.74,1.74,0,0,1-1.66.1,1.19,1.19,0,0,1-.59-.34c-.17-.29.18-.71.35-.92s.58-.67,1-.35,1.22,1.13.91,1.53c-.06.08,0,.42.08.31.43-.57-.16-1.37-.54-1.79-.16-.18-.43-.53-.69-.58s-.58.3-.74.48c-.36.41-.85,1.2-.35,1.69a2,2,0,0,0,2.31.21C162.75,177.21,162.69,176.88,162.62,176.94Z"/><path class="cls-1" d="M164,172.84c0,.59-1,1.14-1.49,1.25-.66.13-.8-.63-.81-1.14,0-.22,0-.47.21-.56a1.72,1.72,0,0,1,.6,0c.35,0,1.42,0,1.48.54,0,.24.17.06.15-.1-.09-.74-1.15-.8-1.72-.8-.24,0-.58,0-.75.18a1.44,1.44,0,0,0-.14.87c0,.61.2,1.58,1,1.4s1.59-.81,1.6-1.6C164.17,172.63,164,172.63,164,172.84Z"/><path class="cls-1" d="M162.05,169a1.68,1.68,0,0,1-.16,1.9c-.38.44-1,0-1.35-.33-.14-.13-.41-.35-.36-.52s.39-.43.53-.55c.31-.27.94-.79,1.36-.47.08.06.13-.28,0-.35-.59-.44-1.52.49-1.87.89s-.21.94.26,1.35a1.8,1.8,0,0,0,1,.53c.34,0,.53-.29.65-.57a2.18,2.18,0,0,0,0-2.18C162,168.53,162,168.88,162.05,169Z"/><circle class="cls-1" cx="129.97" cy="127.45" r="2.25"/><path class="cls-1" d="M129.58,121.75c.59,0,1.07.71,1.27,1.21s.08.56-.26.71a2.4,2.4,0,0,1-.86.17c-.17,0-.51,0-.65-.1s-.1-.41-.09-.58c0-.41,0-1.35.59-1.42.12,0,.1-.37,0-.36-.68.09-.74,1.23-.75,1.74a1.68,1.68,0,0,0,.1.86c.16.24.55.23.8.22.66,0,1.46-.23,1.36-1s-.74-1.76-1.52-1.78C129.47,121.39,129.47,121.75,129.58,121.75Z"/><path class="cls-1" d="M125.56,123.74a1.74,1.74,0,0,1,1.66-.1,1.19,1.19,0,0,1,.59.34c.17.29-.18.71-.35.92s-.58.67-1,.35-1.22-1.13-.91-1.53c.06-.08,0-.42-.08-.31-.43.57.16,1.37.54,1.79.16.18.43.53.69.58s.58-.3.74-.48c.36-.41.85-1.2.35-1.69a2,2,0,0,0-2.31-.21C125.43,123.47,125.49,123.81,125.56,123.74Z"/><path class="cls-1" d="M124.17,127.84c0-.59,1-1.14,1.49-1.25.66-.13.8.63.81,1.14,0,.22,0,.47-.21.56a1.72,1.72,0,0,1-.6,0c-.35,0-1.42,0-1.48-.54,0-.24-.17-.06-.15.1.09.74,1.15.8,1.72.8.24,0,.58,0,.75-.18a1.44,1.44,0,0,0,.14-.87c0-.61-.2-1.58-1-1.4s-1.59.81-1.6,1.6C124,128.05,124.17,128.05,124.17,127.84Z"/><path class="cls-1" d="M126.13,131.73a1.68,1.68,0,0,1,.16-1.9c.38-.44,1,0,1.35.33.14.13.41.35.36.52s-.39.43-.53.55c-.31.27-.94.79-1.36.47-.08-.06-.13.28,0,.35.59.44,1.52-.49,1.87-.89s.21-.94-.26-1.35a1.8,1.8,0,0,0-1-.53c-.34,0-.53.29-.65.57a2.18,2.18,0,0,0,0,2.18C126.15,132.15,126.2,131.8,126.13,131.73Z"/><path class="cls-1" d="M130.36,133.15c-.59,0-1.07-.71-1.27-1.21s-.08-.56.26-.71a2.4,2.4,0,0,1,.86-.17c.17,0,.51,0,.65.1s.1.41.09.58c0,.41,0,1.35-.59,1.42-.12,0-.1.37,0,.36.68-.09.74-1.23.75-1.74a1.68,1.68,0,0,0-.1-.86c-.16-.24-.55-.23-.8-.22-.66,0-1.46.23-1.36,1s.74,1.76,1.52,1.78C130.47,133.51,130.48,133.15,130.36,133.15Z"/><path class="cls-1" d="M134.39,131.16a1.74,1.74,0,0,1-1.66.1,1.19,1.19,0,0,1-.59-.34c-.17-.29.18-.71.35-.92s.58-.67,1-.35,1.22,1.13.91,1.53c-.06.08,0,.42.08.31.43-.57-.16-1.37-.54-1.79-.16-.18-.43-.53-.69-.58s-.58.3-.74.48c-.36.41-.85,1.2-.35,1.69a2,2,0,0,0,2.31.21C134.51,131.43,134.45,131.09,134.39,131.16Z"/><path class="cls-1" d="M135.77,127.06c0,.59-1,1.14-1.49,1.25-.66.13-.8-.63-.81-1.14,0-.22,0-.47.21-.56a1.72,1.72,0,0,1,.6,0c.35,0,1.42,0,1.48.54,0,.24.17.06.15-.1-.09-.74-1.15-.8-1.72-.8-.24,0-.58,0-.75.18a1.44,1.44,0,0,0-.14.87c0,.61.2,1.58,1,1.4s1.59-.81,1.6-1.6C135.94,126.85,135.78,126.84,135.77,127.06Z"/><path class="cls-1" d="M133.81,123.17a1.68,1.68,0,0,1-.16,1.9c-.38.44-1,0-1.35-.33-.14-.13-.41-.35-.36-.52s.39-.43.53-.55c.31-.27.94-.79,1.36-.47.08.06.13-.28,0-.35-.59-.44-1.52.49-1.87.89s-.21.94.26,1.35a1.8,1.8,0,0,0,1,.53c.34,0,.53-.29.65-.57a2.18,2.18,0,0,0,0-2.18C133.79,122.75,133.74,123.1,133.81,123.17Z"/><circle class="cls-1" cx="100" cy="59.16" r="2.25"/><path class="cls-1" d="M99.61,53.46c.59,0,1.07.71,1.27,1.21s.08.56-.26.71a2.4,2.4,0,0,1-.86.17c-.17,0-.51,0-.65-.1S99,55,99,54.88c0-.41,0-1.35.59-1.42.12,0,.1-.37,0-.36-.68.09-.74,1.23-.75,1.74a1.68,1.68,0,0,0,.1.86c.16.24.55.23.8.22.66,0,1.46-.23,1.36-1s-.74-1.76-1.52-1.78C99.5,53.1,99.5,53.46,99.61,53.46Z"/><path class="cls-1" d="M95.59,55.45a1.74,1.74,0,0,1,1.66-.1,1.19,1.19,0,0,1,.59.34c.17.29-.18.71-.35.92s-.58.67-1,.35-1.22-1.13-.91-1.53c.06-.08,0-.42-.08-.31-.43.57.16,1.37.54,1.79.16.18.43.53.69.58s.58-.3.74-.48c.36-.41.85-1.2.35-1.69a2,2,0,0,0-2.31-.21C95.46,55.18,95.52,55.52,95.59,55.45Z"/><path class="cls-1" d="M94.2,59.55c0-.59,1-1.14,1.49-1.25.66-.13.8.63.81,1.14,0,.22,0,.47-.21.56a1.72,1.72,0,0,1-.6,0c-.35,0-1.42,0-1.48-.54,0-.24-.17-.06-.15.1.09.74,1.15.8,1.72.8.24,0,.58,0,.75-.18a1.44,1.44,0,0,0,.14-.87c0-.61-.2-1.58-1-1.4s-1.59.81-1.6,1.6C94,59.77,94.19,59.77,94.2,59.55Z"/><path class="cls-1" d="M96.16,63.44a1.68,1.68,0,0,1,.16-1.9c.38-.44,1,0,1.35.33.14.13.41.35.36.52s-.39.43-.53.55c-.31.27-.94.79-1.36.47-.08-.06-.13.28,0,.35.59.44,1.52-.49,1.87-.89s.21-.94-.26-1.35a1.8,1.8,0,0,0-1-.53c-.34,0-.53.29-.65.57a2.18,2.18,0,0,0,0,2.18C96.18,63.86,96.23,63.51,96.16,63.44Z"/><path class="cls-1" d="M100.39,64.86c-.59,0-1.07-.71-1.27-1.21s-.08-.56.26-.71a2.4,2.4,0,0,1,.86-.17c.17,0,.51,0,.65.1s.1.41.09.58c0,.41,0,1.35-.59,1.42-.12,0-.1.37,0,.36.68-.09.74-1.23.75-1.74a1.68,1.68,0,0,0-.1-.86c-.16-.24-.55-.23-.8-.22-.66,0-1.46.23-1.36,1s.74,1.76,1.52,1.78C100.5,65.22,100.5,64.86,100.39,64.86Z"/><path class="cls-1" d="M104.41,62.87a1.74,1.74,0,0,1-1.66.1,1.19,1.19,0,0,1-.59-.34c-.17-.29.18-.71.35-.92s.58-.67,1-.35,1.22,1.13.91,1.53c-.06.08,0,.42.08.31.43-.57-.16-1.37-.54-1.79-.16-.18-.43-.53-.69-.58s-.58.3-.74.48c-.36.41-.85,1.2-.35,1.69a2,2,0,0,0,2.31.21C104.54,63.14,104.48,62.8,104.41,62.87Z"/><path class="cls-1" d="M105.8,58.77c0,.59-1,1.14-1.49,1.25-.66.13-.8-.63-.81-1.14,0-.22,0-.47.21-.56a1.72,1.72,0,0,1,.6,0c.35,0,1.42,0,1.48.54,0,.24.17.06.15-.1-.09-.74-1.15-.8-1.72-.8-.24,0-.58,0-.75.18a1.44,1.44,0,0,0-.14.87c0,.61.2,1.58,1,1.4s1.59-.81,1.6-1.6C106,58.56,105.81,58.56,105.8,58.77Z"/><path class="cls-1" d="M103.84,54.88a1.68,1.68,0,0,1-.16,1.9c-.38.44-1,0-1.35-.33-.14-.13-.41-.35-.36-.52s.39-.43.53-.55c.31-.27.94-.79,1.36-.47.08.06.13-.28,0-.35-.59-.44-1.52.49-1.87.89s-.21.94.26,1.35a1.8,1.8,0,0,0,1,.53c.34,0,.53-.29.65-.57a2.18,2.18,0,0,0,0-2.18C103.82,54.46,103.77,54.81,103.84,54.88Z"/><path class="cls-1" d="M24.27,176.79c.08-.57,1.09-1.13,1.51-1.42a15.07,15.07,0,0,1,2-1.19,6.16,6.16,0,0,1,2.57-.48,80.55,80.55,0,0,1,8.47-.06c1,.06,2.07-.08,2.34,1.12.23,1,.55,3.57-.72,4a13.75,13.75,0,0,1-3.42.22c-1.54,0-3.08,0-4.63,0a28.11,28.11,0,0,1-3.57-.16,10.31,10.31,0,0,1-2.33-.71c-.51-.21-2.15-.75-2.26-1.41-.06-.37-.28-.1-.24.15.22,1.36,2.77,2,3.84,2.3a12.93,12.93,0,0,0,3.38.36q2.77.08,5.55,0c1.15,0,2.87.2,3.94-.28.91-.4.84-2,.84-2.87s0-2.58-.89-3-2.86-.28-4-.29c-1.81,0-3.62,0-5.42.09a8.59,8.59,0,0,0-3.53.54c-1.08.52-3.51,1.62-3.71,3C24,176.89,24.22,177.16,24.27,176.79Z"/><path class="cls-1" d="M19.34,178a16.24,16.24,0,0,1,6.23-1c.17,0,.18-.55,0-.56a16.37,16.37,0,0,0-6.29,1.07c-.15.06-.12.61.07.54Z"/><path class="cls-1" d="M27.92,176.58a7.41,7.41,0,0,1,2,0c.14,0,.16-.48,0-.49a7.41,7.41,0,0,0-2,0c-.16,0-.13.52,0,.49Z"/><path class="cls-1" d="M33.35,174.6l-.84-.14c-.18,0-.56-.14-.74,0s-.63,1.27-.31,1.52.67.11.91.13.52,0,.58.11-.13.53-.17.63c-.17.37-.47.2-.81.11s-.58-.17-.87-.27-.19.43-.06.47l.73.23c.22.07.68.27.91.17a1.75,1.75,0,0,0,.44-1.71c-.16-.22-.57-.21-.81-.23l-.6-.06s-.23-.07-.16,0,.09-.2.12-.28.09-.3.27-.34a1.71,1.71,0,0,1,.52.05l.89.15c.13,0,.16-.46,0-.49Z"/><path class="cls-1" d="M34.51,174.63c-.23.16-.27.7-.32.94A11.58,11.58,0,0,0,34,177c0,.24-.05.47.18.6a3.19,3.19,0,0,0,1.39.2c.36,0,.43-.14.5-.48a6.68,6.68,0,0,0,.12-1.49c0-.29,0-.71-.2-.93a2,2,0,0,0-1.43-.26c-.16,0-.13.5,0,.48a2.27,2.27,0,0,1,1,.07c.44.11.45.28.45.7a6.7,6.7,0,0,1-.07,1.07c-.06.37-.17.37-.53.35a5,5,0,0,1-1-.14,1.18,1.18,0,0,0-.2-.06c-.09,0,0,.14,0,.09a1.4,1.4,0,0,1,0-.32c0-.36.1-.71.17-1.07,0-.14.06-.63.19-.72S34.63,174.55,34.51,174.63Z"/><path class="cls-1" d="M38.94,174.63a17.26,17.26,0,0,0-1.51,2.92c0,.13.06.59.15.35a16.78,16.78,0,0,1,1.47-2.84c.07-.12,0-.58-.11-.43Z"/><path class="cls-1" d="M37,175a.88.88,0,0,0-.15.52,2.85,2.85,0,0,0,0,.66c0,.14.06.36.22.41a.8.8,0,0,0,.53-.17,1.11,1.11,0,0,0,.33-1,.47.47,0,0,0-.3-.46A.74.74,0,0,0,37,175c-.12.09-.06.56.06.47s.61-.16.67.06a.7.7,0,0,1-.05.33s0,0,0,0l0,0-.13.08a.83.83,0,0,1-.34.13c-.1,0-.1,0-.12-.1s-.08-.47,0-.58S37.14,174.87,37,175Z"/><path class="cls-1" d="M39.29,178a.88.88,0,0,0,.15-.52,2.85,2.85,0,0,0,0-.66c0-.14-.06-.36-.22-.41a.8.8,0,0,0-.53.17,1.11,1.11,0,0,0-.33,1,.47.47,0,0,0,.3.46.74.74,0,0,0,.64-.06c.12-.09.06-.56-.06-.47s-.61.16-.67-.06a.7.7,0,0,1,.05-.33s0,0,0,0l0,0,.13-.08a.83.83,0,0,1,.34-.13c.1,0,.1,0,.12.1s.08.47,0,.58S39.15,178.11,39.29,178Z"/><path class="cls-1" d="M82.08,107.45c1.16-.12,2.75,1.87,3.4,2.61a5.67,5.67,0,0,1,1.17,2.31c.82,2.65,1.57,5.35,2.12,8.07A9.06,9.06,0,0,1,89,122c0,.68-.4.86-1,1.12-.79.35-3.2,1.27-3.95.44-.6-.66-.78-2.14-1-3-.42-1.48-.79-3-1.15-4.47a32.43,32.43,0,0,1-.81-3.82,9.27,9.27,0,0,1,.08-2.12c.08-.7.17-2.42.94-2.75.15-.07.11-.62-.07-.54-1.12.49-1.15,3.21-1.2,4.18a12,12,0,0,0,.38,3.31c.38,1.78.82,3.55,1.29,5.32a22.07,22.07,0,0,0,1.26,4c.54,1.11,2.06.63,3,.36s2.39-.58,2.47-1.72a13.34,13.34,0,0,0-.65-3.78c-.42-1.77-.9-3.52-1.4-5.27A10.19,10.19,0,0,0,86,110.08a13.17,13.17,0,0,0-1.95-2c-.48-.42-1.28-1.24-2-1.16C81.89,106.9,81.91,107.46,82.08,107.45Z"/><path class="cls-1" d="M79.84,103a16.12,16.12,0,0,1,2.51,5.71c.07.36.25-.11.21-.28a16.52,16.52,0,0,0-2.6-5.91c-.12-.18-.22.35-.12.49Z"/><path class="cls-1" d="M83.28,110.9a7,7,0,0,1,.46,1.85c.05.33.24.09.21-.13a7.79,7.79,0,0,0-.52-2.07c-.11-.24-.21.22-.15.35Z"/><path class="cls-1" d="M86.23,115.56c0-.28,0-.56-.07-.84a1.81,1.81,0,0,0-.15-.81c-.22-.28-1.19-.36-1.28.08a3,3,0,0,0,.09.94c0,.08.1.41,0,.49s-.49.05-.6,0-.51,0-.59-.11,0-.37,0-.5c0-.29,0-.58.05-.88s-.18-.46-.21-.13,0,.57-.05.85a2.22,2.22,0,0,0,.06,1c.19.36,1.3.44,1.52.1s.05-.68,0-.93a4.14,4.14,0,0,1-.09-.61c0-.11-.12,0,0,0h.28c.13,0,.49,0,.59.1s.06.33.08.44c0,.31.06.63.08.95s.22.09.21-.13Z"/><path class="cls-1" d="M86.43,116.55c-.2-.18-.82-.06-1.06,0a4.91,4.91,0,0,0-1.33.15c-.27.1-.25.32-.25.6a4.44,4.44,0,0,0,.2,1.4c.13.34.31.33.65.3a6.63,6.63,0,0,0,1.48-.3.66.66,0,0,0,.54-.7,2.73,2.73,0,0,0-.19-1.34c-.11-.23-.21.22-.15.34s.26.88.08,1.1-.66.23-.88.28a6.13,6.13,0,0,1-1,.15c-.38,0-.38-.13-.44-.49,0-.17-.05-.35-.06-.53s0-.38,0-.32c.12-.11.53-.09.68-.11.36,0,.71-.07,1.07-.08.15,0,.53-.07.65,0S86.55,116.66,86.43,116.55Z"/><path class="cls-1" d="M87.54,120.86a17.27,17.27,0,0,0-3.19-.75c-.14,0-.16.47,0,.49a17,17,0,0,1,3.13.74c.16.05.19-.43.06-.47Z"/><path class="cls-1" d="M86.69,119.08a.8.8,0,0,0-.53,0,1.54,1.54,0,0,0-.55.21c-.36.27,0,.8.21,1a.86.86,0,0,0,1,0c.35-.26.18-1-.1-1.25-.1-.09-.18.37-.06.47s.16.23.07.32a.69.69,0,0,1-.36.09.49.49,0,0,1-.51-.17l-.1-.13-.05-.09q-.11.29,0,.19a1.82,1.82,0,0,0,.29-.13c.16-.05.49-.17.66-.09S86.83,119.15,86.69,119.08Z"/><path class="cls-1" d="M84.72,122.28a.8.8,0,0,0,.53,0,1.54,1.54,0,0,0,.55-.21c.36-.27,0-.8-.21-1a.86.86,0,0,0-1,0c-.35.26-.18,1,.1,1.25.1.09.18-.37.06-.47s-.16-.23-.07-.32a.69.69,0,0,1,.36-.09.49.49,0,0,1,.51.17l.1.13.05.09q.11-.29,0-.19a1.82,1.82,0,0,0-.29.13c-.16.05-.49.17-.66.09S84.58,122.21,84.72,122.28Z"/><path class="cls-1" d="M153.18,25.62c-.33-1.11,1.31-3.05,1.92-3.83a5.67,5.67,0,0,1,2-1.58c2.45-1.3,5-2.56,7.52-3.62a9.06,9.06,0,0,1,1.49-.55c.66-.14.92.23,1.29.77.5.71,1.86,2.9,1.18,3.79-.53.71-2,1.17-2.72,1.55-1.37.69-2.77,1.34-4.17,2a32.43,32.43,0,0,1-3.6,1.52A9.27,9.27,0,0,1,156,26c-.7,0-2.4.29-2.88-.4-.09-.14-.63,0-.52.17.69,1,3.37.52,4.33.39a12,12,0,0,0,3.17-1c1.68-.72,3.34-1.48,5-2.27a22.07,22.07,0,0,0,3.73-2c1-.74.23-2.14-.22-3s-1-2.24-2.16-2.1a13.34,13.34,0,0,0-3.59,1.36c-1.66.75-3.29,1.55-4.91,2.38a10.19,10.19,0,0,0-3,1.8,13.17,13.17,0,0,0-1.63,2.3c-.32.55-1,1.5-.76,2.18C152.68,25.9,153.23,25.78,153.18,25.62Z"/><path class="cls-1" d="M149.19,28.67a16.12,16.12,0,0,1,5.13-3.55c.34-.13-.15-.22-.32-.16a16.52,16.52,0,0,0-5.31,3.67c-.15.15.39.15.5,0Z"/><path class="cls-1" d="M156.34,23.78a7,7,0,0,1,1.73-.81c.31-.11,0-.26-.17-.18a7.79,7.79,0,0,0-1.93.9c-.21.16.26.17.37.08Z"/><path class="cls-1" d="M160.36,20l-.82.23c-.21.06-.61.13-.76.3s-.13,1.24.32,1.24a3,3,0,0,0,.91-.27c.08,0,.39-.18.47-.13s.15.47.16.58.09.5,0,.6-.36.1-.49.12c-.29,0-.58.09-.87.12s-.42.26-.09.23l.84-.11a2.22,2.22,0,0,0,1-.25c.32-.25.19-1.36-.19-1.51s-.68.08-.92.16a4.14,4.14,0,0,1-.58.2c-.11,0,0,.12,0,0s0-.18-.06-.27-.1-.49,0-.6.32-.13.42-.16l.91-.26c.32-.08,0-.23-.17-.18Z"/><path class="cls-1" d="M161.29,19.61c-.14.23.1.82.16,1a4.91,4.91,0,0,0,.4,1.28c.15.25.36.19.64.13a4.44,4.44,0,0,0,1.34-.46c.31-.19.27-.37.17-.7a6.63,6.63,0,0,0-.58-1.4.66.66,0,0,0-.79-.4,2.73,2.73,0,0,0-1.28.44c-.2.16.25.16.36.08s.82-.42,1.07-.29.36.61.44.81a6.13,6.13,0,0,1,.34,1c.09.37-.06.4-.4.53l-.5.16c-.11,0-.38,0-.3.11-.13-.1-.19-.5-.24-.65-.1-.34-.2-.69-.28-1,0-.15-.17-.5-.08-.65S161.37,19.48,161.29,19.61Z"/><path class="cls-1" d="M165.31,17.71a17.27,17.27,0,0,0-.13,3.27c0,.14.49.07.48-.09a17,17,0,0,1,.13-3.21c0-.17-.46-.11-.48,0Z"/><path class="cls-1" d="M163.73,18.88a.8.8,0,0,0,.12.52,1.54,1.54,0,0,0,.31.5c.33.3.79-.13,1-.4a.86.86,0,0,0-.18-1c-.32-.29-1,0-1.21.34-.07.12.4.1.48,0s.2-.2.3-.13.13.24.15.34a.49.49,0,0,1-.07.53l-.11.12-.08.07q.3.05.19,0c0-.08-.14-.19-.18-.26s-.26-.45-.21-.63S163.77,18.73,163.73,18.88Z"/><path class="cls-1" d="M167.24,20.21a.8.8,0,0,0-.12-.52,1.54,1.54,0,0,0-.31-.5c-.33-.3-.79.13-1,.4a.86.86,0,0,0,.18,1c.32.29,1,0,1.21-.34.07-.12-.4-.1-.48,0s-.2.2-.3.13-.13-.24-.15-.34a.49.49,0,0,1,.07-.53l.11-.12.08-.07q-.3-.05-.19,0c0,.08.14.19.18.26s.26.45.21.63S167.2,20.36,167.24,20.21Z"/><path class="cls-1" d="M184.73,135.15c-.72.88-3.27.61-4.26.54a5.68,5.68,0,0,1-2.45-.79c-2.48-1.3-5-2.69-7.29-4.23a14.31,14.31,0,0,1-1.29-.92c-.55-.45-.54-.67-.27-1.38s1.35-3.16,2.49-3.07a8.9,8.9,0,0,1,2.86,1.4c1.34.75,2.67,1.53,4,2.34a38.17,38.17,0,0,1,3.25,2.1,8.78,8.78,0,0,1,1.43,1.47c.36.44,1.76,2,1.52,2.58-.06.14.07.67.18.4.47-1.2-1-2.77-1.66-3.58a11.12,11.12,0,0,0-2.71-2.3c-1.52-1-3.06-1.92-4.62-2.82a22.77,22.77,0,0,0-3.92-2.06c-1.14-.38-1.89,1.08-2.37,1.92s-1.27,2.15-.74,3,2.1,1.61,3,2.15c1.55,1,3.14,1.87,4.73,2.74a10.62,10.62,0,0,0,3.28,1.51,13.06,13.06,0,0,0,3,0c.59-.05,1.58-.08,2-.59C185,135.51,184.88,135,184.73,135.15Z"/><path class="cls-1" d="M189.49,136.72a16.25,16.25,0,0,1-5.89-2.29c-.14-.09-.21.44-.07.54a16.36,16.36,0,0,0,6,2.31c.15,0,.19-.53,0-.56Z"/><path class="cls-1" d="M181.4,133.55a7.32,7.32,0,0,1-1.73-1c-.12-.08-.18.38-.06.47a7.32,7.32,0,0,0,1.73,1c.16.06.19-.43.06-.47Z"/><path class="cls-1" d="M175.91,132.53c.29.26.89,1,1.29.95.23,0,.64-.42.77-.61a.55.55,0,0,0,.07-.56c-.13-.24-.48-.41-.69-.57l-.29-.23c-.09-.08-.13-.19-.15-.12s.23-.17.26-.19l.26-.21c.16-.12.26-.21.43-.14s.31.28.42.4.41.45.6.68.2-.32.11-.43-.39-.46-.6-.68-.4-.49-.62-.51-.62.37-.78.54a.8.8,0,0,0-.3.73c.06.27.35.45.55.6s.35.27.53.39.14-.1,0,0a2.89,2.89,0,0,0-.25.22c-.38.29-.49.16-.84-.12s-.47-.39-.7-.6-.18.37-.06.47Z"/><path class="cls-1" d="M174.92,131.91c.26,0,.56-.46.71-.63a7.19,7.19,0,0,0,.91-1.13c.39-.67-.56-1.22-1.06-1.51-.33-.19-.45-.13-.7.14a6.46,6.46,0,0,0-.88,1.31,1,1,0,0,0-.11.89,2.2,2.2,0,0,0,1.09.91c.16.05.19-.41.06-.46a2.06,2.06,0,0,1-.89-.65c-.11-.16-.1-.13,0-.31a3.73,3.73,0,0,1,.3-.51,4.28,4.28,0,0,1,.62-.83c.25-.23.4-.08.66.09s.52.54.79.65l.07.08v-.26s-.06.1-.07.1a2.1,2.1,0,0,0-.24.32q-.32.41-.67.79c-.11.12-.38.51-.57.52S174.78,131.92,174.92,131.91Z"/><path class="cls-1" d="M171.11,129.65a16.94,16.94,0,0,0,2.76-1.71c.12-.09.05-.56-.06-.47a16.94,16.94,0,0,1-2.76,1.71c-.13.07-.09.55.06.47Z"/><path class="cls-1" d="M172.95,130.31c.32-.1.55-.63.63-.92a.61.61,0,0,0,0-.53.69.69,0,0,0-.5-.16.49.49,0,0,0-.4.13,1.44,1.44,0,0,0-.38.54.71.71,0,0,0,.69.94c.16,0,.15-.5,0-.49s-.29-.09-.44-.17-.07-.09-.07,0,0,.06,0,0,.08-.13.13-.19a.49.49,0,0,1,.49-.24l.17,0a1.06,1.06,0,0,0,.17.06s.05,0,0-.08,0-.12,0-.09l-.06.16c-.07.15-.22.5-.4.56S172.83,130.35,172.95,130.31Z"/><path class="cls-1" d="M172.37,126.54c-.32.1-.55.63-.63.92a.61.61,0,0,0,0,.53.69.69,0,0,0,.5.16.49.49,0,0,0,.4-.13,1.44,1.44,0,0,0,.38-.54.71.71,0,0,0-.69-.94c-.16,0-.15.5,0,.49s.29.09.44.17.07.09.07,0,0-.06,0,0-.08.13-.13.19a.49.49,0,0,1-.49.24l-.17,0a1.06,1.06,0,0,0-.17-.06s-.05,0,0,.08,0,.12,0,.09l.06-.16c.07-.15.22-.5.4-.56S172.49,126.5,172.37,126.54Z"/><path class="cls-1" d="M174.38,58.72c1-.61,3.29.46,4.21.84a5.68,5.68,0,0,1,2.07,1.53c1.94,2,3.84,4.12,5.57,6.33a14.31,14.31,0,0,1,.93,1.28c.37.6.3.81-.19,1.4s-2.28,2.57-3.34,2.12c-.85-.36-1.67-1.59-2.27-2.24-1-1.14-2-2.3-3-3.48a38.17,38.17,0,0,1-2.42-3,8.78,8.78,0,0,1-.89-1.85c-.2-.54-1-2.42-.62-2.93.1-.12.15-.66,0-.43-.82,1,.06,2.94.43,3.92a11.12,11.12,0,0,0,1.84,3c1.13,1.41,2.29,2.79,3.49,4.15a22.77,22.77,0,0,0,3.06,3.21c1,.72,2.14-.42,2.86-1.06s1.88-1.64,1.67-2.65-1.47-2.2-2.12-3c-1.16-1.4-2.38-2.77-3.62-4.11a10.62,10.62,0,0,0-2.63-2.47,13.06,13.06,0,0,0-2.87-1c-.58-.14-1.53-.43-2.08-.07C174.28,58.31,174.19,58.84,174.38,58.72Z"/><path class="cls-1" d="M170.37,55.72a16.25,16.25,0,0,1,4.85,4c.1.13.34-.35.23-.49a16.36,16.36,0,0,0-4.91-4.08c-.13-.07-.35.44-.18.53Z"/><path class="cls-1" d="M177,61.3a7.32,7.32,0,0,1,1.32,1.53c.08.12.3-.3.21-.43a7.32,7.32,0,0,0-1.32-1.53c-.14-.11-.32.34-.21.43Z"/><path class="cls-1" d="M181.91,64c-.2-.34-.53-1.2-.92-1.31a1.58,1.58,0,0,0-.92.33.55.55,0,0,0-.24.51,2.28,2.28,0,0,0,.47.76c.07.1.14.2.2.31s.06.22.1.16-.27.09-.31.1L180,65c-.19.06-.31.12-.46,0a1.57,1.57,0,0,1-.27-.51c-.13-.27-.25-.55-.36-.83s-.29.24-.24.37.23.56.36.83.22.59.42.68.71-.16.91-.26a.8.8,0,0,0,.52-.6,1.27,1.27,0,0,0-.33-.75c-.12-.18-.24-.37-.38-.54s-.16,0,0,0a2.89,2.89,0,0,0,.31-.13c.45-.16.51,0,.76.38s.32.52.48.79c.07.11.28-.3.21-.43Z"/><path class="cls-1" d="M182.65,64.91c-.25-.06-.67.26-.87.37a7.19,7.19,0,0,0-1.23.78c-.58.51.14,1.33.52,1.76s.38.27.71.08A6.46,6.46,0,0,0,183,67a1,1,0,0,0,.39-.81,2.2,2.2,0,0,0-.74-1.21c-.13-.1-.31.33-.2.42a2.06,2.06,0,0,1,.63.9c.05.18.06.15-.08.3a3.73,3.73,0,0,1-.45.39,4.28,4.28,0,0,1-.85.59c-.3.14-.4,0-.59-.3a6.42,6.42,0,0,0-.54-.87l0-.09-.08.25.1-.08a2.1,2.1,0,0,0,.33-.23q.43-.28.89-.54c.15-.08.52-.36.7-.31S182.79,64.95,182.65,64.91Z"/><path class="cls-1" d="M185.54,68.27a16.94,16.94,0,0,0-3.16.75c-.15.05-.23.51-.1.47a16.94,16.94,0,0,1,3.16-.75c.15,0,.26-.49.1-.47Z"/><path class="cls-1" d="M184,67.06c-.33,0-.72.42-.89.67a.61.61,0,0,0-.13.52c.06.16.28.25.42.31a.49.49,0,0,0,.43,0,1.44,1.44,0,0,0,.53-.39.71.71,0,0,0-.35-1.11c-.15,0-.3.43-.16.47s.25.18.36.3,0,.1.06,0,0-.05,0,0l-.18.14a.49.49,0,0,1-.54.08l-.15-.07s-.12-.11-.15-.11,0,0,0,.07,0,.12,0,.09l.11-.13c.11-.12.37-.41.55-.4S184.14,67.06,184,67.06Z"/><path class="cls-1" d="M183.36,70.82c.33,0,.72-.42.89-.67a.61.61,0,0,0,.13-.52c-.06-.16-.28-.25-.42-.31a.49.49,0,0,0-.43,0,1.44,1.44,0,0,0-.53.39.71.71,0,0,0,.35,1.11c.15,0,.3-.43.16-.47s-.25-.18-.36-.3,0-.1-.06,0,0,.05,0,0l.18-.14a.49.49,0,0,1,.54-.08l.15.07s.12.11.15.11,0,0,0-.07,0-.12,0-.09l-.11.13c-.11.12-.37.41-.55.4S183.24,70.82,183.36,70.82Z"/></g></svg>